STARTFONT 2.3
FONT -FontForge-Bungee Shade-Book-R-Normal--18-180-72-72-P-154-ISO10646-1
SIZE 18 72 72  2
FONTBOUNDINGBOX 46 47 -11 -17
COMMENT "Generated by fontforge, http://fontforge.sourceforge.net"
COMMENT "Copyright 2008 The Bungee Project Authors (david@djr.com)"
STARTPROPERTIES 40
FOUNDRY "FontForge"
FAMILY_NAME "Bungee Shade"
WEIGHT_NAME "Book"
SLANT "R"
SETWIDTH_NAME "Normal"
ADD_STYLE_NAME ""
PIXEL_SIZE 18
POINT_SIZE 180
RESOLUTION_X 72
RESOLUTION_Y 72
SPACING "P"
AVERAGE_WIDTH 154
CHARSET_REGISTRY "ISO10646"
CHARSET_ENCODING "1"
FONTNAME_REGISTRY ""
CHARSET_COLLECTIONS "ISO8859-2 ISO8859-9 ISO8859-4 ISO10646-1"
BITS_PER_PIXEL 2
FONT_NAME "BungeeShade-Regular"
FACE_NAME "Bungee Shade"
COPYRIGHT "Copyright 2008 The Bungee Project Authors (david@djr.com)"
FONT_VERSION "1.000;PS 1.0;hotconv 1.0.72;makeotf.lib2.5.5900"
FONT_ASCENT 15
FONT_DESCENT 3
UNDERLINE_POSITION 0
UNDERLINE_THICKNESS 0
X_HEIGHT 13
CAP_HEIGHT 13
RAW_ASCENT 860
RAW_DESCENT 140
NORM_SPACE 6
RELATIVE_WEIGHT 40
RELATIVE_SETWIDTH 50
SUPERSCRIPT_X 0
SUPERSCRIPT_Y 6
SUPERSCRIPT_SIZE 10
SUBSCRIPT_X 0
SUBSCRIPT_Y 1
SUBSCRIPT_SIZE 10
AVG_LOWERCASE_WIDTH 147
AVG_UPPERCASE_WIDTH 150
ENDPROPERTIES
CHARS 1065
STARTCHAR space
ENCODING 32
SWIDTH 325 0
DWIDTH 6 0
BBX 1 1 0 0
BITMAP
00
ENDCHAR
STARTCHAR exclam
ENCODING 33
SWIDTH 524 0
DWIDTH 9 0
BBX 8 16 1 -2
BITMAP
0554
2801
B841
F841
F841
F841
B841
B801
BEA8
BEA4
7801
7801
F801
F954
FFF4
BFD0
ENDCHAR
STARTCHAR quotedbl
ENCODING 34
SWIDTH 746 0
DWIDTH 13 0
BBX 13 10 0 4
BITMAP
05555540
2C028000
BC128400
BC128440
BC128440
BC028040
7C038040
7FFFFF40
7FDBFC00
15015000
ENDCHAR
STARTCHAR numbersign
ENCODING 35
SWIDTH 850 0
DWIDTH 15 0
BBX 15 16 0 -2
BITMAP
00154550
00D06810
02846404
09040000
2D155540
3E045114
3F84F134
3E449110
18000104
78155504
B8100000
BE128450
BF03C040
6F57D500
2FFBFD00
2F87F400
ENDCHAR
STARTCHAR dollar
ENCODING 36
SWIDTH 750 0
DWIDTH 14 0
BBX 14 20 0 -4
BITMAP
00055000
00200000
00500540
01000040
08055040
2C100040
7C02FE00
BC005900
BC000040
BE000000
7F900010
3FFF8010
09554410
1C155000
7C000040
BD500600
BFF00800
7FF55000
01FFC000
01FE0000
ENDCHAR
STARTCHAR percent
ENCODING 37
SWIDTH 1131 0
DWIDTH 20 0
BBX 21 16 0 -2
BITMAP
015541540000
081418040000
2C412C040000
786828400000
B86824100000
B85525115400
BC1421100100
BE00A1215000
7FFFD0609440
2FF7D4A09440
0143C4A09440
000780E00400
000B81F15000
000B96F95400
000FFAFFF400
000FD0BF8000
ENDCHAR
STARTCHAR ampersand
ENCODING 38
SWIDTH 866 0
DWIDTH 16 0
BBX 16 16 0 -2
BITMAP
00155500
01400000
07015000
1F000000
1F00F800
2F406000
1F451400
1D002841
3C42B841
B847F845
B8400044
BC155504
BD000000
7F955540
3FFFFE00
0BFFF800
ENDCHAR
STARTCHAR quotesingle
ENCODING 39
SWIDTH 456 0
DWIDTH 8 0
BBX 8 10 0 4
BITMAP
0555
1C01
7C11
7C11
7D11
7D01
7D01
7FF8
7FE0
1540
ENDCHAR
STARTCHAR parenleft
ENCODING 40
SWIDTH 529 0
DWIDTH 10 0
BBX 9 19 0 -3
BITMAP
001540
010000
051400
2C1000
7C0340
7C0100
BC0100
BC0100
BC0100
BC0100
BC0100
BC0100
BC0100
BC0140
BD1000
BE0400
7F9540
3FFF40
0BF800
ENDCHAR
STARTCHAR parenright
ENCODING 41
SWIDTH 529 0
DWIDTH 10 0
BBX 9 19 0 -3
BITMAP
015400
180100
7C1440
BC0440
BF8400
BF8400
1F8400
0B8400
0B8400
0B8400
0B8400
0B8400
0B8400
094400
180440
7C1040
BD5500
BFF400
7F8000
ENDCHAR
STARTCHAR asterisk
ENCODING 42
SWIDTH 818 0
DWIDTH 15 0
BBX 14 13 0 1
BITMAP
00055400
002C0400
017C4440
06054410
1D004110
2D015000
3FE012D0
7FD10140
06808040
0781D040
0FF6F500
0FFBF800
02D2D000
ENDCHAR
STARTCHAR plus
ENCODING 43
SWIDTH 834 0
DWIDTH 15 0
BBX 15 14 0 -1
BITMAP
00015000
00180400
007C0400
00BC4400
01684550
09004004
2D155504
3D004000
7FFC4BD0
3FFC4B40
15BC0400
00BD5400
00BFE000
007F4000
ENDCHAR
STARTCHAR comma
ENCODING 44
SWIDTH 484 0
DWIDTH 9 0
BBX 9 10 0 -4
BITMAP
015500
080000
3C1440
7C0440
7C0440
7F9400
7D1100
2E5400
7FF000
3F8000
ENDCHAR
STARTCHAR hyphen
ENCODING 45
SWIDTH 520 0
DWIDTH 9 0
BBX 9 7 0 3
BITMAP
015540
180000
781400
B80000
BD5540
BFFF00
BFF800
ENDCHAR
STARTCHAR period
ENCODING 46
SWIDTH 484 0
DWIDTH 9 0
BBX 9 8 0 -2
BITMAP
015500
080000
3C0040
7C1040
7C0040
7D5500
7FFD00
7FE000
ENDCHAR
STARTCHAR slash
ENCODING 47
SWIDTH 487 0
DWIDTH 9 0
BBX 9 20 0 -4
BITMAP
001540
018040
078440
0B4440
0F4440
0F0000
1F1000
1E1100
2E1100
2E1100
2D1100
3D1100
3C0100
7C0000
784400
B80400
B80400
BFE000
FF8000
150000
ENDCHAR
STARTCHAR zero
ENCODING 48
SWIDTH 827 0
DWIDTH 15 0
BBX 15 16 0 -2
BITMAP
00155540
01055410
09100100
2D11A004
3C12F044
7C12F044
7C12F044
7C12F044
7C12F044
7C12F004
7D100104
7D055400
7F000010
3FE55640
1FFFFD00
06FFA000
ENDCHAR
STARTCHAR one
ENCODING 49
SWIDTH 701 0
DWIDTH 13 0
BBX 13 16 0 -2
BITMAP
01555000
0D001000
3D151000
7D011000
7F911000
7FE11000
1BE11000
03E11000
03E11000
03E11000
02910500
1C010040
7C155040
BD555540
BFFFFD00
7FFFF400
ENDCHAR
STARTCHAR two
ENCODING 50
SWIDTH 739 0
DWIDTH 13 0
BBX 13 16 0 -2
BITMAP
01555500
0D000000
3D155040
3E550440
3FFF4440
3FE40440
01400040
05000000
2C000500
7801B000
B8029500
B8155440
B8000040
BD555540
BFFFFE00
BFFFF800
ENDCHAR
STARTCHAR three
ENCODING 51
SWIDTH 737 0
DWIDTH 13 0
BBX 13 16 0 -2
BITMAP
05555400
1C000100
7C154100
BD001100
BFFE1100
7F941000
07415100
0F400440
0FEA4440
0FFF8440
0C000440
2C155000
7C000040
BD555500
BFFFF400
7FFF9000
ENDCHAR
STARTCHAR four
ENCODING 52
SWIDTH 809 0
DWIDTH 15 0
BBX 14 16 0 -2
BITMAP
05551550
1D01A010
3D12E110
7D12E110
7D12E110
7D12E110
7D119110
7D100110
7D055510
7E000110
3F954110
2FFFE110
0BFFE010
0003E550
0003FF80
0002FE00
ENDCHAR
STARTCHAR five
ENCODING 53
SWIDTH 747 0
DWIDTH 13 0
BBX 13 16 0 -2
BITMAP
05555500
1D000040
3D155040
7D100040
7D12FE00
7D105500
7D155040
7D000400
7EAA4400
7FFF8400
1D000400
2C155040
7C000040
7D555500
7FFFF400
7FFF9000
ENDCHAR
STARTCHAR six
ENCODING 54
SWIDTH 793 0
DWIDTH 14 0
BBX 14 16 0 -2
BITMAP
00555540
01055040
09100040
2D100040
7C12FE00
7C115540
7C155410
7C100110
7C12D110
7C12E110
7D115110
7D100110
7F055400
3FE55640
1FFFFC00
06FF9000
ENDCHAR
STARTCHAR seven
ENCODING 55
SWIDTH 727 0
DWIDTH 13 0
BBX 13 16 0 -2
BITMAP
05555540
28000040
B8155040
B8000440
BFFF4440
BFFF4440
15540400
00405000
02450100
0B041400
1F049000
1F044000
1F004000
1F554000
1FFD0000
1FF40000
ENDCHAR
STARTCHAR eight
ENCODING 56
SWIDTH 811 0
DWIDTH 15 0
BBX 15 16 0 -2
BITMAP
00105500
01055040
07100010
1E12D110
2F12E110
2F504140
2E055410
1C100100
3C03F004
7C43F004
BC015004
BC100100
BE055410
7FE55640
2FFFFD00
06FFA000
ENDCHAR
STARTCHAR nine
ENCODING 57
SWIDTH 793 0
DWIDTH 14 0
BBX 14 16 0 -2
BITMAP
00555500
01055040
08100110
3C014110
7C03D110
BC03D110
BC100110
BD015510
7F500110
3FFFD110
1B954010
07455410
0F400040
1F955500
1FFFF800
0FFF9000
ENDCHAR
STARTCHAR colon
ENCODING 58
SWIDTH 484 0
DWIDTH 9 0
BBX 9 15 0 -2
BITMAP
015500
080000
3C0040
7C1040
7C0040
7C0000
7FA900
7EA500
1C0000
3C0040
7C1040
7C0040
7D5500
7FFD00
7FE000
ENDCHAR
STARTCHAR semicolon
ENCODING 59
SWIDTH 484 0
DWIDTH 9 0
BBX 9 17 0 -4
BITMAP
015500
080000
3C0040
7C1040
7C0040
7C0000
7FA900
7EA500
1C0000
3C1440
7C0440
7C0440
7F9400
7D1100
2E5400
7FF000
3F8000
ENDCHAR
STARTCHAR less
ENCODING 60
SWIDTH 814 0
DWIDTH 15 0
BBX 13 13 1 -1
BITMAP
00001540
00150040
01001040
08140040
38406D00
B84BF400
F8405000
F8140000
FE005040
BFE90040
2FFFE440
01BFFE00
0006F400
ENDCHAR
STARTCHAR equal
ENCODING 61
SWIDTH 834 0
DWIDTH 15 0
BBX 15 12 0 0
BITMAP
01555550
09000004
2D155504
3D000004
7FAAAA90
3FFFFF80
1A555500
09000004
3D155504
7E555550
7FFFFFD0
3FFFFF40
ENDCHAR
STARTCHAR greater
ENCODING 62
SWIDTH 814 0
DWIDTH 15 0
BBX 13 14 1 -1
BITMAP
0B900000
296E5000
B811BD00
B8014640
BC000440
BFE40440
1BFF8400
02E41000
19054000
78000100
B801A000
B86E4000
BE500000
50000000
ENDCHAR
STARTCHAR question
ENCODING 63
SWIDTH 756 0
DWIDTH 14 0
BBX 14 16 0 -2
BITMAP
05555500
2C000040
7C155000
BC000410
BFFFC010
BF950010
16401400
0B850000
0F805500
0FEAB400
0B401000
0B400000
1F400000
1F954000
1FFE0000
0FF80000
ENDCHAR
STARTCHAR at
ENCODING 64
SWIDTH 967 0
DWIDTH 17 0
BBX 17 20 0 -4
BITMAP
0001554000
0050000400
011BFFE000
096FFFF840
2D55556940
3D54551940
7D71005940
7D71385940
7D71385940
7D71385940
7D71385940
7D71004540
7D74555400
7D7D555500
7E5FFFF400
3F51AA9000
2FE9554000
0FFFFFD000
02FFFF4000
0005540000
ENDCHAR
STARTCHAR A
ENCODING 65
SWIDTH 830 0
DWIDTH 15 0
BBX 15 16 0 -2
BITMAP
00155500
00800040
02815040
07400000
0B00D010
0E01E010
1D02F000
2C000004
3C155544
7C000044
7C015044
7C03F444
7C03F404
7D55F554
7FF5FFD0
7F81FF40
ENDCHAR
STARTCHAR B
ENCODING 66
SWIDTH 825 0
DWIDTH 15 0
BBX 15 16 0 -2
BITMAP
01555500
1D000000
3D155410
7D12D010
7D12D100
7D100040
7D155510
7D100044
7D12F444
7D12F444
7D105044
7D155504
7D000000
7E555540
7FFFFF00
3FFFF800
ENDCHAR
STARTCHAR C
ENCODING 67
SWIDTH 728 0
DWIDTH 13 0
BBX 13 16 0 -2
BITMAP
00555540
01000040
09055440
2C100040
3C12FE00
7C12F800
7C115000
7C110000
7C110000
7C110000
7C115500
7D055440
7F000040
3FE55540
1FFFFE00
06FFF800
ENDCHAR
STARTCHAR D
ENCODING 68
SWIDTH 846 0
DWIDTH 15 0
BBX 15 16 0 -2
BITMAP
01555540
1D000010
3D155504
7D100004
7D11A044
7D12F444
7D12F444
7D11F444
7D11F444
7D11F444
7D11A004
7D155504
7D000010
7E555540
7FFFFE00
3FFFE400
ENDCHAR
STARTCHAR E
ENCODING 69
SWIDTH 754 0
DWIDTH 14 0
BBX 13 16 0 -2
BITMAP
01555540
1D000000
3D155400
7D100040
7D12FF40
7D115500
7D154100
7D100100
7D115500
7D12F800
7D11A540
7D155400
7D000000
7E555540
7FFFFF40
3FFFF800
ENDCHAR
STARTCHAR F
ENCODING 70
SWIDTH 718 0
DWIDTH 13 0
BBX 13 16 0 -2
BITMAP
01555540
1D000040
3D155440
7D100040
7D12FE00
7D12FC00
7D100100
7D154100
7D100100
7D105400
7D12F400
7D12D000
7D010000
7E550000
7FF80000
3FD00000
ENDCHAR
STARTCHAR G
ENCODING 71
SWIDTH 808 0
DWIDTH 15 0
BBX 14 16 0 -2
BITMAP
00555540
01000040
09055440
2C100040
3C12FF00
7C12F800
7C115550
7C116000
7C12E000
7C12E100
7C100100
7D055500
7F000000
3FE55550
1FFFFFC0
06FFFE00
ENDCHAR
STARTCHAR H
ENCODING 72
SWIDTH 859 0
DWIDTH 15 0
BBX 15 16 0 -2
BITMAP
01550554
1D017404
3D11F444
7D11F444
7D11A444
7D100044
7D100044
7D155544
7D100044
7D12F444
7D12F444
7D11F444
7D01F404
7E55F954
7FF8FFE0
3FD0FF40
ENDCHAR
STARTCHAR I
ENCODING 73
SWIDTH 705 0
DWIDTH 13 0
BBX 13 16 0 -2
BITMAP
05555500
1C000040
7C155040
7C010000
7E911900
7FD11400
1BD11000
03D11000
03D11000
03D11000
02910500
1C155000
7C000040
7D555500
7FFFFD00
7FFFE000
ENDCHAR
STARTCHAR J
ENCODING 74
SWIDTH 788 0
DWIDTH 14 0
BBX 14 16 0 -2
BITMAP
00005550
0001D010
0007D110
0007D110
0007D110
0007D110
0157D110
1807D110
7807D110
B8428110
BC100410
BC055010
BE000040
7FE55500
2FFFF800
06FF9000
ENDCHAR
STARTCHAR K
ENCODING 75
SWIDTH 846 0
DWIDTH 15 0
BBX 15 16 0 -2
BITMAP
01551554
1D016000
3D11D110
7D12C000
7D128440
7D110440
7D101000
7D155504
7D100044
7D12F444
7D12F444
7D11F444
7D01F404
7E55F954
7FF8FFE0
3FD0FF40
ENDCHAR
STARTCHAR L
ENCODING 76
SWIDTH 795 0
DWIDTH 14 0
BBX 14 16 0 -2
BITMAP
01550000
1D010000
3D110000
7D110000
7D110000
7D110000
7D110550
7D116010
7D11F010
7D12E110
7D100110
7D155510
7D000010
7E555550
7FFFFF80
3FFFFE00
ENDCHAR
STARTCHAR M
ENCODING 77
SWIDTH 949 0
DWIDTH 17 0
BBX 17 16 0 -2
BITMAP
0155015500
1D00050040
3D141C1040
7D10344040
7D11110040
7D10400040
7D10100040
7D12020040
7D12430040
7D12FF0040
7D12EF0040
7D111F0040
7D011F0040
7E551F5500
7FF41FFD00
3FD01FF400
ENDCHAR
STARTCHAR N
ENCODING 78
SWIDTH 853 0
DWIDTH 15 0
BBX 15 16 0 -2
BITMAP
01540554
1D013404
3D10B444
7D142444
7D110444
7D104044
7D101044
7D110044
7D128044
7D12D144
7D12F044
7D12F444
7D02F404
7E55F954
7FF4FFD0
3FD0FF40
ENDCHAR
STARTCHAR O
ENCODING 79
SWIDTH 837 0
DWIDTH 15 0
BBX 15 16 0 -2
BITMAP
00155540
01055410
09100104
2D11A044
3C12F444
7C12F444
7C11F444
7C11F444
7C11F444
7C11F044
7D100104
7D055404
7F000010
3FE55680
1FFFFD00
06FFE400
ENDCHAR
STARTCHAR P
ENCODING 80
SWIDTH 782 0
DWIDTH 14 0
BBX 14 16 0 -2
BITMAP
01555500
1D000010
3D155410
7D100110
7D12E110
7D12E110
7D12E110
7D100110
7D155410
7D100140
7D12FD00
7D12F400
7D010000
7E550000
7FF80000
3FD00000
ENDCHAR
STARTCHAR Q
ENCODING 81
SWIDTH 837 0
DWIDTH 15 0
BBX 15 18 0 -4
BITMAP
00155540
01000010
05055400
2D100104
3C12F044
7C12F444
7C12F444
7C11F444
7C11F444
7C11F444
7C11E040
7D100104
7E055410
3F904040
2FF80600
0BF95400
00FFE000
00BF8000
ENDCHAR
STARTCHAR R
ENCODING 82
SWIDTH 843 0
DWIDTH 15 0
BBX 15 16 0 -2
BITMAP
01555540
1D000000
3D155410
7D114010
7D12D110
7D12D110
7D100110
7D101404
7D100044
7D105044
7D12F844
7D12F844
7D01F804
7E55F954
7FF8FFE0
3FD0BF80
ENDCHAR
STARTCHAR S
ENCODING 83
SWIDTH 750 0
DWIDTH 14 0
BBX 14 16 0 -2
BITMAP
00555540
01000040
0D055040
2C100040
7C02FE00
BC005900
BC000040
BE000000
7F900010
3FFF8010
09554410
1C155000
7C000040
BD555500
BFFFF800
7FFF9000
ENDCHAR
STARTCHAR T
ENCODING 84
SWIDTH 756 0
DWIDTH 14 0
BBX 14 16 0 -2
BITMAP
05555550
28000010
B8155410
F8000010
FFF00F80
FFF00E00
16F00400
02F00400
02F00400
02F00400
02F00400
02F00400
02F00400
02F55000
02FFD000
01FF0000
ENDCHAR
STARTCHAR U
ENCODING 85
SWIDTH 846 0
DWIDTH 15 0
BBX 15 16 0 -2
BITMAP
05550554
1D017404
7D11F444
7D11F444
7D11F444
7D11F444
7D11F444
7D11F444
7D11F444
7D11A044
7D100104
7D015404
3F400010
3FE55640
1FFFFD00
02BFE400
ENDCHAR
STARTCHAR V
ENCODING 86
SWIDTH 830 0
DWIDTH 15 0
BBX 15 16 0 -2
BITMAP
05541554
1C017004
7C11F044
7C12F044
7C12F044
7C12F044
7C12F004
7D11E100
7E00D110
7F044010
3F440400
2F815040
0FC00040
0BE55500
07FFF800
03FFE000
ENDCHAR
STARTCHAR W
ENCODING 87
SWIDTH 931 0
DWIDTH 17 0
BBX 16 16 0 -2
BITMAP
05540155
1C010B00
7C111F00
7C112F00
7C115B00
7C120300
7C120200
7C101000
7C104410
7D111110
7D113011
7E047441
3F00B800
2F95FD54
1FFDFFE0
0BF4BF80
ENDCHAR
STARTCHAR X
ENCODING 88
SWIDTH 837 0
DWIDTH 15 0
BBX 15 16 0 -2
BITMAP
05541554
1C017404
7C11F044
7D11E004
7E004110
7F800400
2FC15040
0F800400
07040010
0910D104
2D12F044
3C12F444
7C02F404
7D55F550
7FF5FFD0
7FD0FF40
ENDCHAR
STARTCHAR Y
ENCODING 89
SWIDTH 805 0
DWIDTH 14 0
BBX 14 16 0 -2
BITMAP
05541550
2C00B000
7C42F000
BC42F000
BC02E000
BC11D100
BD000010
BF040000
7F804000
2FE04100
0BF44400
03F44400
01F40400
01F95400
01FFE000
00FF4000
ENDCHAR
STARTCHAR Z
ENCODING 90
SWIDTH 760 0
DWIDTH 14 0
BBX 14 16 0 -2
BITMAP
05555540
1D000040
3D155440
7D000440
7FFD0040
7FF80000
15604100
00810400
02040000
09000000
1C005540
7C155410
BC000010
BD555550
BFFFFF40
7FFFFD00
ENDCHAR
STARTCHAR bracketleft
ENCODING 91
SWIDTH 529 0
DWIDTH 10 0
BBX 9 19 0 -3
BITMAP
015540
1C0000
7C1400
BC0000
BC0340
BC0100
BC0100
BC0100
BC0100
BC0100
BC0100
BC0100
BC0100
BC0140
BC0000
BC1400
BD5540
BFFF40
7FF800
ENDCHAR
STARTCHAR backslash
ENCODING 92
SWIDTH 487 0
DWIDTH 9 0
BBX 9 20 0 -4
BITMAP
055000
180400
B84400
FC4400
BC0000
BC1100
BD1100
7D1100
7E1100
3E1100
3F1100
2F0000
2F0440
2F4440
1F4440
1F8040
0F8040
0FFF40
0BF800
015000
ENDCHAR
STARTCHAR bracketright
ENCODING 93
SWIDTH 529 0
DWIDTH 10 0
BBX 9 19 0 -3
BITMAP
015540
180000
7C1400
BC0400
BF8400
BF8400
1B8400
0B8400
0B8400
0B8400
0B8400
0B8400
0B8400
094400
180400
7C1400
BD5540
BFFF40
7FF800
ENDCHAR
STARTCHAR asciicircum
ENCODING 94
SWIDTH 814 0
DWIDTH 15 0
BBX 14 13 0 1
BITMAP
00155400
00514100
01C40100
07840400
0B418440
0F11C440
1E12C040
1E13D100
2D03E110
3C07F010
7D57F550
BFE2FF80
BF41FE00
ENDCHAR
STARTCHAR underscore
ENCODING 95
SWIDTH 834 0
DWIDTH 15 0
BBX 15 7 0 -4
BITMAP
01555550
09000004
2D155504
3D000004
7E555550
7FFFFFC0
3FFFFF00
ENDCHAR
STARTCHAR grave
ENCODING 96
SWIDTH 600 0
DWIDTH 11 0
BBX 11 7 0 11
BITMAP
015000
180150
781504
BD4004
BFFEA0
7FFFD0
005600
ENDCHAR
STARTCHAR a
ENCODING 97
SWIDTH 830 0
DWIDTH 15 0
BBX 15 16 0 -2
BITMAP
00155500
00800040
02815040
07400000
0B00D010
0E01E010
1D02F000
2C000004
3C155544
7C000044
7C015044
7C03F444
7C03F404
7D55F554
7FF5FFD0
7F81FF40
ENDCHAR
STARTCHAR b
ENCODING 98
SWIDTH 825 0
DWIDTH 15 0
BBX 15 16 0 -2
BITMAP
01555500
1D000000
3D155410
7D12D010
7D12D100
7D100040
7D155510
7D100044
7D12F444
7D12F444
7D105044
7D155504
7D000000
7E555540
7FFFFF00
3FFFF800
ENDCHAR
STARTCHAR c
ENCODING 99
SWIDTH 728 0
DWIDTH 13 0
BBX 13 16 0 -2
BITMAP
00555540
01000040
09055440
2C100040
3C12FE00
7C12F800
7C115000
7C110000
7C110000
7C110000
7C115500
7D055440
7F000040
3FE55540
1FFFFE00
06FFF800
ENDCHAR
STARTCHAR d
ENCODING 100
SWIDTH 846 0
DWIDTH 15 0
BBX 15 16 0 -2
BITMAP
01555540
1D000010
3D155504
7D100004
7D11A044
7D12F444
7D12F444
7D11F444
7D11F444
7D11F444
7D11A004
7D155504
7D000010
7E555540
7FFFFE00
3FFFE400
ENDCHAR
STARTCHAR e
ENCODING 101
SWIDTH 754 0
DWIDTH 14 0
BBX 13 16 0 -2
BITMAP
01555540
1D000000
3D155400
7D100040
7D12FF40
7D115500
7D154100
7D100100
7D115500
7D12F800
7D11A540
7D155400
7D000000
7E555540
7FFFFF40
3FFFF800
ENDCHAR
STARTCHAR f
ENCODING 102
SWIDTH 718 0
DWIDTH 13 0
BBX 13 16 0 -2
BITMAP
01555540
1D000040
3D155440
7D100040
7D12FE00
7D12FC00
7D100100
7D154100
7D100100
7D105400
7D12F400
7D12D000
7D010000
7E550000
7FF80000
3FD00000
ENDCHAR
STARTCHAR g
ENCODING 103
SWIDTH 808 0
DWIDTH 15 0
BBX 14 16 0 -2
BITMAP
00555540
01000040
09055440
2C100040
3C12FF00
7C12F800
7C115550
7C116000
7C12E000
7C12E100
7C100100
7D055500
7F000000
3FE55550
1FFFFFC0
06FFFE00
ENDCHAR
STARTCHAR h
ENCODING 104
SWIDTH 859 0
DWIDTH 15 0
BBX 15 16 0 -2
BITMAP
01550554
1D017404
3D11F444
7D11F444
7D11A444
7D100044
7D100044
7D155544
7D100044
7D12F444
7D12F444
7D11F444
7D01F404
7E55F954
7FF8FFE0
3FD0FF40
ENDCHAR
STARTCHAR i
ENCODING 105
SWIDTH 705 0
DWIDTH 13 0
BBX 13 16 0 -2
BITMAP
05555500
1C000040
7C155040
7C010000
7E911900
7FD11400
1BD11000
03D11000
03D11000
03D11000
02910500
1C155000
7C000040
7D555500
7FFFFD00
7FFFE000
ENDCHAR
STARTCHAR j
ENCODING 106
SWIDTH 788 0
DWIDTH 14 0
BBX 14 16 0 -2
BITMAP
00005550
0001D010
0007D110
0007D110
0007D110
0007D110
0157D110
1807D110
7807D110
B8428110
BC100410
BC055010
BE000040
7FE55500
2FFFF800
06FF9000
ENDCHAR
STARTCHAR k
ENCODING 107
SWIDTH 846 0
DWIDTH 15 0
BBX 15 16 0 -2
BITMAP
01551554
1D016000
3D11D110
7D12C000
7D128440
7D110440
7D101000
7D155504
7D100044
7D12F444
7D12F444
7D11F444
7D01F404
7E55F954
7FF8FFE0
3FD0FF40
ENDCHAR
STARTCHAR l
ENCODING 108
SWIDTH 795 0
DWIDTH 14 0
BBX 14 16 0 -2
BITMAP
01550000
1D010000
3D110000
7D110000
7D110000
7D110000
7D110550
7D116010
7D11F010
7D12E110
7D100110
7D155510
7D000010
7E555550
7FFFFF80
3FFFFE00
ENDCHAR
STARTCHAR m
ENCODING 109
SWIDTH 949 0
DWIDTH 17 0
BBX 17 16 0 -2
BITMAP
0155015500
1D00050040
3D141C1040
7D10344040
7D11110040
7D10400040
7D10100040
7D12020040
7D12430040
7D12FF0040
7D12EF0040
7D111F0040
7D011F0040
7E551F5500
7FF41FFD00
3FD01FF400
ENDCHAR
STARTCHAR n
ENCODING 110
SWIDTH 853 0
DWIDTH 15 0
BBX 15 16 0 -2
BITMAP
01540554
1D013404
3D10B444
7D142444
7D110444
7D104044
7D101044
7D110044
7D128044
7D12D144
7D12F044
7D12F444
7D02F404
7E55F954
7FF4FFD0
3FD0FF40
ENDCHAR
STARTCHAR o
ENCODING 111
SWIDTH 837 0
DWIDTH 15 0
BBX 15 16 0 -2
BITMAP
00155540
01055410
09100104
2D11A044
3C12F444
7C12F444
7C11F444
7C11F444
7C11F444
7C11F044
7D100104
7D055404
7F000010
3FE55680
1FFFFD00
06FFE400
ENDCHAR
STARTCHAR p
ENCODING 112
SWIDTH 782 0
DWIDTH 14 0
BBX 14 16 0 -2
BITMAP
01555500
1D000010
3D155410
7D100110
7D12E110
7D12E110
7D12E110
7D100110
7D155410
7D100140
7D12FD00
7D12F400
7D010000
7E550000
7FF80000
3FD00000
ENDCHAR
STARTCHAR q
ENCODING 113
SWIDTH 837 0
DWIDTH 15 0
BBX 15 18 0 -4
BITMAP
00155540
01000010
05055400
2D100104
3C12F044
7C12F444
7C12F444
7C11F444
7C11F444
7C11F444
7C11E040
7D100104
7E055410
3F904040
2FF80600
0BF95400
00FFE000
00BF8000
ENDCHAR
STARTCHAR r
ENCODING 114
SWIDTH 843 0
DWIDTH 15 0
BBX 15 16 0 -2
BITMAP
01555540
1D000000
3D155410
7D114010
7D12D110
7D12D110
7D100110
7D101404
7D100044
7D105044
7D12F844
7D12F844
7D01F804
7E55F954
7FF8FFE0
3FD0BF80
ENDCHAR
STARTCHAR s
ENCODING 115
SWIDTH 750 0
DWIDTH 14 0
BBX 14 16 0 -2
BITMAP
00555540
01000040
0D055040
2C100040
7C02FE00
BC005900
BC000040
BE000000
7F900010
3FFF8010
09554410
1C155000
7C000040
BD555500
BFFFF800
7FFF9000
ENDCHAR
STARTCHAR t
ENCODING 116
SWIDTH 756 0
DWIDTH 14 0
BBX 14 16 0 -2
BITMAP
05555550
28000010
B8155410
F8000010
FFF00F80
FFF00E00
16F00400
02F00400
02F00400
02F00400
02F00400
02F00400
02F00400
02F55000
02FFD000
01FF0000
ENDCHAR
STARTCHAR u
ENCODING 117
SWIDTH 846 0
DWIDTH 15 0
BBX 15 16 0 -2
BITMAP
05550554
1D017404
7D11F444
7D11F444
7D11F444
7D11F444
7D11F444
7D11F444
7D11F444
7D11A044
7D100104
7D015404
3F400010
3FE55640
1FFFFD00
02BFE400
ENDCHAR
STARTCHAR v
ENCODING 118
SWIDTH 830 0
DWIDTH 15 0
BBX 15 16 0 -2
BITMAP
05541554
1C017004
7C11F044
7C12F044
7C12F044
7C12F044
7C12F004
7D11E100
7E00D110
7F044010
3F440400
2F815040
0FC00040
0BE55500
07FFF800
03FFE000
ENDCHAR
STARTCHAR w
ENCODING 119
SWIDTH 931 0
DWIDTH 17 0
BBX 16 16 0 -2
BITMAP
05540155
1C010B00
7C111F00
7C112F00
7C115B00
7C120300
7C120200
7C101000
7C104410
7D111110
7D113011
7E047441
3F00B800
2F95FD54
1FFDFFE0
0BF4BF80
ENDCHAR
STARTCHAR x
ENCODING 120
SWIDTH 837 0
DWIDTH 15 0
BBX 15 16 0 -2
BITMAP
05541554
1C017404
7C11F044
7D11E004
7E004110
7F800400
2FC15040
0F800400
07040010
0910D104
2D12F044
3C12F444
7C02F404
7D55F550
7FF5FFD0
7FD0FF40
ENDCHAR
STARTCHAR y
ENCODING 121
SWIDTH 805 0
DWIDTH 14 0
BBX 14 16 0 -2
BITMAP
05541550
2C00B000
7C42F000
BC42F000
BC02E000
BC11D100
BD000010
BF040000
7F804000
2FE04100
0BF44400
03F44400
01F40400
01F95400
01FFE000
00FF4000
ENDCHAR
STARTCHAR z
ENCODING 122
SWIDTH 760 0
DWIDTH 14 0
BBX 14 16 0 -2
BITMAP
05555540
1D000040
3D155440
7D000440
7FFD0040
7FF80000
15604100
00810400
02040000
09000000
1C005540
7C155410
BC000010
BD555550
BFFFFF40
7FFFFD00
ENDCHAR
STARTCHAR braceleft
ENCODING 123
SWIDTH 555 0
DWIDTH 10 0
BBX 10 19 0 -3
BITMAP
000540
004010
020510
0A1010
2E1180
2E1100
3E1100
380100
344500
B44100
FD1100
FE1100
BE1100
3E1040
3E0010
3F4410
2FE550
1FFF80
06FD00
ENDCHAR
STARTCHAR bar
ENCODING 124
SWIDTH 447 0
DWIDTH 8 0
BBX 8 20 0 -4
BITMAP
0154
0901
2D11
7D11
7D11
7D11
7D11
7D11
7D11
7D11
7D11
7D11
7D11
7D11
7D11
7D01
7D01
7FF8
7FD0
1500
ENDCHAR
STARTCHAR braceright
ENCODING 125
SWIDTH 555 0
DWIDTH 10 0
BBX 10 19 0 -3
BITMAP
015400
180100
7C1040
BC0440
BF8440
BF8440
1F8400
0F8010
0FE100
0B8100
078410
0B8440
0F8440
090440
1C0440
7C1040
BD5500
BFF400
7F8000
ENDCHAR
STARTCHAR asciitilde
ENCODING 126
SWIDTH 834 0
DWIDTH 15 0
BBX 15 7 0 3
BITMAP
00554050
01000004
0D154004
3D000000
7E6A9550
7FFFFF40
3AABF900
ENDCHAR
STARTCHAR uni00A0
ENCODING 160
SWIDTH 325 0
DWIDTH 6 0
BBX 1 1 0 0
BITMAP
00
ENDCHAR
STARTCHAR exclamdown
ENCODING 161
SWIDTH 523 0
DWIDTH 9 0
BBX 8 16 1 -2
BITMAP
0554
2801
B801
F801
FFF8
FD04
3801
B841
B841
B841
B841
B841
F801
F955
FFF4
BFD0
ENDCHAR
STARTCHAR cent
ENCODING 162
SWIDTH 728 0
DWIDTH 13 0
BBX 13 18 0 -3
BITMAP
00015400
00140140
00004040
00055040
09100040
2C105540
3C12FE00
7C12F400
7C110000
7C110000
7C115500
7D100040
7E055440
3F804040
2FF80600
0BF95400
00FFE000
00BF8000
ENDCHAR
STARTCHAR sterling
ENCODING 163
SWIDTH 795 0
DWIDTH 14 0
BBX 14 16 0 -2
BITMAP
00155500
01000100
06055100
1D100100
3D11FD00
3D11B400
74101000
B4101550
F8106010
FD12F010
BD115110
7D155510
7D000010
7E555550
7FFFFF80
3FFFFE00
ENDCHAR
STARTCHAR currency
ENCODING 164
SWIDTH 921 0
DWIDTH 17 0
BBX 16 16 0 -3
BITMAP
00500014
05005441
1C105410
7F040040
7F801004
1F84FC44
0B84FC44
0B84FC44
0B84B844
0B440044
0A015501
0C010100
3E0BFF81
7FAFFFF4
2F400BD0
04000100
ENDCHAR
STARTCHAR yen
ENCODING 165
SWIDTH 803 0
DWIDTH 14 0
BBX 14 16 0 -2
BITMAP
05541550
2C00B000
BC42F000
BC02F100
BC12E100
BD008010
BF040400
3F815040
1F804140
0E055410
2E004010
2FA44680
2FF40A00
1AF95400
00FFE000
00FF4000
ENDCHAR
STARTCHAR brokenbar
ENCODING 166
SWIDTH 447 0
DWIDTH 8 0
BBX 8 20 0 -4
BITMAP
0154
0901
3D11
7D11
7D11
7D11
7D01
7D01
7FF8
7EA4
1D01
3D11
7D11
7D11
7D11
7D01
7D01
7FF8
7FD0
1500
ENDCHAR
STARTCHAR section
ENCODING 167
SWIDTH 750 0
DWIDTH 14 0
BBX 14 16 0 -2
BITMAP
00555540
01055040
09100040
2C02FE00
7C000500
7C155040
7C03C000
BD004010
7E015510
7F900110
3FFFC110
1D000040
1D155040
7D555500
7FFFF400
7FFF9000
ENDCHAR
STARTCHAR dieresis
ENCODING 168
SWIDTH 600 0
DWIDTH 11 0
BBX 11 7 0 11
BITMAP
055150
240C04
B40C04
F40C04
FFFFF4
FFBFC0
541500
ENDCHAR
STARTCHAR copyright
ENCODING 169
SWIDTH 967 0
DWIDTH 17 0
BBX 17 20 0 -4
BITMAP
0001554000
0050000400
011BFFE000
096FAAB840
2D58003940
3D78003940
7D752FF940
7D752DB940
7D7510B940
7D7510B940
7D75157940
7D78003940
7D3D553940
7D6FFFF540
7E4AFE9140
7F50000500
3FE9556800
1FFFFFE000
02FFFE4000
0005400000
ENDCHAR
STARTCHAR ordfeminine
ENCODING 170
SWIDTH 620 0
DWIDTH 11 0
BBX 11 16 0 -2
BITMAP
005540
071510
0E0000
2D0844
3C0D04
780004
B85554
B80004
B81E04
B81E04
BEAFA4
BE5AA4
380004
BD5554
BFFFF4
BFFF80
ENDCHAR
STARTCHAR guillemotleft
ENCODING 171
SWIDTH 912 0
DWIDTH 16 0
BBX 16 12 0 -1
BITMAP
00054015
00401501
05042011
1C006101
7C47E128
7C41A104
BC142041
BE003801
7FE53F91
2FFFFFFD
01BD1BE0
00040000
ENDCHAR
STARTCHAR logicalnot
ENCODING 172
SWIDTH 834 0
DWIDTH 15 0
BBX 15 11 0 -1
BITMAP
01555550
09000004
2D155504
3D000044
7FFFF844
3FFFF844
1555F844
0000F804
0000F950
0000FFD0
0000FF00
ENDCHAR
STARTCHAR uni00AD
ENCODING 173
SWIDTH 520 0
DWIDTH 9 0
BBX 9 7 0 3
BITMAP
015540
180000
781400
B80000
BD5540
BFFF00
BFF800
ENDCHAR
STARTCHAR registered
ENCODING 174
SWIDTH 660 0
DWIDTH 12 0
BBX 12 12 0 2
BITMAP
005554
067FD4
1D9575
3D9575
7D9565
7D9655
7D8B25
7DBFE5
7D0504
7F9554
3FFFD0
1BFE00
ENDCHAR
STARTCHAR macron
ENCODING 175
SWIDTH 600 0
DWIDTH 11 0
BBX 11 7 0 11
BITMAP
015550
180004
781504
BC0004
BFFFE0
BFFF80
155500
ENDCHAR
STARTCHAR degree
ENCODING 176
SWIDTH 583 0
DWIDTH 11 0
BBX 10 11 0 3
BITMAP
015540
081510
2C4040
7C5D40
BC5D40
BC5840
BC1510
BE5150
7FFF40
2FF900
004000
ENDCHAR
STARTCHAR plusminus
ENCODING 177
SWIDTH 834 0
DWIDTH 15 0
BBX 15 16 0 -2
BITMAP
00055400
001C0400
007C4400
00BC4400
01684550
09155504
2D004004
3EA846A0
7FFC4BD0
3FFC0B40
01680550
09000004
2D155504
7E555550
7FFFFFD0
3FFFFF40
ENDCHAR
STARTCHAR twosuperior
ENCODING 178
SWIDTH 585 0
DWIDTH 11 0
BBX 10 13 0 1
BITMAP
055540
1D1510
3D5050
7FF840
7F4010
080010
2C4640
784950
B85500
BC0010
BFFFD0
BFFF40
155400
ENDCHAR
STARTCHAR threesuperior
ENCODING 179
SWIDTH 584 0
DWIDTH 11 0
BBX 11 13 0 1
BITMAP
055540
1C1400
7C0110
BFF410
BF0140
1F0510
1FFC04
1D5044
2C1500
7C0010
BFFF80
BFFD00
155000
ENDCHAR
STARTCHAR acute
ENCODING 180
SWIDTH 600 0
DWIDTH 11 0
BBX 11 7 0 11
BITMAP
000150
055004
181504
780054
BEAFD0
BFFE40
654000
ENDCHAR
STARTCHAR mu
ENCODING 181
SWIDTH 813 0
DWIDTH 15 0
BBX 14 16 0 -4
BITMAP
01540550
09012000
2D01B000
7D12F100
7D12F100
7D12F100
7D12F100
7D12E100
7D100100
7D115400
7D100000
7D100000
7D02FD00
7FABA000
7FE00000
15400000
ENDCHAR
STARTCHAR paragraph
ENCODING 182
SWIDTH 782 0
DWIDTH 14 0
BBX 14 16 0 -2
BITMAP
00555540
01000010
1C155510
38400110
B8400110
B8400110
B8400110
BC400110
BD155510
BF410110
7FD12110
1FD16110
03D06010
03E57540
03FFFF40
03FAFD00
ENDCHAR
STARTCHAR periodcentered
ENCODING 183
SWIDTH 464 0
DWIDTH 8 0
BBX 8 8 0 2
BITMAP
0155
1801
7C01
BC11
BC01
BD55
BFF8
7FE0
ENDCHAR
STARTCHAR cedilla
ENCODING 184
SWIDTH 600 0
DWIDTH 11 0
BBX 8 7 1 -5
BITMAP
0141
0B11
0E11
1D01
3D54
7FE0
7F80
ENDCHAR
STARTCHAR onesuperior
ENCODING 185
SWIDTH 557 0
DWIDTH 10 0
BBX 10 13 0 1
BITMAP
055500
1D1000
7D0000
7F8000
7FC000
1BC000
0BC000
0A4040
1C0410
7C0010
BFFFD0
BFFE00
155400
ENDCHAR
STARTCHAR ordmasculine
ENCODING 186
SWIDTH 625 0
DWIDTH 11 0
BBX 11 16 0 -2
BITMAP
005550
041504
1C4004
780E04
B81E04
B81E04
B81E04
B84904
BC0004
BD0004
BF9590
3EAA54
280004
BD5554
BFFFF4
BFFF80
ENDCHAR
STARTCHAR guillemotright
ENCODING 187
SWIDTH 912 0
DWIDTH 16 0
BBX 16 12 0 -1
BITMAP
05542540
1C01E014
7C106041
7D012001
7FE13E01
3E413901
0D142051
2C00A004
7D1BE1A4
7FF7FFC0
7E43F900
10014000
ENDCHAR
STARTCHAR onequarter
ENCODING 188
SWIDTH 1303 0
DWIDTH 23 0
BBX 23 16 0 -2
BITMAP
055501550000
1D1006000000
7D001E100000
7F802D115054
6FC03D050604
0BC03C494B14
0BC07C494B14
0A40684D4B14
1C04184D4514
7C00141D0014
BFFFF51E1554
BFFFF12F5514
1555E02FFF04
0001E55ABF54
0002FF402FF0
0002FC001F80
ENDCHAR
STARTCHAR onehalf
ENCODING 189
SWIDTH 1260 0
DWIDTH 23 0
BBX 23 16 0 -2
BITMAP
055501550000
1D1006010000
7D001E100000
7F802D115540
7FC03D050010
1BC03C491500
0BC07C4A5444
0A40684FF840
1C04184B4000
7C0014191010
BFFFF51C4640
BFFFF12C0A50
1555E02C4004
0001E57D5554
0002FFBFFFD0
0002FC7FFF40
ENDCHAR
STARTCHAR threequarters
ENCODING 190
SWIDTH 1313 0
DWIDTH 24 0
BBX 24 16 0 -2
BITMAP
055541550000
2C1417010000
7C011E110000
BF502E115054
7F012D050601
0F150D060B11
1FFC0C4A0B11
1D504C4A0B11
2C15084E0611
7C00284E0011
BFFFF41E0551
BFFEF41F9511
1550F02FFF01
0001F55ABF54
0001FF401FF4
0001FD001FC0
ENDCHAR
STARTCHAR questiondown
ENCODING 191
SWIDTH 756 0
DWIDTH 14 0
BBX 14 16 0 -2
BITMAP
00055500
001C0100
007C0100
007C0100
007EA900
007E9500
01400100
09004100
2C000100
7C01A800
BC12A540
BC155410
BD000010
BF955540
3FFFFF40
1BFFFD00
ENDCHAR
STARTCHAR Agrave
ENCODING 192
SWIDTH 830 0
DWIDTH 15 0
BBX 15 20 0 -2
BITMAP
00AAA500
02C15540
0BC00040
0BD40000
0BEA5500
01D00040
02815040
07400000
0B00D010
0E01E010
1D02F000
2C000004
3C155544
7C000044
7C015044
7C03F444
7C03F404
7D55F554
7FF5FFD0
7F81FF40
ENDCHAR
STARTCHAR Aacute
ENCODING 193
SWIDTH 830 0
DWIDTH 15 0
BBX 15 21 0 -2
BITMAP
00000500
002AFE40
01E55040
07C00000
0BC00540
0BD01500
0BC00040
02815040
07400000
0B00D010
0E01E010
1D02F000
2C000004
3C155544
7C000044
7C015044
7C03F444
7C03F404
7D55F554
7FF5FFD0
7F81FF40
ENDCHAR
STARTCHAR Acircumflex
ENCODING 194
SWIDTH 830 0
DWIDTH 15 0
BBX 15 21 0 -2
BITMAP
00015000
00140100
00815040
02C00040
0BD6E940
0BFAAA00
0BD00040
02815040
07400000
0B00D010
0E01E010
1D02F000
2C000004
3C155544
7C000044
7C015044
7C03F444
7C03F404
7D55F554
7FF5FFD0
7F81FF40
ENDCHAR
STARTCHAR Atilde
ENCODING 195
SWIDTH 830 0
DWIDTH 15 0
BBX 15 21 0 -2
BITMAP
00155140
00400040
01C14040
07C00000
0BD54100
0BFAA900
0BD00040
02C15040
07400000
0B00D010
0E01E010
1D02F000
2C000004
3C155544
7C000044
7C015044
7C03F444
7C03F404
7D55F554
7FF5FFD0
7F81FF40
ENDCHAR
STARTCHAR Adieresis
ENCODING 196
SWIDTH 830 0
DWIDTH 15 0
BBX 15 21 0 -2
BITMAP
00551540
01408040
0740C040
0F40C040
0F80D040
0FFAAB40
0FD00000
02C15040
07400000
0B00D010
0E01E010
1D02F000
2C000004
3C155544
7C000044
7C015044
7C03F444
7C03F404
7D55F554
7FF5FFD0
7F81FF40
ENDCHAR
STARTCHAR Aring
ENCODING 197
SWIDTH 830 0
DWIDTH 15 0
BBX 15 21 0 -2
BITMAP
00055400
00115000
01840440
0785E140
0B85E140
0BC44440
0BC15440
0B815040
07400000
0B00D010
0E01E010
1D02F000
2C000004
3C155544
7C000044
7C015044
7C03F444
7C03F404
7D55F554
7FF5FFD0
7F81FF40
ENDCHAR
STARTCHAR AE
ENCODING 198
SWIDTH 1105 0
DWIDTH 20 0
BBX 20 16 0 -2
BITMAP
0015555554
0080000001
0381555541
0B44500555
0F00F00FF4
1E11F00550
2D12F05510
3C00000010
7C15550AA0
7C00000FD0
7C01500A54
7C03F05541
7C03F00001
7D56F55555
7FF6FFFFF4
7F81FFFFD0
ENDCHAR
STARTCHAR Ccedilla
ENCODING 199
SWIDTH 728 0
DWIDTH 13 0
BBX 13 19 0 -5
BITMAP
00555540
01055440
09100040
2C105540
3C12FE00
7C12F800
7C110000
7C110000
7C110000
7C110000
7D115500
7E055440
7F400040
3FF44640
1FF40A00
06F41800
00FFD000
01FF4000
00540000
ENDCHAR
STARTCHAR Egrave
ENCODING 200
SWIDTH 754 0
DWIDTH 14 0
BBX 13 21 0 -2
BITMAP
00500000
02AFE900
0B455600
1F400100
1F900000
1E550440
0D000000
3D155400
7D100040
7D12FF40
7D115500
7D154100
7D100100
7D115500
7D12F800
7D11A540
7D155400
7D000000
7E555540
7FFFFF40
3FFFF800
ENDCHAR
STARTCHAR Eacute
ENCODING 201
SWIDTH 754 0
DWIDTH 14 0
BBX 13 21 0 -2
BITMAP
00000500
006AFE40
01D55040
07800000
0B800100
0A101540
1D000000
3D155400
7D100040
7D12FF40
7D115500
7D154100
7D100100
7D115500
7D12F800
7D11A540
7D155400
7D000000
7E555540
7FFFFF40
3FFFF800
ENDCHAR
STARTCHAR Ecircumflex
ENCODING 202
SWIDTH 754 0
DWIDTH 14 0
BBX 13 21 0 -2
BITMAP
00015000
00100500
01415000
0B400000
0F9BE500
0E555540
1D000000
3D155400
7D100040
7D12FF40
7D115500
7D154100
7D100100
7D115500
7D12F800
7D11A540
7D155400
7D000000
7E555540
7FFFFF40
3FFFF800
ENDCHAR
STARTCHAR Edieresis
ENCODING 203
SWIDTH 754 0
DWIDTH 14 0
BBX 13 21 0 -2
BITMAP
00551500
02018040
0B018040
1F018040
1F41C000
1FAAAA80
1D000000
2D155400
7D100040
7D12FF40
7D115500
7D154100
7D100100
7D115500
7D12F800
7D11A540
7D155400
7D000000
7E555540
7FFFFF40
3FFFF800
ENDCHAR
STARTCHAR Igrave
ENCODING 204
SWIDTH 705 0
DWIDTH 13 0
BBX 13 21 0 -2
BITMAP
00500000
07BFA800
1E055500
2E000100
2F500000
2D540500
1C000040
7C155040
7C010000
7E911900
7FD11400
1BD11000
03D11000
03D11000
03D11000
02910500
1C155000
7C000040
7D555500
7FFFFD00
7FFFE000
ENDCHAR
STARTCHAR Iacute
ENCODING 205
SWIDTH 705 0
DWIDTH 13 0
BBX 13 21 0 -2
BITMAP
00001400
00ABF900
07554100
1E000000
2E000400
2D405500
2C000040
3C155040
7C010000
7E911900
7FD11400
1BD11000
03D11000
03D11000
03D11000
02910500
1C155000
7C000040
7D555500
7FFFFD00
7FFFE000
ENDCHAR
STARTCHAR Icircumflex
ENCODING 206
SWIDTH 705 0
DWIDTH 13 0
BBX 13 21 0 -2
BITMAP
00054000
00401400
02054100
1E000100
2E6FE400
2D555500
2C000040
3C155040
7C010000
7E911900
7FD11400
1BD11000
03D11000
03D11000
03D11000
02910500
1C155000
7C000040
7D555500
7FFFFD00
7FFFE000
ENDCHAR
STARTCHAR Idieresis
ENCODING 207
SWIDTH 705 0
DWIDTH 13 0
BBX 13 21 0 -2
BITMAP
01545400
09030100
2D030100
3D030100
7D030000
7FAAAA00
3C000040
3C155040
7C010000
7E911900
7FD11400
1BD11000
03D11000
03D11000
03D11000
02910500
1C155000
7C000040
7D555500
7FFFFD00
7FFFE000
ENDCHAR
STARTCHAR Eth
ENCODING 208
SWIDTH 856 0
DWIDTH 15 0
BBX 15 16 0 -2
BITMAP
01555540
09000010
2D155504
3D100044
3D11F444
3D11B844
34103844
B4543844
F8107844
FD11F844
BD105044
3D155504
3D000000
3E555540
3FFFFE00
3FFFF800
ENDCHAR
STARTCHAR Ntilde
ENCODING 209
SWIDTH 853 0
DWIDTH 15 0
BBX 15 21 0 -2
BITMAP
00055140
00500040
01C14040
07C00400
07D54000
0657F954
0D01F404
3D10B444
7D142444
7D110444
7D104044
7D101044
7D110044
7D128044
7D12D144
7D12F044
7D12F444
7D02F404
7E55F954
7FF4FFD0
3FD0FF40
ENDCHAR
STARTCHAR Ograve
ENCODING 210
SWIDTH 837 0
DWIDTH 15 0
BBX 15 21 0 -2
BITMAP
00695000
01EFFF40
07C05580
0BC00040
0BD15540
06400510
01055400
1D100104
3C11A044
7C12F444
7C12F444
7C11F444
7C11F444
7C11F444
7C11F044
7D100104
7D055400
7F400010
3FE55640
1FFFFD00
02FFE400
ENDCHAR
STARTCHAR Oacute
ENCODING 211
SWIDTH 837 0
DWIDTH 15 0
BBX 15 21 0 -2
BITMAP
00015A40
007FFE80
02E55040
07C00040
0BC55500
0B550010
06055400
1D100104
3C11A044
7C12F444
7C12F444
7C11F444
7C11F444
7C11F444
7C11F044
7D100104
7D055400
7F400010
3FE55640
1FFFFD00
02FFE400
ENDCHAR
STARTCHAR Ocircumflex
ENCODING 212
SWIDTH 837 0
DWIDTH 15 0
BBX 15 21 0 -2
BITMAP
00005000
00015000
01800040
07D6F940
0BE55640
0B400010
05055400
1D100104
3C11A044
7C12F444
7C12F444
7C11F444
7C11F444
7C11F444
7C11F044
7D100104
7D055400
7F400010
3FE55640
1FFFFD00
02FFE400
ENDCHAR
STARTCHAR Otilde
ENCODING 213
SWIDTH 837 0
DWIDTH 15 0
BBX 15 21 0 -2
BITMAP
00155140
00800040
02C14040
07C00040
0BD54100
0BE55540
07055410
1D100100
3D11A044
7C12F444
7C12F444
7C11F444
7C11F444
7C11F444
7C11F044
7D100104
7D055404
7F000010
3FE55680
1FFFFD00
02FFE400
ENDCHAR
STARTCHAR Odieresis
ENCODING 214
SWIDTH 837 0
DWIDTH 15 0
BBX 15 21 0 -2
BITMAP
00551540
01408040
0B408040
0F408040
0F80D040
0FFA6A40
07455410
1D100100
3D11A044
7C12F444
7C12F444
7C11F444
7C11F444
7C11F444
7C11F044
7C100104
7D055404
7F000010
3FE55680
1FFFFE00
02FFE400
ENDCHAR
STARTCHAR multiply
ENCODING 215
SWIDTH 834 0
DWIDTH 15 0
BBX 13 12 1 -1
BITMAP
04044040
18010040
7D101000
FF444100
7FC10400
1F444100
05101040
08024040
3D0BC000
BF5FF000
7F8BF400
1D01D000
ENDCHAR
STARTCHAR Oslash
ENCODING 216
SWIDTH 837 0
DWIDTH 15 0
BBX 15 19 0 -3
BITMAP
00000550
00001010
00155010
01055410
09100404
2C028044
3C035044
7C030444
7C024844
7C005844
7C003844
7C017444
7D100104
7D055404
7F440010
3F405640
2F57FD00
1FFFE400
1FD00000
ENDCHAR
STARTCHAR Ugrave
ENCODING 217
SWIDTH 846 0
DWIDTH 15 0
BBX 15 21 0 -2
BITMAP
00140000
00AFFA00
07C15540
0B800040
0BD40000
0956E514
1D01B404
7D11F444
7D11F444
7D11F444
7D11F444
7D11F444
7D11F444
7D11F444
7D11A044
7D100104
7D015404
3F400010
3FE55640
1FFFFD00
02BFE400
ENDCHAR
STARTCHAR Uacute
ENCODING 218
SWIDTH 846 0
DWIDTH 15 0
BBX 15 21 0 -2
BITMAP
00000140
001AFE80
00A55440
03D00000
07D00040
0542F954
1D017404
7D11F444
7D11F444
7D11F444
7D11F444
7D11F444
7D11F444
7D11F444
7D11A044
7D100104
7D015404
3F400010
3FE55640
1FFFFD00
02BFE400
ENDCHAR
STARTCHAR Ucircumflex
ENCODING 219
SWIDTH 846 0
DWIDTH 15 0
BBX 15 21 0 -2
BITMAP
00005000
00015000
00800000
03C1A440
07FFFF40
0956F954
1D01B404
7D11F444
7D11F444
7D11F444
7D11F444
7D11F444
7D11F444
7D11F444
7D11F444
7D100104
7D015404
3F400010
3FE55640
1FFFFD00
02BFE400
ENDCHAR
STARTCHAR Udieresis
ENCODING 220
SWIDTH 846 0
DWIDTH 15 0
BBX 15 21 0 -2
BITMAP
00551540
01809000
0B809000
0F809000
0F809000
0FABFEA4
2D02F404
7D01B404
7D11F444
7D11F444
7D11F444
7D11F444
7D11F444
7D11F444
7D11A044
7D100104
7D015404
3F400010
3FE55640
1FFFFD00
02BFE400
ENDCHAR
STARTCHAR Yacute
ENCODING 221
SWIDTH 805 0
DWIDTH 14 0
BBX 14 21 0 -2
BITMAP
00000500
002AFE40
01D55040
07800000
0B800100
0952F550
2C01B000
7C42F000
BC42F000
BC02E000
BC11D100
BD000010
BF040000
7F804000
2FE04100
0BF44400
03F44400
01F40400
01F95400
01FFE000
00FF4000
ENDCHAR
STARTCHAR Thorn
ENCODING 222
SWIDTH 792 0
DWIDTH 14 0
BBX 14 16 0 -2
BITMAP
01550000
1D010000
3D105500
7D155410
7D100110
7D100110
7D12E110
7D12E110
7D12E110
7D100110
7D155410
7D105540
7D02FD00
7E56E000
7FF40000
3FD00000
ENDCHAR
STARTCHAR germandbls
ENCODING 223
SWIDTH 859 0
DWIDTH 15 0
BBX 16 16 0 -2
BITMAP
01555540
1D000010
3D155410
7D100110
7D12C000
7D12C410
7D128504
7D128000
7D12E801
7D12FC01
7D128001
7D024500
7D024004
7E569550
7FFFFF80
3FDFF900
ENDCHAR
STARTCHAR agrave
ENCODING 224
SWIDTH 830 0
DWIDTH 15 0
BBX 15 20 0 -2
BITMAP
00AAA500
02C15540
0BC00040
0BD40000
0BEA5500
01D00040
02815040
07400000
0B00D010
0E01E010
1D02F000
2C000004
3C155544
7C000044
7C015044
7C03F444
7C03F404
7D55F554
7FF5FFD0
7F81FF40
ENDCHAR
STARTCHAR aacute
ENCODING 225
SWIDTH 830 0
DWIDTH 15 0
BBX 15 21 0 -2
BITMAP
00000500
002AFE40
01E55040
07C00000
0BC00540
0BD01500
0BC00040
02815040
07400000
0B00D010
0E01E010
1D02F000
2C000004
3C155544
7C000044
7C015044
7C03F444
7C03F404
7D55F554
7FF5FFD0
7F81FF40
ENDCHAR
STARTCHAR acircumflex
ENCODING 226
SWIDTH 830 0
DWIDTH 15 0
BBX 15 21 0 -2
BITMAP
00015000
00140100
00815040
02C00040
0BD6E940
0BFAAA00
0BD00040
02815040
07400000
0B00D010
0E01E010
1D02F000
2C000004
3C155544
7C000044
7C015044
7C03F444
7C03F404
7D55F554
7FF5FFD0
7F81FF40
ENDCHAR
STARTCHAR atilde
ENCODING 227
SWIDTH 830 0
DWIDTH 15 0
BBX 15 21 0 -2
BITMAP
00155140
00400040
01C14040
07C00000
0BD54100
0BFAA900
0BD00040
02C15040
07400000
0B00D010
0E01E010
1D02F000
2C000004
3C155544
7C000044
7C015044
7C03F444
7C03F404
7D55F554
7FF5FFD0
7F81FF40
ENDCHAR
STARTCHAR adieresis
ENCODING 228
SWIDTH 830 0
DWIDTH 15 0
BBX 15 21 0 -2
BITMAP
00551540
01408040
0740C040
0F40C040
0F80D040
0FFAAB40
0FD00000
02C15040
07400000
0B00D010
0E01E010
1D02F000
2C000004
3C155544
7C000044
7C015044
7C03F444
7C03F404
7D55F554
7FF5FFD0
7F81FF40
ENDCHAR
STARTCHAR aring
ENCODING 229
SWIDTH 830 0
DWIDTH 15 0
BBX 15 21 0 -2
BITMAP
00055400
00115000
01840440
0785E140
0B85E140
0BC44440
0BC15440
0B815040
07400000
0B00D010
0E01E010
1D02F000
2C000004
3C155544
7C000044
7C015044
7C03F444
7C03F404
7D55F554
7FF5FFD0
7F81FF40
ENDCHAR
STARTCHAR ae
ENCODING 230
SWIDTH 1105 0
DWIDTH 20 0
BBX 20 16 0 -2
BITMAP
0015555554
0080000001
0381555541
0B44500555
0F00F00FF4
1E11F00550
2D12F05510
3C00000010
7C15550AA0
7C00000FD0
7C01500A54
7C03F05541
7C03F00001
7D56F55555
7FF6FFFFF4
7F81FFFFD0
ENDCHAR
STARTCHAR ccedilla
ENCODING 231
SWIDTH 728 0
DWIDTH 13 0
BBX 13 19 0 -5
BITMAP
00555540
01055440
09100040
2C105540
3C12FE00
7C12F800
7C110000
7C110000
7C110000
7C110000
7D115500
7E055440
7F400040
3FF44640
1FF40A00
06F41800
00FFD000
01FF4000
00540000
ENDCHAR
STARTCHAR egrave
ENCODING 232
SWIDTH 754 0
DWIDTH 14 0
BBX 13 21 0 -2
BITMAP
00500000
02AFE900
0B455600
1F400100
1F900000
1E550440
0D000000
3D155400
7D100040
7D12FF40
7D115500
7D154100
7D100100
7D115500
7D12F800
7D11A540
7D155400
7D000000
7E555540
7FFFFF40
3FFFF800
ENDCHAR
STARTCHAR eacute
ENCODING 233
SWIDTH 754 0
DWIDTH 14 0
BBX 13 21 0 -2
BITMAP
00000500
006AFE40
01D55040
07800000
0B800100
0A101540
1D000000
3D155400
7D100040
7D12FF40
7D115500
7D154100
7D100100
7D115500
7D12F800
7D11A540
7D155400
7D000000
7E555540
7FFFFF40
3FFFF800
ENDCHAR
STARTCHAR ecircumflex
ENCODING 234
SWIDTH 754 0
DWIDTH 14 0
BBX 13 21 0 -2
BITMAP
00015000
00100500
01415000
0B400000
0F9BE500
0E555540
1D000000
3D155400
7D100040
7D12FF40
7D115500
7D154100
7D100100
7D115500
7D12F800
7D11A540
7D155400
7D000000
7E555540
7FFFFF40
3FFFF800
ENDCHAR
STARTCHAR edieresis
ENCODING 235
SWIDTH 754 0
DWIDTH 14 0
BBX 13 21 0 -2
BITMAP
00551500
02018040
0B018040
1F018040
1F41C000
1FAAAA80
1D000000
2D155400
7D100040
7D12FF40
7D115500
7D154100
7D100100
7D115500
7D12F800
7D11A540
7D155400
7D000000
7E555540
7FFFFF40
3FFFF800
ENDCHAR
STARTCHAR igrave
ENCODING 236
SWIDTH 705 0
DWIDTH 13 0
BBX 13 21 0 -2
BITMAP
00500000
07BFA800
1E055500
2E000100
2F500000
2D540500
1C000040
7C155040
7C010000
7E911900
7FD11400
1BD11000
03D11000
03D11000
03D11000
02910500
1C155000
7C000040
7D555500
7FFFFD00
7FFFE000
ENDCHAR
STARTCHAR iacute
ENCODING 237
SWIDTH 705 0
DWIDTH 13 0
BBX 13 21 0 -2
BITMAP
00001400
00ABF900
07554100
1E000000
2E000400
2D405500
2C000040
3C155040
7C010000
7E911900
7FD11400
1BD11000
03D11000
03D11000
03D11000
02910500
1C155000
7C000040
7D555500
7FFFFD00
7FFFE000
ENDCHAR
STARTCHAR icircumflex
ENCODING 238
SWIDTH 705 0
DWIDTH 13 0
BBX 13 21 0 -2
BITMAP
00054000
00401400
02054100
1E000100
2E6FE400
2D555500
2C000040
3C155040
7C010000
7E911900
7FD11400
1BD11000
03D11000
03D11000
03D11000
02910500
1C155000
7C000040
7D555500
7FFFFD00
7FFFE000
ENDCHAR
STARTCHAR idieresis
ENCODING 239
SWIDTH 705 0
DWIDTH 13 0
BBX 13 21 0 -2
BITMAP
01545400
09030100
2D030100
3D030100
7D030000
7FAAAA00
3C000040
3C155040
7C010000
7E911900
7FD11400
1BD11000
03D11000
03D11000
03D11000
02910500
1C155000
7C000040
7D555500
7FFFFD00
7FFFE000
ENDCHAR
STARTCHAR eth
ENCODING 240
SWIDTH 856 0
DWIDTH 15 0
BBX 15 16 0 -2
BITMAP
01555540
09000010
2D155504
3D100044
3D11F444
3D11B844
34103844
B4543844
F8107844
FD11F844
BD105044
3D155504
3D000000
3E555540
3FFFFE00
3FFFF800
ENDCHAR
STARTCHAR ntilde
ENCODING 241
SWIDTH 853 0
DWIDTH 15 0
BBX 15 21 0 -2
BITMAP
00055140
00500040
01C14040
07C00400
07D54000
0657F954
0D01F404
3D10B444
7D142444
7D110444
7D104044
7D101044
7D110044
7D128044
7D12D144
7D12F044
7D12F444
7D02F404
7E55F954
7FF4FFD0
3FD0FF40
ENDCHAR
STARTCHAR ograve
ENCODING 242
SWIDTH 837 0
DWIDTH 15 0
BBX 15 21 0 -2
BITMAP
00695000
01EFFF40
07C05580
0BC00040
0BD15540
06400510
01055400
1D100104
3C11A044
7C12F444
7C12F444
7C11F444
7C11F444
7C11F444
7C11F044
7D100104
7D055400
7F400010
3FE55640
1FFFFD00
02FFE400
ENDCHAR
STARTCHAR oacute
ENCODING 243
SWIDTH 837 0
DWIDTH 15 0
BBX 15 21 0 -2
BITMAP
00015A40
007FFE80
02E55040
07C00040
0BC55500
0B550010
06055400
1D100104
3C11A044
7C12F444
7C12F444
7C11F444
7C11F444
7C11F444
7C11F044
7D100104
7D055400
7F400010
3FE55640
1FFFFD00
02FFE400
ENDCHAR
STARTCHAR ocircumflex
ENCODING 244
SWIDTH 837 0
DWIDTH 15 0
BBX 15 21 0 -2
BITMAP
00005000
00015000
01800040
07D6F940
0BE55640
0B400010
05055400
1D100104
3C11A044
7C12F444
7C12F444
7C11F444
7C11F444
7C11F444
7C11F044
7D100104
7D055400
7F400010
3FE55640
1FFFFD00
02FFE400
ENDCHAR
STARTCHAR otilde
ENCODING 245
SWIDTH 837 0
DWIDTH 15 0
BBX 15 21 0 -2
BITMAP
00155140
00800040
02C14040
07C00040
0BD54100
0BE55540
07055410
1D100100
3D11A044
7C12F444
7C12F444
7C11F444
7C11F444
7C11F444
7C11F044
7D100104
7D055404
7F000010
3FE55680
1FFFFD00
02FFE400
ENDCHAR
STARTCHAR odieresis
ENCODING 246
SWIDTH 837 0
DWIDTH 15 0
BBX 15 21 0 -2
BITMAP
00551540
01408040
0B408040
0F408040
0F80D040
0FFA6A40
07455410
1D100100
3D11A044
7C12F444
7C12F444
7C11F444
7C11F444
7C11F444
7C11F044
7C100104
7D055404
7F000010
3FE55680
1FFFFE00
02FFE400
ENDCHAR
STARTCHAR divide
ENCODING 247
SWIDTH 834 0
DWIDTH 15 0
BBX 15 15 0 -1
BITMAP
00055400
00180400
00780400
00F80400
00F80400
01AAA550
09155504
3D000004
7FFEAFE0
3FF80740
00B80400
00F80400
00F95400
00FFE000
00BF8000
ENDCHAR
STARTCHAR oslash
ENCODING 248
SWIDTH 837 0
DWIDTH 15 0
BBX 15 19 0 -3
BITMAP
00000550
00001010
00155010
01055410
09100404
2C028044
3C035044
7C030444
7C024844
7C005844
7C003844
7C017444
7D100104
7D055404
7F440010
3F405640
2F57FD00
1FFFE400
1FD00000
ENDCHAR
STARTCHAR ugrave
ENCODING 249
SWIDTH 846 0
DWIDTH 15 0
BBX 15 21 0 -2
BITMAP
00140000
00AFFA00
07C15540
0B800040
0BD40000
0956E514
1D01B404
7D11F444
7D11F444
7D11F444
7D11F444
7D11F444
7D11F444
7D11F444
7D11A044
7D100104
7D015404
3F400010
3FE55640
1FFFFD00
02BFE400
ENDCHAR
STARTCHAR uacute
ENCODING 250
SWIDTH 846 0
DWIDTH 15 0
BBX 15 21 0 -2
BITMAP
00000140
001AFE80
00A55440
03D00000
07D00040
0542F954
1D017404
7D11F444
7D11F444
7D11F444
7D11F444
7D11F444
7D11F444
7D11F444
7D11A044
7D100104
7D015404
3F400010
3FE55640
1FFFFD00
02BFE400
ENDCHAR
STARTCHAR ucircumflex
ENCODING 251
SWIDTH 846 0
DWIDTH 15 0
BBX 15 21 0 -2
BITMAP
00005000
00015000
00800000
03C1A440
07FFFF40
0956F954
1D01B404
7D11F444
7D11F444
7D11F444
7D11F444
7D11F444
7D11F444
7D11F444
7D11F444
7D100104
7D015404
3F400010
3FE55640
1FFFFD00
02BFE400
ENDCHAR
STARTCHAR udieresis
ENCODING 252
SWIDTH 846 0
DWIDTH 15 0
BBX 15 21 0 -2
BITMAP
00551540
01809000
0B809000
0F809000
0F809000
0FABFEA4
2D02F404
7D01B404
7D11F444
7D11F444
7D11F444
7D11F444
7D11F444
7D11F444
7D11A044
7D100104
7D015404
3F400010
3FE55640
1FFFFD00
02BFE400
ENDCHAR
STARTCHAR yacute
ENCODING 253
SWIDTH 805 0
DWIDTH 14 0
BBX 14 21 0 -2
BITMAP
00000500
002AFE40
01D55040
07800000
0B800100
0952F550
2C01B000
7C42F000
BC42F000
BC02E000
BC11D100
BD000010
BF040000
7F804000
2FE04100
0BF44400
03F44400
01F40400
01F95400
01FFE000
00FF4000
ENDCHAR
STARTCHAR thorn
ENCODING 254
SWIDTH 792 0
DWIDTH 14 0
BBX 14 16 0 -2
BITMAP
01550000
1D010000
3D105500
7D155410
7D100110
7D100110
7D12E110
7D12E110
7D12E110
7D100110
7D155410
7D105540
7D02FD00
7E56E000
7FF40000
3FD00000
ENDCHAR
STARTCHAR ydieresis
ENCODING 255
SWIDTH 805 0
DWIDTH 14 0
BBX 14 21 0 -2
BITMAP
00551500
02408040
0B40C040
1F40C000
1F41C000
1EAFFAA0
2C03F000
BC01F000
BC42F000
BC02F000
BC11D100
BD004000
BF040000
3F804000
1FE04100
0BF44400
03F44400
01F40400
01F95400
01FFE000
00FF4000
ENDCHAR
STARTCHAR Amacron
ENCODING 256
SWIDTH 830 0
DWIDTH 15 0
BBX 15 20 0 -2
BITMAP
00155500
00815040
07C00040
0BC00040
0BFAAA00
0BD00000
02C15040
07400000
0B00D010
0E01E010
1D02F000
2C000004
3C155544
7C000044
7C015044
7C03F444
7C03F404
7D55F554
7FF5FFD0
7F81FF40
ENDCHAR
STARTCHAR amacron
ENCODING 257
SWIDTH 830 0
DWIDTH 15 0
BBX 15 20 0 -2
BITMAP
00155500
00815040
07C00040
0BC00040
0BFAAA00
0BD00000
02C15040
07400000
0B00D010
0E01E010
1D02F000
2C000004
3C155544
7C000044
7C015044
7C03F444
7C03F404
7D55F554
7FF5FFD0
7F81FF40
ENDCHAR
STARTCHAR Abreve
ENCODING 258
SWIDTH 830 0
DWIDTH 15 0
BBX 15 21 0 -2
BITMAP
00151500
01816040
07840000
0BC15400
0BE40000
0BFAAA00
02D00040
02C15040
07400040
0B00D010
0E01E010
1D02F000
2C000004
3C155544
7C000044
7C015044
7C03F444
7C03F404
7D55F554
7FF5FFD0
7F81FF40
ENDCHAR
STARTCHAR abreve
ENCODING 259
SWIDTH 830 0
DWIDTH 15 0
BBX 15 21 0 -2
BITMAP
00151500
01816040
07840000
0BC15400
0BE40000
0BFAAA00
02D00040
02C15040
07400040
0B00D010
0E01E010
1D02F000
2C000004
3C155544
7C000044
7C015044
7C03F444
7C03F404
7D55F554
7FF5FFD0
7F81FF40
ENDCHAR
STARTCHAR Aogonek
ENCODING 260
SWIDTH 830 0
DWIDTH 15 0
BBX 15 20 0 -6
BITMAP
00155500
00800040
02815040
07400000
0B00D010
0E01E010
1D02F000
2C000004
3C155544
7C000044
7C015044
7C03F444
7C03F404
7D55F110
7FF5F110
7F81E104
0002F404
0002FFE0
0001FF80
00001500
ENDCHAR
STARTCHAR aogonek
ENCODING 261
SWIDTH 830 0
DWIDTH 15 0
BBX 15 20 0 -6
BITMAP
00155500
00800040
02815040
07400000
0B00D010
0E01E010
1D02F000
2C000004
3C155544
7C000044
7C015044
7C03F444
7C03F404
7D55F110
7FF5F110
7F81E104
0002F404
0002FFE0
0001FF80
00001500
ENDCHAR
STARTCHAR Cacute
ENCODING 262
SWIDTH 728 0
DWIDTH 13 0
BBX 13 21 0 -2
BITMAP
00000100
001AFE80
00A55440
07C00000
07C00040
07C01540
07000040
05055440
1C100040
3C12FE00
7C12F800
7C115000
7C110000
7C110000
7C110000
7C115500
7D055440
7F000040
3FE55540
1FFFFE00
06FFF800
ENDCHAR
STARTCHAR cacute
ENCODING 263
SWIDTH 728 0
DWIDTH 13 0
BBX 13 21 0 -2
BITMAP
00000100
001AFE80
00A55440
07C00000
07C00040
07C01540
07000040
05055440
1C100040
3C12FE00
7C12F800
7C115000
7C110000
7C110000
7C110000
7C115500
7D055440
7F000040
3FE55540
1FFFFE00
06FFF800
ENDCHAR
STARTCHAR Ccircumflex
ENCODING 264
SWIDTH 728 0
DWIDTH 13 0
BBX 13 21 0 -2
BITMAP
00015000
00100500
01415040
07800040
0F9BE900
0FD55540
0F000040
05055440
1C100040
3C12FE00
7C12F800
7C115000
7C110000
7C110000
7C110000
7C115500
7D055440
7F000040
3FE55540
1FFFFE00
06FFF800
ENDCHAR
STARTCHAR ccircumflex
ENCODING 265
SWIDTH 728 0
DWIDTH 13 0
BBX 13 21 0 -2
BITMAP
00015000
00100500
01415040
07800040
0F9BE900
0FD55540
0F000040
05055440
1C100040
3C12FE00
7C12F800
7C115000
7C110000
7C110000
7C110000
7C115500
7D055440
7F000040
3FE55540
1FFFFE00
06FFF800
ENDCHAR
STARTCHAR Cdotaccent
ENCODING 266
SWIDTH 728 0
DWIDTH 13 0
BBX 13 21 0 -2
BITMAP
00055000
00240400
00B40400
00F40400
00F80000
00D55540
01000040
09055440
2C100040
3C12FE00
7C12F800
7C115000
7C110000
7C110000
7C110000
7C115500
7D055440
7F000040
3FE55540
1FFFFE00
06FFF800
ENDCHAR
STARTCHAR cdotaccent
ENCODING 267
SWIDTH 728 0
DWIDTH 13 0
BBX 13 21 0 -2
BITMAP
00055000
00240400
00B40400
00F40400
00F80000
00D55540
01000040
09055440
2C100040
3C12FE00
7C12F800
7C115000
7C110000
7C110000
7C110000
7C115500
7D055440
7F000040
3FE55540
1FFFFE00
06FFF800
ENDCHAR
STARTCHAR Ccaron
ENCODING 268
SWIDTH 728 0
DWIDTH 13 0
BBX 13 21 0 -2
BITMAP
00A40100
03815040
0F814000
0F800000
0FF91400
0BD55540
01000040
05055440
1C100040
3C12FE00
7C12F800
7C115000
7C110000
7C110000
7C110000
7C115500
7D055440
7F000040
3FE55540
1FFFFE00
06FFF800
ENDCHAR
STARTCHAR ccaron
ENCODING 269
SWIDTH 728 0
DWIDTH 13 0
BBX 13 21 0 -2
BITMAP
00A40100
03815040
0F814000
0F800000
0FF91400
0BD55540
01000040
05055440
1C100040
3C12FE00
7C12F800
7C115000
7C110000
7C110000
7C110000
7C115500
7D055440
7F000040
3FE55540
1FFFFE00
06FFF800
ENDCHAR
STARTCHAR Dcaron
ENCODING 270
SWIDTH 846 0
DWIDTH 15 0
BBX 15 21 0 -2
BITMAP
00680100
02C15040
07C05000
07D00000
07F91500
06000140
0D000010
3D155504
7D100000
7D11A044
7D12F444
7D12F444
7D11F444
7D11F444
7D11F444
7D11A004
7D155504
7D000010
7E555540
7FFFFE00
3FFFE400
ENDCHAR
STARTCHAR dcaron
ENCODING 271
SWIDTH 846 0
DWIDTH 15 0
BBX 15 21 0 -2
BITMAP
00680100
02C15040
07C05000
07D00000
07F91500
06000140
0D000010
3D155504
7D100000
7D11A044
7D12F444
7D12F444
7D11F444
7D11F444
7D11F444
7D11A004
7D155504
7D000010
7E555540
7FFFFE00
3FFFE400
ENDCHAR
STARTCHAR Dcroat
ENCODING 272
SWIDTH 856 0
DWIDTH 15 0
BBX 15 16 0 -2
BITMAP
01555540
09000010
2D155504
3D100044
3D11F444
3D11B844
34103844
B4543844
F8107844
FD11F844
BD105044
3D155504
3D000000
3E555540
3FFFFE00
3FFFF800
ENDCHAR
STARTCHAR dcroat
ENCODING 273
SWIDTH 856 0
DWIDTH 15 0
BBX 15 16 0 -2
BITMAP
01555540
09000010
2D155504
3D100044
3D11F444
3D11B844
34103844
B4543844
F8107844
FD11F844
BD105044
3D155504
3D000000
3E555540
3FFFFE00
3FFFF800
ENDCHAR
STARTCHAR Emacron
ENCODING 274
SWIDTH 754 0
DWIDTH 14 0
BBX 13 20 0 -2
BITMAP
00555500
02455000
0B400000
0F400000
0E555540
0D000000
2D155400
7D100040
7D12FF40
7D115500
7D154100
7D100100
7D115500
7D12F800
7D11A540
7D155400
7D000000
7E555540
7FFFFF40
3FFFF800
ENDCHAR
STARTCHAR emacron
ENCODING 275
SWIDTH 754 0
DWIDTH 14 0
BBX 13 20 0 -2
BITMAP
00555500
02455000
0B400000
0F400000
0E555540
0D000000
2D155400
7D100040
7D12FF40
7D115500
7D154100
7D100100
7D115500
7D12F800
7D11A540
7D155400
7D000000
7E555540
7FFFFF40
3FFFF800
ENDCHAR
STARTCHAR Ebreve
ENCODING 276
SWIDTH 754 0
DWIDTH 14 0
BBX 13 21 0 -2
BITMAP
00541500
02419040
0B400400
0F855000
0FE40000
0A555540
09000000
3D155400
7D100040
7D12FF40
7D115500
7D154100
7D100100
7D115500
7D12F800
7D11A540
7D155400
7D000000
7E555540
7FFFFF40
3FFFF800
ENDCHAR
STARTCHAR ebreve
ENCODING 277
SWIDTH 754 0
DWIDTH 14 0
BBX 13 21 0 -2
BITMAP
00541500
02419040
0B400400
0F855000
0FE40000
0A555540
09000000
3D155400
7D100040
7D12FF40
7D115500
7D154100
7D100100
7D115500
7D12F800
7D11A540
7D155400
7D000000
7E555540
7FFFFF40
3FFFF800
ENDCHAR
STARTCHAR Edotaccent
ENCODING 278
SWIDTH 754 0
DWIDTH 14 0
BBX 13 21 0 -2
BITMAP
00055000
00600400
01F00400
02F00000
02F00000
01555540
1D000000
3D155400
7D100040
7D12FF40
7D115500
7D154100
7D100100
7D115500
7D12F800
7D11A540
7D155400
7D000000
7E555540
7FFFFF40
3FFFF800
ENDCHAR
STARTCHAR edotaccent
ENCODING 279
SWIDTH 754 0
DWIDTH 14 0
BBX 13 21 0 -2
BITMAP
00055000
00600400
01F00400
02F00000
02F00000
01555540
1D000000
3D155400
7D100040
7D12FF40
7D115500
7D154100
7D100100
7D115500
7D12F800
7D11A540
7D155400
7D000000
7E555540
7FFFFF40
3FFFF800
ENDCHAR
STARTCHAR Eogonek
ENCODING 280
SWIDTH 754 0
DWIDTH 14 0
BBX 13 20 0 -6
BITMAP
01555540
1D000000
3D155400
7D100040
7D12FF40
7D115500
7D154100
7D100100
7D115500
7D12F800
7D11A540
7D155400
7D000400
7E550440
7FFF8540
3FFF8400
000FD000
000FFF40
000BFD00
00005000
ENDCHAR
STARTCHAR eogonek
ENCODING 281
SWIDTH 754 0
DWIDTH 14 0
BBX 13 20 0 -6
BITMAP
01555540
1D000000
3D155400
7D100040
7D12FF40
7D115500
7D154100
7D100100
7D115500
7D12F800
7D11A540
7D155400
7D000400
7E550440
7FFF8540
3FFF8400
000FD000
000FFF40
000BFD00
00005000
ENDCHAR
STARTCHAR Ecaron
ENCODING 282
SWIDTH 754 0
DWIDTH 14 0
BBX 13 21 0 -2
BITMAP
00A40100
03455040
0F414000
0F800000
0FF91400
0A555540
09000000
3D155400
7D100040
7D12FF40
7D115500
7D154100
7D100100
7D115500
7D12F800
7D11A540
7D155400
7D000000
7E555540
7FFFFF40
3FFFF800
ENDCHAR
STARTCHAR ecaron
ENCODING 283
SWIDTH 754 0
DWIDTH 14 0
BBX 13 21 0 -2
BITMAP
00A40100
03455040
0F414000
0F800000
0FF91400
0A555540
09000000
3D155400
7D100040
7D12FF40
7D115500
7D154100
7D100100
7D115500
7D12F800
7D11A540
7D155400
7D000000
7E555540
7FFFFF40
3FFFF800
ENDCHAR
STARTCHAR Gcircumflex
ENCODING 284
SWIDTH 808 0
DWIDTH 15 0
BBX 14 21 0 -2
BITMAP
00005000
00140100
00915040
02C00040
07D6F940
07EAAA40
07400040
05055440
1D100040
3C12FF40
7C12F800
7C115550
7C116000
7C12E000
7C12E100
7C100100
7D055500
7F000000
3FD55550
1FFFFFC0
06FFFE00
ENDCHAR
STARTCHAR gcircumflex
ENCODING 285
SWIDTH 808 0
DWIDTH 15 0
BBX 14 21 0 -2
BITMAP
00005000
00140100
00915040
02C00040
07D6F940
07EAAA40
07400040
05055440
1D100040
3C12FF40
7C12F800
7C115550
7C116000
7C12E000
7C12E100
7C100100
7D055500
7F000000
3FD55550
1FFFFFC0
06FFFE00
ENDCHAR
STARTCHAR Gbreve
ENCODING 286
SWIDTH 808 0
DWIDTH 15 0
BBX 14 21 0 -2
BITMAP
00150540
01806040
07C40100
0BD15400
0BF40000
07D55540
02000040
05055440
1C100040
3C12FF00
7C12F800
7C115550
7C116000
7C12E000
7C12E100
7C100100
7D055500
7F000000
3FE55550
1FFFFFC0
06FFFE00
ENDCHAR
STARTCHAR gbreve
ENCODING 287
SWIDTH 808 0
DWIDTH 15 0
BBX 14 21 0 -2
BITMAP
00150540
01806040
07C40100
0BD15400
0BF40000
07D55540
02000040
05055440
1C100040
3C12FF00
7C12F800
7C115550
7C116000
7C12E000
7C12E100
7C100100
7D055500
7F000000
3FE55550
1FFFFFC0
06FFFE00
ENDCHAR
STARTCHAR Gdotaccent
ENCODING 288
SWIDTH 808 0
DWIDTH 15 0
BBX 14 21 0 -2
BITMAP
00015400
00180000
00780000
00B80000
00BC0000
00955540
00000040
05055440
1C100040
3C12FF00
7C12F800
7C115550
7C116000
7C12E000
7C12E100
7C100100
7D055500
7F000000
3FE55550
1FFFFFC0
06FFFE00
ENDCHAR
STARTCHAR gdotaccent
ENCODING 289
SWIDTH 808 0
DWIDTH 15 0
BBX 14 21 0 -2
BITMAP
00015400
00180000
00780000
00B80000
00BC0000
00955540
00000040
05055440
1C100040
3C12FF00
7C12F800
7C115550
7C116000
7C12E000
7C12E100
7C100100
7D055500
7F000000
3FE55550
1FFFFFC0
06FFFE00
ENDCHAR
STARTCHAR Gcommaaccent
ENCODING 290
SWIDTH 808 0
DWIDTH 15 0
BBX 14 23 0 -9
BITMAP
00555540
01055440
09100040
2C105540
3C12FE00
7C12F800
7C110550
7C116000
7C12E000
7C12E100
7D100100
7E055500
7F900010
3FFEAFF0
1FF803C0
06F85200
00781000
00BE9000
00BC1400
00BC4400
007E9000
00BF8000
00550000
ENDCHAR
STARTCHAR gcommaaccent
ENCODING 291
SWIDTH 808 0
DWIDTH 15 0
BBX 14 23 0 -9
BITMAP
00555540
01055440
09100040
2C105540
3C12FE00
7C12F800
7C110550
7C116000
7C12E000
7C12E100
7D100100
7E055500
7F900010
3FFEAFF0
1FF803C0
06F85200
00781000
00BE9000
00BC1400
00BC4400
007E9000
00BF8000
00550000
ENDCHAR
STARTCHAR Hcircumflex
ENCODING 292
SWIDTH 859 0
DWIDTH 15 0
BBX 15 21 0 -2
BITMAP
00005000
00140140
00815040
02C00040
07DAF940
0656F954
0D01B404
3D11F444
7D11F444
7D11A444
7D100044
7D100044
7D155544
7D100044
7D12F444
7D12F444
7D11F444
7D01F404
7E55F954
7FF8FFE0
3FD0FF40
ENDCHAR
STARTCHAR hcircumflex
ENCODING 293
SWIDTH 859 0
DWIDTH 15 0
BBX 15 21 0 -2
BITMAP
00005000
00140140
00815040
02C00040
07DAF940
0656F954
0D01B404
3D11F444
7D11F444
7D11A444
7D100044
7D100044
7D155544
7D100044
7D12F444
7D12F444
7D11F444
7D01F404
7E55F954
7FF8FFE0
3FD0FF40
ENDCHAR
STARTCHAR Hbar
ENCODING 294
SWIDTH 879 0
DWIDTH 16 0
BBX 16 16 0 -2
BITMAP
01550554
09012804
2D106440
38100041
78155551
F8100041
FD11F844
FD105444
3D100044
3D155544
3D100044
3D11F844
3D01F804
3E55F954
3FF8FFE0
3FD0BF80
ENDCHAR
STARTCHAR hbar
ENCODING 295
SWIDTH 879 0
DWIDTH 16 0
BBX 16 16 0 -2
BITMAP
01550554
09012804
2D106440
38100041
78155551
F8100041
FD11F844
FD105444
3D100044
3D155544
3D100044
3D11F844
3D01F804
3E55F954
3FF8FFE0
3FD0BF80
ENDCHAR
STARTCHAR Itilde
ENCODING 296
SWIDTH 705 0
DWIDTH 13 0
BBX 13 21 0 -2
BITMAP
00554400
01000100
0A050100
2E000000
2E550000
2D555500
2C000040
3C155040
7C010000
7E911900
7FD11400
1BD11000
03D11000
03D11000
03D11000
02910500
1C155000
7C000040
7D555500
7FFFFD00
7FFFE000
ENDCHAR
STARTCHAR itilde
ENCODING 297
SWIDTH 705 0
DWIDTH 13 0
BBX 13 21 0 -2
BITMAP
00554400
01000100
0A050100
2E000000
2E550000
2D555500
2C000040
3C155040
7C010000
7E911900
7FD11400
1BD11000
03D11000
03D11000
03D11000
02910500
1C155000
7C000040
7D555500
7FFFFD00
7FFFE000
ENDCHAR
STARTCHAR Imacron
ENCODING 298
SWIDTH 705 0
DWIDTH 13 0
BBX 13 20 0 -2
BITMAP
00555400
06054100
1E000100
2E000000
2FAAAA00
2C000040
2C155040
7C010000
7E911900
7FD11400
1BD11000
03D11000
03D11000
03D11000
02910500
1C155000
7C000040
7D555500
7FFFFD00
7FFFE000
ENDCHAR
STARTCHAR imacron
ENCODING 299
SWIDTH 705 0
DWIDTH 13 0
BBX 13 20 0 -2
BITMAP
00555400
06054100
1E000100
2E000000
2FAAAA00
2C000040
2C155040
7C010000
7E911900
7FD11400
1BD11000
03D11000
03D11000
03D11000
02910500
1C155000
7C000040
7D555500
7FFFFD00
7FFFE000
ENDCHAR
STARTCHAR Ibreve
ENCODING 300
SWIDTH 705 0
DWIDTH 13 0
BBX 13 21 0 -2
BITMAP
01545400
06068100
1E111000
3F054000
3F900000
2D555500
1C000040
7C155040
7C010000
7E911900
7FD11400
1BD11000
03D11000
03D11000
03D11000
02910500
1C155000
7C000040
7D555500
7FFFFD00
7FFFE000
ENDCHAR
STARTCHAR ibreve
ENCODING 301
SWIDTH 705 0
DWIDTH 13 0
BBX 13 21 0 -2
BITMAP
01545400
06068100
1E111000
3F054000
3F900000
2D555500
1C000040
7C155040
7C010000
7E911900
7FD11400
1BD11000
03D11000
03D11000
03D11000
02910500
1C155000
7C000040
7D555500
7FFFFD00
7FFFE000
ENDCHAR
STARTCHAR Iogonek
ENCODING 302
SWIDTH 705 0
DWIDTH 13 0
BBX 13 20 0 -6
BITMAP
05555500
1C000040
7C155040
7C010000
7E911900
7FD11400
1BD11000
03D11000
03D11000
03D11000
02910500
1C155000
7C001040
7D541100
7FFE1500
7FFE1040
003F4000
003FFE00
002FF400
00014000
ENDCHAR
STARTCHAR iogonek
ENCODING 303
SWIDTH 705 0
DWIDTH 13 0
BBX 13 20 0 -6
BITMAP
05555500
1C000040
7C155040
7C010000
7E911900
7FD11400
1BD11000
03D11000
03D11000
03D11000
02910500
1C155000
7C001040
7D541100
7FFE1500
7FFE1040
003F4000
003FFE00
002FF400
00014000
ENDCHAR
STARTCHAR Idotaccent
ENCODING 304
SWIDTH 705 0
DWIDTH 13 0
BBX 13 21 0 -2
BITMAP
00155000
00501000
02D01000
03D01000
03E00000
05555500
1C000040
7C155040
7C010000
7E911900
7FD11400
1BD11000
03D11000
03D11000
03D11000
02910500
1C155000
7C000040
7D555500
7FFFFD00
7FFFE000
ENDCHAR
STARTCHAR dotlessi
ENCODING 305
SWIDTH 705 0
DWIDTH 13 0
BBX 13 16 0 -2
BITMAP
05555500
1C000040
7C155040
7C010000
7E911900
7FD11400
1BD11000
03D11000
03D11000
03D11000
02910500
1C155000
7C000040
7D555500
7FFFFD00
7FFFE000
ENDCHAR
STARTCHAR IJ
ENCODING 306
SWIDTH 844 0
DWIDTH 15 0
BBX 15 16 0 -2
BITMAP
01550550
1D017404
3D11F444
7D12F444
7D12F444
7D12F444
7D02F444
7D02F444
7FAAF444
3FF2F044
16415104
09155400
3D000010
7E555540
7FFFFE00
3FFFE400
ENDCHAR
STARTCHAR ij
ENCODING 307
SWIDTH 844 0
DWIDTH 15 0
BBX 15 16 0 -2
BITMAP
01550550
1D017404
3D11F444
7D12F444
7D12F444
7D12F444
7D02F444
7D02F444
7FAAF444
3FF2F044
16415104
09155400
3D000010
7E555540
7FFFFE00
3FFFE400
ENDCHAR
STARTCHAR Jcircumflex
ENCODING 308
SWIDTH 788 0
DWIDTH 14 0
BBX 15 21 0 -2
BITMAP
00000500
00000540
00090000
002D0540
003EFFF8
007FD020
0025D010
0007D110
0007D110
0007D110
0007D110
0157D110
1807D110
7807D110
B8428110
BC100410
BC055000
BE000040
7FE55900
2FFFF400
06FF9000
ENDCHAR
STARTCHAR jcircumflex
ENCODING 309
SWIDTH 788 0
DWIDTH 14 0
BBX 15 21 0 -2
BITMAP
00000500
00000540
00090000
002D0540
003EFFF8
007FD020
0025D010
0007D110
0007D110
0007D110
0007D110
0157D110
1807D110
7807D110
B8428110
BC100410
BC055000
BE000040
7FE55900
2FFFF400
06FF9000
ENDCHAR
STARTCHAR Kcommaaccent
ENCODING 310
SWIDTH 846 0
DWIDTH 15 0
BBX 15 23 0 -9
BITMAP
01551554
1D016000
3D12D110
7D128400
7D124440
7D100010
7D155504
7D100004
7D11A044
7D12F444
7D12F444
7D11F444
7D01F404
7E55F954
7FF9ABD0
3FE85340
00781000
00BE9000
00BC1000
00BC4400
007E9000
00BF8000
00550000
ENDCHAR
STARTCHAR kcommaaccent
ENCODING 311
SWIDTH 846 0
DWIDTH 15 0
BBX 15 23 0 -9
BITMAP
01551554
1D016000
3D12D110
7D128400
7D124440
7D100010
7D155504
7D100004
7D11A044
7D12F444
7D12F444
7D11F444
7D01F404
7E55F954
7FF9ABD0
3FE85340
00781000
00BE9000
00BC1000
00BC4400
007E9000
00BF8000
00550000
ENDCHAR
STARTCHAR kgreenlandic
ENCODING 312
SWIDTH 846 0
DWIDTH 15 0
BBX 15 16 0 -2
BITMAP
01551554
1D016000
3D11D110
7D12C000
7D128440
7D110440
7D101000
7D155504
7D100044
7D12F444
7D12F444
7D11F444
7D01F404
7E55F954
7FF8FFE0
3FD0FF40
ENDCHAR
STARTCHAR Lacute
ENCODING 313
SWIDTH 795 0
DWIDTH 14 0
BBX 14 20 0 -2
BITMAP
005AA800
06554000
2D100000
3D001000
7E17D000
3D010000
3D110000
7D110000
7D110000
7D110000
7D110550
7D116010
7D11F010
7D12E110
7D100110
7D155510
7D000010
7E555550
7FFFFF80
3FFFFE00
ENDCHAR
STARTCHAR lacute
ENCODING 314
SWIDTH 795 0
DWIDTH 14 0
BBX 14 20 0 -2
BITMAP
005AA800
06554000
2D100000
3D001000
7E17D000
3D010000
3D110000
7D110000
7D110000
7D110000
7D110550
7D116010
7D11F010
7D12E110
7D100110
7D155510
7D000010
7E555550
7FFFFF80
3FFFFE00
ENDCHAR
STARTCHAR Lcommaaccent
ENCODING 315
SWIDTH 795 0
DWIDTH 14 0
BBX 14 23 0 -9
BITMAP
01550000
1D010000
3D110000
7D110000
7D110000
7D110550
7D112010
7D11F010
7D12F110
7D11A110
7D100110
7D155510
7D000010
7FFEAFE0
7FF80780
3FF84600
00B81400
00FE5400
00F81400
00F84400
007E9000
00BF4000
00540000
ENDCHAR
STARTCHAR lcommaaccent
ENCODING 316
SWIDTH 795 0
DWIDTH 14 0
BBX 14 23 0 -9
BITMAP
01550000
1D010000
3D110000
7D110000
7D110000
7D110550
7D112010
7D11F010
7D12F110
7D11A110
7D100110
7D155510
7D000010
7FFEAFE0
7FF80780
3FF84600
00B81400
00FE5400
00F81400
00F84400
007E9000
00BF4000
00540000
ENDCHAR
STARTCHAR Lcaron
ENCODING 317
SWIDTH 795 0
DWIDTH 14 0
BBX 14 16 0 -2
BITMAP
01551550
1D016010
3D12E110
7D12D010
7D12D000
7D12EA40
7D12F950
7D11B010
7D11F010
7D12E110
7D100110
7D155510
7D000010
7E555550
7FFFFF80
3FFFFE00
ENDCHAR
STARTCHAR lcaron
ENCODING 318
SWIDTH 795 0
DWIDTH 14 0
BBX 14 16 0 -2
BITMAP
01551550
1D016010
3D12E110
7D12D010
7D12D000
7D12EA40
7D12F950
7D11B010
7D11F010
7D12E110
7D100110
7D155510
7D000010
7E555550
7FFFFF80
3FFFFE00
ENDCHAR
STARTCHAR Ldot
ENCODING 319
SWIDTH 795 0
DWIDTH 14 0
BBX 14 16 0 -2
BITMAP
01550000
1D010000
3D110540
7D116010
7D11E010
7D12E010
7D12FA90
7D12FA50
7D11B010
7D11A010
7D100110
7D155510
7D000010
7E555550
7FFFFF80
3FFFFE00
ENDCHAR
STARTCHAR ldot
ENCODING 320
SWIDTH 795 0
DWIDTH 14 0
BBX 14 16 0 -2
BITMAP
01550000
1D010000
3D110540
7D116010
7D11E010
7D12E010
7D12FA90
7D12FA50
7D11B010
7D11A010
7D100110
7D155510
7D000010
7E555550
7FFFFF80
3FFFFE00
ENDCHAR
STARTCHAR Lslash
ENCODING 321
SWIDTH 805 0
DWIDTH 14 0
BBX 14 16 0 -2
BITMAP
01550000
09010000
3D110000
3D110000
3D105000
38101000
74541550
F411B000
FD11F000
FD11F000
7D100000
3D155500
3D000000
3E555550
3FFFFFD0
3FFFFE00
ENDCHAR
STARTCHAR lslash
ENCODING 322
SWIDTH 805 0
DWIDTH 14 0
BBX 14 16 0 -2
BITMAP
01550000
09010000
3D110000
3D110000
3D105000
38101000
74541550
F411B000
FD11F000
FD11F000
7D100000
3D155500
3D000000
3E555550
3FFFFFD0
3FFFFE00
ENDCHAR
STARTCHAR Nacute
ENCODING 323
SWIDTH 853 0
DWIDTH 15 0
BBX 15 21 0 -2
BITMAP
00000140
001AFE80
00A55440
02D00000
07D00040
0642F954
1D017404
3D10B444
7D142444
7D110444
7D104044
7D101044
7D110044
7D128044
7D12D144
7D12F044
7D12F444
7D02F404
7E55F954
7FF4FFD0
3FD0FF40
ENDCHAR
STARTCHAR nacute
ENCODING 324
SWIDTH 853 0
DWIDTH 15 0
BBX 15 21 0 -2
BITMAP
00000140
001AFE80
00A55440
02D00000
07D00040
0642F954
1D017404
3D10B444
7D142444
7D110444
7D104044
7D101044
7D110044
7D128044
7D12D144
7D12F044
7D12F444
7D02F404
7E55F954
7FF4FFD0
3FD0FF40
ENDCHAR
STARTCHAR Ncommaaccent
ENCODING 325
SWIDTH 853 0
DWIDTH 15 0
BBX 15 23 0 -9
BITMAP
01540554
1D017404
3D10B444
7D142444
7D110444
7D104044
7D101044
7D120444
7D128044
7D12D044
7D12F444
7D12F444
7D02F404
7E55F954
7FF9ABD0
3FE85340
00781000
00BE9000
00BC1000
00BC4400
007E9000
00BF8000
00150000
ENDCHAR
STARTCHAR ncommaaccent
ENCODING 326
SWIDTH 853 0
DWIDTH 15 0
BBX 15 23 0 -9
BITMAP
01540554
1D017404
3D10B444
7D142444
7D110444
7D104044
7D101044
7D120444
7D128044
7D12D044
7D12F444
7D12F444
7D02F404
7E55F954
7FF9ABD0
3FE85340
00781000
00BE9000
00BC1000
00BC4400
007E9000
00BF8000
00150000
ENDCHAR
STARTCHAR Ncaron
ENCODING 327
SWIDTH 853 0
DWIDTH 15 0
BBX 15 21 0 -2
BITMAP
00640100
01C15040
07C05040
0BC00000
0BF91900
0657F954
1D017404
3D10B444
7D142444
7D110444
7D104044
7D101044
7D110044
7D128044
7D12D144
7D12F044
7D12F444
7D02F404
7E55F954
7FF4FFD0
3FD0FF40
ENDCHAR
STARTCHAR ncaron
ENCODING 328
SWIDTH 853 0
DWIDTH 15 0
BBX 15 21 0 -2
BITMAP
00640100
01C15040
07C05040
0BC00000
0BF91900
0657F954
1D017404
3D10B444
7D142444
7D110444
7D104044
7D101044
7D110044
7D128044
7D12D144
7D12F044
7D12F444
7D02F404
7E55F954
7FF4FFD0
3FD0FF40
ENDCHAR
STARTCHAR napostrophe
ENCODING 329
SWIDTH 853 0
DWIDTH 15 0
BBX 15 23 0 -2
BITMAP
01540000
08010000
3C110000
7C050000
7F900000
7D500000
3D000000
7EA80AA4
3D013404
3D10B444
7D143444
7D110444
7D104044
7D101044
7D110044
7D128044
7D12D144
7D12F044
7D12F444
7D02F404
7E55F954
7FF4FFD0
3FD0FF40
ENDCHAR
STARTCHAR Eng
ENCODING 330
SWIDTH 846 0
DWIDTH 15 0
BBX 15 18 0 -4
BITMAP
00155540
01015410
05100104
1D104044
3D12F044
7D12F444
7D12F444
7D11F444
7D11F444
7D11F444
7D11F444
7D11F044
7D028004
7D574500
7FFF4000
3FDFEA40
000FFD00
00055000
ENDCHAR
STARTCHAR eng
ENCODING 331
SWIDTH 846 0
DWIDTH 15 0
BBX 15 18 0 -4
BITMAP
00155540
01015410
05100104
1D104044
3D12F044
7D12F444
7D12F444
7D11F444
7D11F444
7D11F444
7D11F444
7D11F044
7D028004
7D574500
7FFF4000
3FDFEA40
000FFD00
00055000
ENDCHAR
STARTCHAR Omacron
ENCODING 332
SWIDTH 837 0
DWIDTH 15 0
BBX 15 20 0 -2
BITMAP
00155500
01C15440
07C00040
0BC00040
0BFA6A40
07455410
1D100100
3D11A044
7C12F444
7C12F444
7C11F444
7C11F444
7C11F444
7C11F044
7C100104
7D055404
7F000010
3FE55680
1FFFFE00
02FFE400
ENDCHAR
STARTCHAR omacron
ENCODING 333
SWIDTH 837 0
DWIDTH 15 0
BBX 15 20 0 -2
BITMAP
00155500
01C15440
07C00040
0BC00040
0BFA6A40
07455410
1D100100
3D11A044
7C12F444
7C12F444
7C11F444
7C11F444
7C11F444
7C11F044
7C100104
7D055404
7F000010
3FE55680
1FFFFE00
02FFE400
ENDCHAR
STARTCHAR Obreve
ENCODING 334
SWIDTH 837 0
DWIDTH 15 0
BBX 15 21 0 -2
BITMAP
00151500
01816040
07840040
0BC15440
0BE40500
07E95500
02455410
09100104
2D11A044
7C12F444
7C12F444
7C11F444
7C11F444
7C11F444
7C11F044
7D100104
7D055404
7F000010
3FE55680
1FFFFD00
02FFE400
ENDCHAR
STARTCHAR obreve
ENCODING 335
SWIDTH 837 0
DWIDTH 15 0
BBX 15 21 0 -2
BITMAP
00151500
01816040
07840040
0BC15440
0BE40500
07E95500
02455410
09100104
2D11A044
7C12F444
7C12F444
7C11F444
7C11F444
7C11F444
7C11F044
7D100104
7D055404
7F000010
3FE55680
1FFFFD00
02FFE400
ENDCHAR
STARTCHAR Ohungarumlaut
ENCODING 336
SWIDTH 837 0
DWIDTH 15 0
BBX 15 23 0 -2
BITMAP
00054550
00605410
01D07010
02D4B110
03C4A100
07C0E040
0B81E040
0BFA6A40
07455410
1D100100
3D11A044
7C12F444
7C12F444
7C11F444
7C11F444
7C11F444
7C11F044
7C100104
7D055404
7F000010
3FE55680
1FFFFE00
02FFE400
ENDCHAR
STARTCHAR ohungarumlaut
ENCODING 337
SWIDTH 837 0
DWIDTH 15 0
BBX 15 23 0 -2
BITMAP
00054550
00605410
01D07010
02D4B110
03C4A100
07C0E040
0B81E040
0BFA6A40
07455410
1D100100
3D11A044
7C12F444
7C12F444
7C11F444
7C11F444
7C11F444
7C11F044
7C100104
7D055404
7F000010
3FE55680
1FFFFE00
02FFE400
ENDCHAR
STARTCHAR OE
ENCODING 338
SWIDTH 1115 0
DWIDTH 20 0
BBX 20 16 0 -2
BITMAP
0015555555
0100000001
0905555541
2D10000001
3C11A00FF8
7C12F00550
7C12F05504
7C12F00004
7C12F00550
7C12F00FD0
7D11A00A54
7D05555541
7F00000001
3FD5555555
1FFFFFFFF8
06FFFFFFD0
ENDCHAR
STARTCHAR oe
ENCODING 339
SWIDTH 1115 0
DWIDTH 20 0
BBX 20 16 0 -2
BITMAP
0015555555
0100000001
0905555541
2D10000001
3C11A00FF8
7C12F00550
7C12F05504
7C12F00004
7C12F00550
7C12F00FD0
7D11A00A54
7D05555541
7F00000001
3FD5555555
1FFFFFFFF8
06FFFFFFD0
ENDCHAR
STARTCHAR Racute
ENCODING 340
SWIDTH 843 0
DWIDTH 15 0
BBX 15 20 0 -2
BITMAP
0016AA40
00955040
03800000
0B800400
0A455900
09000000
2D155410
7D114010
7D12D110
7D12D110
7D100110
7D101404
7D100044
7D105044
7D12F844
7D12F844
7D01F804
7E55F954
7FF8FFE0
3FD0BF80
ENDCHAR
STARTCHAR racute
ENCODING 341
SWIDTH 843 0
DWIDTH 15 0
BBX 15 20 0 -2
BITMAP
0016AA40
00955040
03800000
0B800400
0A455900
09000000
2D155410
7D114010
7D12D110
7D12D110
7D100110
7D101404
7D100044
7D105044
7D12F844
7D12F844
7D01F804
7E55F954
7FF8FFE0
3FD0BF80
ENDCHAR
STARTCHAR Rcommaaccent
ENCODING 342
SWIDTH 843 0
DWIDTH 15 0
BBX 15 23 0 -9
BITMAP
01555540
1D155010
3D100010
7D12D110
7D12D110
7D114100
7D100010
7D101404
7D100044
7D12F444
7D12F844
7D01F804
7D01F804
7E54F954
7FF5ABE0
3FE85380
007C1100
00BE9100
00BC1000
00BC4400
007E9000
007F8000
00150000
ENDCHAR
STARTCHAR rcommaaccent
ENCODING 343
SWIDTH 843 0
DWIDTH 15 0
BBX 15 23 0 -9
BITMAP
01555540
1D155010
3D100010
7D12D110
7D12D110
7D114100
7D100010
7D101404
7D100044
7D12F444
7D12F844
7D01F804
7D01F804
7E54F954
7FF5ABE0
3FE85380
007C1100
00BE9100
00BC1000
00BC4400
007E9000
007F8000
00150000
ENDCHAR
STARTCHAR Rcaron
ENCODING 344
SWIDTH 843 0
DWIDTH 15 0
BBX 15 21 0 -2
BITMAP
00640100
01C15040
07C05040
0BD00040
0BF91A00
07AAA900
09000040
2D155410
7D114010
7D12D110
7D12D110
7D100110
7D101404
7D100044
7D105044
7D12F844
7D12F844
7D01F804
7E55F954
7FF8FFE0
3FD0BF80
ENDCHAR
STARTCHAR rcaron
ENCODING 345
SWIDTH 843 0
DWIDTH 15 0
BBX 15 21 0 -2
BITMAP
00640100
01C15040
07C05040
0BD00040
0BF91A00
07AAA900
09000040
2D155410
7D114010
7D12D110
7D12D110
7D100110
7D101404
7D100044
7D105044
7D12F844
7D12F844
7D01F804
7E55F954
7FF8FFE0
3FD0BF80
ENDCHAR
STARTCHAR Sacute
ENCODING 346
SWIDTH 750 0
DWIDTH 14 0
BBX 14 21 0 -2
BITMAP
00000500
006BFA00
02955000
0B400000
1F400100
1F805540
0E000040
09055040
2C100040
7C02FE00
7C005900
BC000040
BE000000
7F900010
3FFF8010
09554410
1C155000
7C000040
BD555500
BFFFF800
7FFF9000
ENDCHAR
STARTCHAR sacute
ENCODING 347
SWIDTH 750 0
DWIDTH 14 0
BBX 14 21 0 -2
BITMAP
00000500
006BFA00
02955000
0B400000
1F400100
1F805540
0E000040
09055040
2C100040
7C02FE00
7C005900
BC000040
BE000000
7F900010
3FFF8010
09554410
1C155000
7C000040
BD555500
BFFFF800
7FFF9000
ENDCHAR
STARTCHAR Scircumflex
ENCODING 348
SWIDTH 750 0
DWIDTH 14 0
BBX 14 21 0 -2
BITMAP
00014000
00100500
02054100
0B000100
1F5BE500
1F955540
1E000040
09055040
2C100040
7C02FE00
7C005900
BC000040
BE000000
7F900010
3FFF8010
09554410
1C155000
7C000040
BD555500
BFFFF800
7FFF9000
ENDCHAR
STARTCHAR scircumflex
ENCODING 349
SWIDTH 750 0
DWIDTH 14 0
BBX 14 21 0 -2
BITMAP
00014000
00100500
02054100
0B000100
1F5BE500
1F955540
1E000040
09055040
2C100040
7C02FE00
7C005900
BC000040
BE000000
7F900010
3FFF8010
09554410
1C155000
7C000040
BD555500
BFFFF800
7FFF9000
ENDCHAR
STARTCHAR Scedilla
ENCODING 350
SWIDTH 750 0
DWIDTH 14 0
BBX 14 19 0 -5
BITMAP
00555540
01000040
0D055040
2C100040
7C02FE00
BC005800
BC000040
BE000000
7F900010
3FFF8010
09554410
1C155040
7C000040
BE511A00
BFE02400
7FD01000
02FF4000
03FD0000
01500000
ENDCHAR
STARTCHAR scedilla
ENCODING 351
SWIDTH 750 0
DWIDTH 14 0
BBX 14 19 0 -5
BITMAP
00555540
01000040
0D055040
2C100040
7C02FE00
BC005800
BC000040
BE000000
7F900010
3FFF8010
09554410
1C155040
7C000040
BE511A00
BFE02400
7FD01000
02FF4000
03FD0000
01500000
ENDCHAR
STARTCHAR Scaron
ENCODING 352
SWIDTH 750 0
DWIDTH 14 0
BBX 14 21 0 -2
BITMAP
01A40100
07455000
0F414000
1F800000
1FF81400
0F955540
01000040
09055040
2C100040
7C02FE00
7C005900
BC000040
BE000000
7F900010
3FFF8010
09554410
1C155000
7C000040
BD555500
BFFFF800
7FFF9000
ENDCHAR
STARTCHAR scaron
ENCODING 353
SWIDTH 750 0
DWIDTH 14 0
BBX 14 21 0 -2
BITMAP
01A40100
07455000
0F414000
1F800000
1FF81400
0F955540
01000040
09055040
2C100040
7C02FE00
7C005900
BC000040
BE000000
7F900010
3FFF8010
09554410
1C155000
7C000040
BD555500
BFFFF800
7FFF9000
ENDCHAR
STARTCHAR Tcommaaccent
ENCODING 354
SWIDTH 756 0
DWIDTH 14 0
BBX 14 23 0 -9
BITMAP
05555550
28155410
B8000010
F9500550
FFF00F40
BFF00D00
02F00400
02F00400
02F00400
02F00400
02F00400
02F00400
02F00400
02FEA000
02F00400
01F14400
01F00400
02FA4000
02F04000
02F10000
01FA4000
01FE0000
00540000
ENDCHAR
STARTCHAR tcommaaccent
ENCODING 355
SWIDTH 756 0
DWIDTH 14 0
BBX 14 23 0 -9
BITMAP
05555550
28155410
B8000010
F9500550
FFF00F40
BFF00D00
02F00400
02F00400
02F00400
02F00400
02F00400
02F00400
02F00400
02FEA000
02F00400
01F14400
01F00400
02FA4000
02F04000
02F10000
01FA4000
01FE0000
00540000
ENDCHAR
STARTCHAR Tcaron
ENCODING 356
SWIDTH 756 0
DWIDTH 14 0
BBX 14 21 0 -2
BITMAP
01A00500
07455100
1F414100
1F400000
1FF41400
09555550
28000010
B8155410
F8000010
FFF00F80
FFF00E00
16F00400
02F00400
02F00400
02F00400
02F00400
02F00400
02F00400
02F55000
02FFD000
01FF0000
ENDCHAR
STARTCHAR tcaron
ENCODING 357
SWIDTH 756 0
DWIDTH 14 0
BBX 14 21 0 -2
BITMAP
01A00500
07455100
1F414100
1F400000
1FF41400
09555550
28000010
B8155410
F8000010
FFF00F80
FFF00E00
16F00400
02F00400
02F00400
02F00400
02F00400
02F00400
02F00400
02F55000
02FFD000
01FF0000
ENDCHAR
STARTCHAR Tbar
ENCODING 358
SWIDTH 756 0
DWIDTH 14 0
BBX 14 16 0 -2
BITMAP
05555550
28000010
B8155410
F8000000
FEA00A80
FFF00E00
56A00900
06055040
1F000040
2FA00A00
2FF00800
1BF00400
02F00400
02F55000
02FFD000
01FF0000
ENDCHAR
STARTCHAR tbar
ENCODING 359
SWIDTH 756 0
DWIDTH 14 0
BBX 14 16 0 -2
BITMAP
05555550
28000010
B8155410
F8000000
FEA00A80
FFF00E00
56A00900
06055040
1F000040
2FA00A00
2FF00800
1BF00400
02F00400
02F55000
02FFD000
01FF0000
ENDCHAR
STARTCHAR Utilde
ENCODING 360
SWIDTH 846 0
DWIDTH 15 0
BBX 15 21 0 -2
BITMAP
00055140
00400040
01C14040
07C00400
0BD54000
0956F954
1D01F404
7D11F444
7D11F444
7D11F444
7D11F444
7D11F444
7D11F444
7D11F444
7D11A044
7D100104
7D015404
3F400010
3FE55640
1FFFFD00
02BFE400
ENDCHAR
STARTCHAR utilde
ENCODING 361
SWIDTH 846 0
DWIDTH 15 0
BBX 15 21 0 -2
BITMAP
00055140
00400040
01C14040
07C00400
0BD54000
0956F954
1D01F404
7D11F444
7D11F444
7D11F444
7D11F444
7D11F444
7D11F444
7D11F444
7D11A044
7D100104
7D015404
3F400010
3FE55640
1FFFFD00
02BFE400
ENDCHAR
STARTCHAR Umacron
ENCODING 362
SWIDTH 846 0
DWIDTH 15 0
BBX 15 20 0 -2
BITMAP
00155500
00815440
03C00040
07C00000
0BABFEA4
0902F404
2D01B404
7D11F444
7D11F444
7D11F444
7D11F444
7D11F444
7D11F444
7D11A044
7D100104
7D015404
3F400010
3FE55640
1FFFFD00
02BFE400
ENDCHAR
STARTCHAR umacron
ENCODING 363
SWIDTH 846 0
DWIDTH 15 0
BBX 15 20 0 -2
BITMAP
00155500
00815440
03C00040
07C00000
0BABFEA4
0902F404
2D01B404
7D11F444
7D11F444
7D11F444
7D11F444
7D11F444
7D11F444
7D11A044
7D100104
7D015404
3F400010
3FE55640
1FFFFD00
02BFE400
ENDCHAR
STARTCHAR Ubreve
ENCODING 364
SWIDTH 846 0
DWIDTH 15 0
BBX 15 21 0 -2
BITMAP
00151540
01806040
07C40000
0BC15400
0BF40000
0556F954
1D02F404
3D01B404
7D11F444
7D11F444
7D11F444
7D11F444
7D11F444
7D11F444
7D11A044
7D100004
7D015404
3F400010
3FE55640
1FFFFD00
02BFE400
ENDCHAR
STARTCHAR ubreve
ENCODING 365
SWIDTH 846 0
DWIDTH 15 0
BBX 15 21 0 -2
BITMAP
00151540
01806040
07C40000
0BC15400
0BF40000
0556F954
1D02F404
3D01B404
7D11F444
7D11F444
7D11F444
7D11F444
7D11F444
7D11F444
7D11A044
7D100004
7D015404
3F400010
3FE55640
1FFFFD00
02BFE400
ENDCHAR
STARTCHAR Uring
ENCODING 366
SWIDTH 846 0
DWIDTH 15 0
BBX 15 24 0 -2
BITMAP
00055400
00115440
00C44040
03C5E140
0BC4E140
0BC40000
0BC15400
0BF40000
0556F954
1D02B404
3D11F444
7D11F444
7D11F444
7D11F444
7D11F444
7D11F444
7D11F444
7D11F444
7D11A104
7D015404
3F400010
3FE55640
1FFFFD00
02BFE400
ENDCHAR
STARTCHAR uring
ENCODING 367
SWIDTH 846 0
DWIDTH 15 0
BBX 15 24 0 -2
BITMAP
00055400
00115440
00C44040
03C5E140
0BC4E140
0BC40000
0BC15400
0BF40000
0556F954
1D02B404
3D11F444
7D11F444
7D11F444
7D11F444
7D11F444
7D11F444
7D11F444
7D11F444
7D11A104
7D015404
3F400010
3FE55640
1FFFFD00
02BFE400
ENDCHAR
STARTCHAR Uhungarumlaut
ENCODING 368
SWIDTH 846 0
DWIDTH 15 0
BBX 15 23 0 -2
BITMAP
00054550
00201410
00A07400
02D07100
02D4B100
03C0A000
07C0E000
07ABFEA4
0902F404
2D01B404
7D11F444
7D11F444
7D11F444
7D11F444
7D11F444
7D11F444
7D11A044
7D100104
7D015404
3F400010
3FE55640
1FFFFD00
02BFE400
ENDCHAR
STARTCHAR uhungarumlaut
ENCODING 369
SWIDTH 846 0
DWIDTH 15 0
BBX 15 23 0 -2
BITMAP
00054550
00201410
00A07400
02D07100
02D4B100
03C0A000
07C0E000
07ABFEA4
0902F404
2D01B404
7D11F444
7D11F444
7D11F444
7D11F444
7D11F444
7D11F444
7D11A044
7D100104
7D015404
3F400010
3FE55640
1FFFFD00
02BFE400
ENDCHAR
STARTCHAR Uogonek
ENCODING 370
SWIDTH 846 0
DWIDTH 15 0
BBX 15 20 0 -6
BITMAP
05550554
1D013404
3D11F444
7D11F444
7D11F444
7D11F444
7D11F444
7D11F444
7D11F444
7D11F444
7D11A040
7D000100
3E015400
3F904140
1FFC4A00
06FC4100
007D0100
007FF800
007FE000
00054000
ENDCHAR
STARTCHAR uogonek
ENCODING 371
SWIDTH 846 0
DWIDTH 15 0
BBX 15 20 0 -6
BITMAP
05550554
1D013404
3D11F444
7D11F444
7D11F444
7D11F444
7D11F444
7D11F444
7D11F444
7D11F444
7D11A040
7D000100
3E015400
3F904140
1FFC4A00
06FC4100
007D0100
007FF800
007FE000
00054000
ENDCHAR
STARTCHAR Wcircumflex
ENCODING 372
SWIDTH 931 0
DWIDTH 17 0
BBX 16 21 0 -2
BITMAP
00005400
00050140
00605410
01E00010
02F6FE40
0557FF55
1C011F00
7C111F00
7C112F00
7C115B00
7C120300
7C120200
7C101000
7C104410
7D111110
7D113011
7E047441
3F00B800
2F95FD54
1FFDFFE0
0BF4BF80
ENDCHAR
STARTCHAR wcircumflex
ENCODING 373
SWIDTH 931 0
DWIDTH 17 0
BBX 16 21 0 -2
BITMAP
00005400
00050140
00605410
01E00010
02F6FE40
0557FF55
1C011F00
7C111F00
7C112F00
7C115B00
7C120300
7C120200
7C101000
7C104410
7D111110
7D113011
7E047441
3F00B800
2F95FD54
1FFDFFE0
0BF4BF80
ENDCHAR
STARTCHAR Ycircumflex
ENCODING 374
SWIDTH 805 0
DWIDTH 14 0
BBX 14 21 0 -2
BITMAP
00015000
00140500
01815040
07800040
0F9AE500
0D57F550
2C01F000
7C41F000
BC42F000
BC02F000
BC12E100
BD008010
BF040000
7F804000
2FE04100
0BF44400
03F44400
01F40400
01F95400
01FFE000
00FF4000
ENDCHAR
STARTCHAR ycircumflex
ENCODING 375
SWIDTH 805 0
DWIDTH 14 0
BBX 14 21 0 -2
BITMAP
00015000
00140500
01815040
07800040
0F9AE500
0D57F550
2C01F000
7C41F000
BC42F000
BC02F000
BC12E100
BD008010
BF040000
7F804000
2FE04100
0BF44400
03F44400
01F40400
01F95400
01FFE000
00FF4000
ENDCHAR
STARTCHAR Ydieresis
ENCODING 376
SWIDTH 805 0
DWIDTH 14 0
BBX 14 21 0 -2
BITMAP
00551500
02408040
0B40C040
1F40C000
1F41C000
1EAFFAA0
2C03F000
BC01F000
BC42F000
BC02F000
BC11D100
BD004000
BF040000
3F804000
1FE04100
0BF44400
03F44400
01F40400
01F95400
01FFE000
00FF4000
ENDCHAR
STARTCHAR Zacute
ENCODING 377
SWIDTH 760 0
DWIDTH 14 0
BBX 14 21 0 -2
BITMAP
00000500
006BFA00
02955000
0B400000
0F400100
0D105540
1D000040
3D155440
7D000440
7FFD0040
7FF80000
15604100
00810400
02040000
09000000
1C005540
7C155410
BC000010
BD555550
BFFFFF40
7FFFFD00
ENDCHAR
STARTCHAR zacute
ENCODING 378
SWIDTH 760 0
DWIDTH 14 0
BBX 14 21 0 -2
BITMAP
00000500
006BFA00
02955000
0B400000
0F400100
0D105540
1D000040
3D155440
7D000440
7FFD0040
7FF80000
15604100
00810400
02040000
09000000
1C005540
7C155410
BC000010
BD555550
BFFFFF40
7FFFFD00
ENDCHAR
STARTCHAR Zdotaccent
ENCODING 379
SWIDTH 760 0
DWIDTH 14 0
BBX 14 21 0 -2
BITMAP
00055000
00200400
01F00400
02F00400
02F00000
05555540
1D000040
3D155440
7D000440
7FFD0040
7FF80000
15604100
00810400
02040000
09000000
1C005540
7C155410
BC000010
BD555550
BFFFFF40
7FFFFD00
ENDCHAR
STARTCHAR zdotaccent
ENCODING 380
SWIDTH 760 0
DWIDTH 14 0
BBX 14 21 0 -2
BITMAP
00055000
00200400
01F00400
02F00400
02F00000
05555540
1D000040
3D155440
7D000440
7FFD0040
7FF80000
15604100
00810400
02040000
09000000
1C005540
7C155410
BC000010
BD555550
BFFFFF40
7FFFFD00
ENDCHAR
STARTCHAR Zcaron
ENCODING 381
SWIDTH 760 0
DWIDTH 14 0
BBX 14 21 0 -2
BITMAP
01A40500
07455100
0F414100
1F400000
1FF41400
0D555540
0D000040
3D155440
7D000440
7FFD0040
7FF80000
15604100
00810400
02040000
09000000
1C005540
7C155410
BC000010
BD555550
BFFFFF40
7FFFFD00
ENDCHAR
STARTCHAR zcaron
ENCODING 382
SWIDTH 760 0
DWIDTH 14 0
BBX 14 21 0 -2
BITMAP
01A40500
07455100
0F414100
1F400000
1FF41400
0D555540
0D000040
3D155440
7D000440
7FFD0040
7FF80000
15604100
00810400
02040000
09000000
1C005540
7C155410
BC000010
BD555550
BFFFFF40
7FFFFD00
ENDCHAR
STARTCHAR Schwa
ENCODING 399
SWIDTH 815 0
DWIDTH 15 0
BBX 15 16 0 -2
BITMAP
00555540
07455410
0F400110
0FEAA000
0FFFF004
0C000004
2C155504
7C000004
7C02A004
7C02F004
7C100100
7D055400
7F000010
7FE55640
2FFFFD00
06FFA000
ENDCHAR
STARTCHAR florin
ENCODING 402
SWIDTH 674 0
DWIDTH 12 0
BBX 12 16 0 -2
BITMAP
000555
001001
00A051
02D100
03D118
068115
2C0101
7C1541
BD0101
BFC128
6D4010
2C1410
BC0040
BD5500
BFF800
7F9000
ENDCHAR
STARTCHAR Ohorn
ENCODING 416
SWIDTH 847 0
DWIDTH 15 0
BBX 16 18 0 -2
BITMAP
00000054
00000201
00000011
01000544
09000104
2C01A044
3C12F444
7C12F444
7C11F444
7C11F444
7C11F444
7C11F004
7D100104
7D055400
7F000010
3FE55640
2FFFFD00
06FFE400
ENDCHAR
STARTCHAR ohorn
ENCODING 417
SWIDTH 847 0
DWIDTH 15 0
BBX 16 18 0 -2
BITMAP
00000054
00000201
00000011
01000544
09000104
2C01A044
3C12F444
7C12F444
7C11F444
7C11F444
7C11F444
7C11F004
7D100104
7D055400
7F000010
3FE55640
2FFFFD00
06FFE400
ENDCHAR
STARTCHAR Uhorn
ENCODING 431
SWIDTH 856 0
DWIDTH 15 0
BBX 16 18 0 -2
BITMAP
00000054
00000241
05551511
1D017451
7D11F444
7D11F444
7D11F444
7D11F444
7D11F444
7D11F444
7D11F444
7D11A044
7D100104
7D015404
7F400010
3FE55640
1FFFFD00
06FFE400
ENDCHAR
STARTCHAR uhorn
ENCODING 432
SWIDTH 856 0
DWIDTH 15 0
BBX 16 18 0 -2
BITMAP
00000054
00000241
05551511
1D017451
7D11F444
7D11F444
7D11F444
7D11F444
7D11F444
7D11F444
7D11F444
7D11A044
7D100104
7D015404
7F400010
3FE55640
1FFFFD00
06FFE400
ENDCHAR
STARTCHAR Acaron
ENCODING 461
SWIDTH 830 0
DWIDTH 15 0
BBX 15 21 0 -2
BITMAP
00A40100
02C15040
07C05000
0BC00000
0BF91900
07E55500
01C00040
02815040
07400000
0B00D010
0E01E010
1D02F000
2C000004
3C155544
7C000044
7C015044
7C03F444
7C03F404
7D55F554
7FF5FFD0
7F81FF40
ENDCHAR
STARTCHAR acaron
ENCODING 462
SWIDTH 830 0
DWIDTH 15 0
BBX 15 21 0 -2
BITMAP
00A40100
02C15040
07C05000
0BC00000
0BF91900
07E55500
01C00040
02815040
07400000
0B00D010
0E01E010
1D02F000
2C000004
3C155544
7C000044
7C015044
7C03F444
7C03F404
7D55F554
7FF5FFD0
7F81FF40
ENDCHAR
STARTCHAR Icaron
ENCODING 463
SWIDTH 705 0
DWIDTH 13 0
BBX 13 21 0 -2
BITMAP
02900400
0A054100
2E014100
2F000000
2FE46000
2D555500
1C000040
7C155040
7C010000
7E911900
7FD11400
1BD11000
03D11000
03D11000
03D11000
02910500
1C155000
7C000040
7D555500
7FFFFD00
7FFFE000
ENDCHAR
STARTCHAR icaron
ENCODING 464
SWIDTH 705 0
DWIDTH 13 0
BBX 13 21 0 -2
BITMAP
02900400
0A054100
2E014100
2F000000
2FE46000
2D555500
1C000040
7C155040
7C010000
7E911900
7FD11400
1BD11000
03D11000
03D11000
03D11000
02910500
1C155000
7C000040
7D555500
7FFFFD00
7FFFE000
ENDCHAR
STARTCHAR Ocaron
ENCODING 465
SWIDTH 837 0
DWIDTH 15 0
BBX 15 22 0 -2
BITMAP
00100100
00401040
02C00040
07C15040
0BE00100
0BFD1900
06E55540
02055410
09100104
2D11A044
7C12F444
7C12F444
7C11F444
7C11F444
7C11F444
7C11F044
7D100104
7D055404
7F000010
3FE55680
1FFFFD00
02FFE400
ENDCHAR
STARTCHAR ocaron
ENCODING 466
SWIDTH 837 0
DWIDTH 15 0
BBX 15 22 0 -2
BITMAP
00100100
00401040
02C00040
07C15040
0BE00100
0BFD1900
06E55540
02055410
09100104
2D11A044
7C12F444
7C12F444
7C11F444
7C11F444
7C11F444
7C11F044
7D100104
7D055404
7F000010
3FE55680
1FFFFD00
02FFE400
ENDCHAR
STARTCHAR Ucaron
ENCODING 467
SWIDTH 846 0
DWIDTH 15 0
BBX 15 22 0 -2
BITMAP
00100100
00541040
01C00040
07C15000
07E00000
07FD1900
0556F954
1D017404
7D11F444
7D11F444
7D11F444
7D11F444
7D11F444
7D11F444
7D11F444
7D11A044
7D100104
7D015404
3F400010
3FE55640
1FFFFD00
02BFE400
ENDCHAR
STARTCHAR ucaron
ENCODING 468
SWIDTH 846 0
DWIDTH 15 0
BBX 15 22 0 -2
BITMAP
00100100
00541040
01C00040
07C15000
07E00000
07FD1900
0556F954
1D017404
7D11F444
7D11F444
7D11F444
7D11F444
7D11F444
7D11F444
7D11F444
7D11A044
7D100104
7D015404
3F400010
3FE55640
1FFFFD00
02BFE400
ENDCHAR
STARTCHAR Udieresismacron
ENCODING 469
SWIDTH 846 0
DWIDTH 15 0
BBX 15 25 0 -2
BITMAP
00155500
00800040
03C15040
0BC00040
0BEAAA40
0B809000
07809000
0F809000
0F809000
0FABFEA4
1D02F404
7D01B404
7D11F444
7D11F444
7D11F444
7D11F444
7D11F444
7D11F444
7D11A044
7D100104
7D015404
3F400010
3FE55640
1FFFFD00
02BFE400
ENDCHAR
STARTCHAR udieresismacron
ENCODING 470
SWIDTH 846 0
DWIDTH 15 0
BBX 15 25 0 -2
BITMAP
00155500
00800040
03C15040
0BC00040
0BEAAA40
0B809000
07809000
0F809000
0F809000
0FABFEA4
1D02F404
7D01B404
7D11F444
7D11F444
7D11F444
7D11F444
7D11F444
7D11F444
7D11A044
7D100104
7D015404
3F400010
3FE55640
1FFFFD00
02BFE400
ENDCHAR
STARTCHAR Udieresisacute
ENCODING 471
SWIDTH 846 0
DWIDTH 15 0
BBX 15 25 0 -2
BITMAP
00006D00
0007F900
001E4100
003D0400
00681840
01805000
0B809000
0F809000
0F809000
0FABFEA4
2D02F404
7D01B404
7D11F444
7D11F444
7D11F444
7D11F444
7D11F444
7D11F444
7D11A044
7D100104
7D015404
3F400010
3FE55640
1FFFFD00
02BFE400
ENDCHAR
STARTCHAR udieresisacute
ENCODING 472
SWIDTH 846 0
DWIDTH 15 0
BBX 15 25 0 -2
BITMAP
00006D00
0007F900
001E4100
003D0400
00681840
01805000
0B809000
0F809000
0F809000
0FABFEA4
2D02F404
7D01B404
7D11F444
7D11F444
7D11F444
7D11F444
7D11F444
7D11F444
7D11A044
7D100104
7D015404
3F400010
3FE55640
1FFFFD00
02BFE400
ENDCHAR
STARTCHAR Udieresiscaron
ENCODING 473
SWIDTH 846 0
DWIDTH 15 0
BBX 15 26 0 -2
BITMAP
00000140
00805040
02C00040
07C15040
0BF90600
07EAE940
02809000
07809000
0F809000
0F809000
0FABFEA4
2D02F404
7D01B404
7D11F444
7D11F444
7D11F444
7D11F444
7D11F444
7D11F444
7D11A044
7D100104
7D015404
3F400010
3FE55640
1FFFFD00
02BFE400
ENDCHAR
STARTCHAR udieresiscaron
ENCODING 474
SWIDTH 846 0
DWIDTH 15 0
BBX 15 26 0 -2
BITMAP
00000140
00805040
02C00040
07C15040
0BF90600
07EAE940
02809000
07809000
0F809000
0F809000
0FABFEA4
2D02F404
7D01B404
7D11F444
7D11F444
7D11F444
7D11F444
7D11F444
7D11F444
7D11A044
7D100104
7D015404
3F400010
3FE55640
1FFFFD00
02BFE400
ENDCHAR
STARTCHAR Udieresisgrave
ENCODING 475
SWIDTH 846 0
DWIDTH 15 0
BBX 15 25 0 -2
BITMAP
000B9000
002EF800
00B81400
00B80000
00A51540
01808000
0B809000
0F809000
0F809000
0FABFEA4
2D02F404
7D01B404
7D11F444
7D11F444
7D11F444
7D11F444
7D11F444
7D11F444
7D11A044
7D100104
7D015404
3F400010
3FE55640
1FFFFD00
02BFE400
ENDCHAR
STARTCHAR udieresisgrave
ENCODING 476
SWIDTH 846 0
DWIDTH 15 0
BBX 15 25 0 -2
BITMAP
000B9000
002EF800
00B81400
00B80000
00A51540
01808000
0B809000
0F809000
0F809000
0FABFEA4
2D02F404
7D01B404
7D11F444
7D11F444
7D11F444
7D11F444
7D11F444
7D11F444
7D11A044
7D100104
7D015404
3F400010
3FE55640
1FFFFD00
02BFE400
ENDCHAR
STARTCHAR Gcaron
ENCODING 486
SWIDTH 808 0
DWIDTH 15 0
BBX 14 21 0 -2
BITMAP
00A40100
02815040
0B804040
0BC00000
0BF91400
0BD55540
01000040
05055440
1C100040
3C12FF00
7C12F800
7C115550
7C116000
7C12E000
7C12E100
7C100100
7D055500
7F000000
3FE55550
1FFFFFC0
06FFFE00
ENDCHAR
STARTCHAR gcaron
ENCODING 487
SWIDTH 808 0
DWIDTH 15 0
BBX 14 21 0 -2
BITMAP
00A40100
02815040
0B804040
0BC00000
0BF91400
0BD55540
01000040
05055440
1C100040
3C12FF00
7C12F800
7C115550
7C116000
7C12E000
7C12E100
7C100100
7D055500
7F000000
3FE55550
1FFFFFC0
06FFFE00
ENDCHAR
STARTCHAR Scommaaccent
ENCODING 536
SWIDTH 750 0
DWIDTH 14 0
BBX 14 23 0 -9
BITMAP
00555540
01055040
0C100040
3C015540
7C02FD00
BC100000
BC015000
7E000400
7FE50010
2FFFC010
08000410
2C155040
7C000140
BFFEBD00
BFF00400
7FF14400
01F00400
01FE0400
01F40000
01F54000
00FA8000
01FE0000
00540000
ENDCHAR
STARTCHAR scommaaccent
ENCODING 537
SWIDTH 750 0
DWIDTH 14 0
BBX 14 23 0 -9
BITMAP
00555540
01055040
0C100040
3C015540
7C02FD00
BC100000
BC015000
7E000400
7FE50010
2FFFC010
08000410
2C155040
7C000140
BFFEBD00
BFF00400
7FF14400
01F00400
01FE0400
01F40000
01F54000
00FA8000
01FE0000
00540000
ENDCHAR
STARTCHAR uni021A
ENCODING 538
SWIDTH 756 0
DWIDTH 14 0
BBX 14 23 0 -9
BITMAP
05555550
28155410
B8000010
F9500550
FFF00F40
BFF00D00
02F00400
02F00400
02F00400
02F00400
02F00400
02F00400
02F00400
02FEA000
02F00400
01F14400
01F00400
02FA4000
02F04000
02F10000
01FA4000
01FE0000
00540000
ENDCHAR
STARTCHAR uni021B
ENCODING 539
SWIDTH 756 0
DWIDTH 14 0
BBX 14 23 0 -9
BITMAP
05555550
28155410
B8000010
F9500550
FFF00F40
BFF00D00
02F00400
02F00400
02F00400
02F00400
02F00400
02F00400
02F00400
02FEA000
02F00400
01F14400
01F00400
02FA4000
02F04000
02F10000
01FA4000
01FE0000
00540000
ENDCHAR
STARTCHAR dotlessj
ENCODING 567
SWIDTH 788 0
DWIDTH 14 0
BBX 14 16 0 -2
BITMAP
00005550
0001D010
0007D110
0007D110
0007D110
0007D110
0157D110
1807D110
7807D110
B8428110
BC100410
BC055010
BE000040
7FE55500
2FFFF800
06FF9000
ENDCHAR
STARTCHAR ascript
ENCODING 593
SWIDTH 846 0
DWIDTH 15 0
BBX 15 16 0 -2
BITMAP
00155540
01055410
09100100
2D119044
3C12F044
7C12F444
7C12F444
7C12F444
7C12F444
7C11F444
7C100044
7D055504
7F000004
7FD55554
2FFFFFD0
06FFFF40
ENDCHAR
STARTCHAR schwa
ENCODING 601
SWIDTH 815 0
DWIDTH 15 0
BBX 15 16 0 -2
BITMAP
00555540
07455410
0F400110
0FEAA000
0FFFF004
0C000004
2C155504
7C000004
7C02A004
7C02F004
7C100100
7D055400
7F000010
7FE55640
2FFFFD00
06FFA000
ENDCHAR
STARTCHAR gscript
ENCODING 609
SWIDTH 815 0
DWIDTH 15 0
BBX 15 18 0 -4
BITMAP
00155500
01000010
09055400
2C100100
7C02E004
7C03F004
BC01A004
BC100004
7E055504
7F900004
3FFFF004
1BEA9004
02400100
0B455410
0F800140
0FFFFE00
0FFFF400
01550000
ENDCHAR
STARTCHAR commaturnedmod
ENCODING 699
SWIDTH 600 0
DWIDTH 11 0
BBX 7 9 2 5
BITMAP
0154
1844
7964
B504
F444
F804
FFF4
FF80
1500
ENDCHAR
STARTCHAR apostrophemod
ENCODING 700
SWIDTH 600 0
DWIDTH 11 0
BBX 7 9 2 6
BITMAP
0554
2444
B814
FE54
F810
F840
BE90
BF40
5400
ENDCHAR
STARTCHAR ringhalfright
ENCODING 702
SWIDTH 412 0
DWIDTH 7 0
BBX 8 9 0 5
BITMAP
0554
3850
BE51
FF51
6811
2800
B954
FFD0
BF40
ENDCHAR
STARTCHAR ringhalfleft
ENCODING 703
SWIDTH 412 0
DWIDTH 7 0
BBX 8 9 0 5
BITMAP
0154
0841
7844
B864
F854
F841
FE54
BFF4
7FD0
ENDCHAR
STARTCHAR circumflex
ENCODING 710
SWIDTH 600 0
DWIDTH 11 0
BBX 11 7 0 12
BITMAP
001500
014050
081504
780004
BC6E44
BFFFE0
B96B80
ENDCHAR
STARTCHAR caron
ENCODING 711
SWIDTH 600 0
DWIDTH 11 0
BBX 11 7 0 12
BITMAP
010010
181504
780004
BC1500
BF9190
7FFF40
06E400
ENDCHAR
STARTCHAR verticallinemod
ENCODING 712
SWIDTH 456 0
DWIDTH 8 0
BBX 8 10 0 4
BITMAP
0555
1D01
7D11
7D11
7D11
7D01
7D01
7FF8
7FE0
1540
ENDCHAR
STARTCHAR firsttonechinese
ENCODING 713
SWIDTH 600 0
DWIDTH 11 0
BBX 11 7 0 11
BITMAP
015550
180004
781504
BC0004
BFFFE0
BFFF80
155500
ENDCHAR
STARTCHAR secondtonechinese
ENCODING 714
SWIDTH 600 0
DWIDTH 11 0
BBX 11 7 0 11
BITMAP
000150
055004
181504
780054
BEAFD0
BFFE40
654000
ENDCHAR
STARTCHAR fourthtonechinese
ENCODING 715
SWIDTH 600 0
DWIDTH 11 0
BBX 11 7 0 11
BITMAP
015000
180150
781504
BD4004
BFFEA0
7FFFD0
005600
ENDCHAR
STARTCHAR verticallinelowmod
ENCODING 716
SWIDTH 456 0
DWIDTH 8 0
BBX 8 10 0 -5
BITMAP
0555
1D01
7D11
7D11
7D11
7D01
7D01
7FF8
7FE0
1540
ENDCHAR
STARTCHAR breve
ENCODING 728
SWIDTH 600 0
DWIDTH 11 0
BBX 11 7 0 12
BITMAP
055150
181A04
784004
FC1500
BE4040
BFFF40
1BF900
ENDCHAR
STARTCHAR dotaccent
ENCODING 729
SWIDTH 600 0
DWIDTH 11 0
BBX 7 7 2 11
BITMAP
0550
2804
B804
F804
FFF4
FF80
1500
ENDCHAR
STARTCHAR ring
ENCODING 730
SWIDTH 600 0
DWIDTH 11 0
BBX 11 10 0 12
BITMAP
005540
010010
181504
785E04
B85E04
F84404
FC1500
BE4040
BFFF40
1BF900
ENDCHAR
STARTCHAR ogonek
ENCODING 731
SWIDTH 600 0
DWIDTH 11 0
BBX 8 8 2 -6
BITMAP
0550
1850
7844
B841
FD01
FFF8
BFD0
0500
ENDCHAR
STARTCHAR tilde
ENCODING 732
SWIDTH 600 0
DWIDTH 11 0
BBX 11 5 0 12
BITMAP
080004
781504
BC5410
BFFFD0
AABE00
ENDCHAR
STARTCHAR hungarumlaut
ENCODING 733
SWIDTH 600 0
DWIDTH 11 0
BBX 12 9 -1 11
BITMAP
005415
020181
0E0341
2D0711
2D0B01
3C0E04
7FFFF4
7F6FC0
140500
ENDCHAR
STARTCHAR gravecmb
ENCODING 768
SWIDTH 100 0
DWIDTH 2 0
BBX 11 7 -5 11
BITMAP
015000
090054
2D1544
7E4004
7FFFA4
2FFFE0
005640
ENDCHAR
STARTCHAR acutecmb
ENCODING 769
SWIDTH 100 0
DWIDTH 2 0
BBX 11 7 -5 11
BITMAP
000054
015004
091544
3D0014
7EAFE0
7FFF80
254000
ENDCHAR
STARTCHAR circumflexcmb
ENCODING 770
SWIDTH 100 0
DWIDTH 2 0
BBX 11 7 -5 12
BITMAP
000500
014014
050544
2D0004
7D6B94
7FFFF4
7A5BC0
ENDCHAR
STARTCHAR tildecmb
ENCODING 771
SWIDTH 100 0
DWIDTH 2 0
BBX 11 6 -5 12
BITMAP
000004
050004
2D0544
7D5404
7FFFE0
3ABF40
ENDCHAR
STARTCHAR uni0304
ENCODING 772
SWIDTH 600 0
DWIDTH 11 0
BBX 11 7 0 11
BITMAP
015550
180004
781504
BC0004
BFFFE0
BFFF80
155500
ENDCHAR
STARTCHAR brevecmb
ENCODING 774
SWIDTH 100 0
DWIDTH 2 0
BBX 11 7 -5 12
BITMAP
015054
090700
3D4010
7D1540
7F4010
3FFF80
1BF900
ENDCHAR
STARTCHAR dotaccentcmb
ENCODING 775
SWIDTH 100 0
DWIDTH 2 0
BBX 8 7 -3 11
BITMAP
0154
1C01
7C01
7C01
BFF8
7FD0
1500
ENDCHAR
STARTCHAR dieresiscmb
ENCODING 776
SWIDTH 100 0
DWIDTH 2 0
BBX 12 7 -5 11
BITMAP
015154
180601
7C0601
BC0601
BFFFF8
BFBFE0
150540
ENDCHAR
STARTCHAR hookcmb
ENCODING 777
SWIDTH 100 0
DWIDTH 2 0
BBX 9 8 -3 12
BITMAP
015500
1C5400
7E9100
BF4040
6F0100
2FAD00
2FF000
194000
ENDCHAR
STARTCHAR ringcmb
ENCODING 778
SWIDTH 100 0
DWIDTH 2 0
BBX 11 10 -5 12
BITMAP
001550
010004
091540
2C4B10
7C4F10
7D4010
7D1540
7F4010
3FFF80
1BF900
ENDCHAR
STARTCHAR hungarumlautcmb
ENCODING 779
SWIDTH 100 0
DWIDTH 2 0
BBX 12 9 -5 11
BITMAP
005415
020180
0B0381
1E1741
2D0701
2D0B00
3FFFF4
7FAFD0
150500
ENDCHAR
STARTCHAR caroncmb
ENCODING 780
SWIDTH 100 0
DWIDTH 2 0
BBX 11 7 -5 12
BITMAP
014004
091544
2D0004
7E0504
7FD060
3FFF80
06E400
ENDCHAR
STARTCHAR horncmb
ENCODING 795
SWIDTH 100 0
DWIDTH 2 0
BBX 7 7 -3 9
BITMAP
0154
0A04
2C04
7C44
BD50
BF80
B900
ENDCHAR
STARTCHAR dotbelowcmb
ENCODING 803
SWIDTH 100 0
DWIDTH 2 0
BBX 8 7 -3 -8
BITMAP
0154
1C01
7C01
7C01
BFF8
7FD0
1500
ENDCHAR
STARTCHAR dieresisbelowcmb
ENCODING 804
SWIDTH 100 0
DWIDTH 2 0
BBX 12 7 -5 -7
BITMAP
015154
180601
7C0601
BC0601
BFFFF8
BFBFE0
150540
ENDCHAR
STARTCHAR commaaccent
ENCODING 806
SWIDTH 600 0
DWIDTH 11 0
BBX 7 9 2 -9
BITMAP
0554
2444
B814
FE54
F810
F840
BE90
BF40
5400
ENDCHAR
STARTCHAR cedillacmb
ENCODING 807
SWIDTH 100 0
DWIDTH 2 0
BBX 8 7 -3 -5
BITMAP
0200
0E11
2C00
3804
7954
BFD0
FF40
ENDCHAR
STARTCHAR ogonekcmb
ENCODING 808
SWIDTH 100 0
DWIDTH 2 0
BBX 7 8 -2 -6
BITMAP
0550
2850
B814
F440
F804
FFF4
BFD0
0500
ENDCHAR
STARTCHAR brevebelowcmb
ENCODING 814
SWIDTH 100 0
DWIDTH 2 0
BBX 11 7 -5 -7
BITMAP
015054
090700
3D4010
7D1540
7F4010
3FFF80
1BF900
ENDCHAR
STARTCHAR macronbelowcmb
ENCODING 817
SWIDTH 100 0
DWIDTH 2 0
BBX 11 7 -5 -7
BITMAP
015554
090004
2D1540
7D0004
7FFFF4
3FFFC0
155500
ENDCHAR
STARTCHAR uni0394
ENCODING 916
SWIDTH 830 0
DWIDTH 15 0
BBX 15 15 0 -2
BITMAP
00500100
01C15040
07840440
0B444400
0F40D010
0F11D110
1E11E110
2D12F100
3D13F004
3C12A044
7C100044
7C155504
7C000004
7FFFFFE0
7FFFFF40
ENDCHAR
STARTCHAR uni03A9
ENCODING 937
SWIDTH 877 0
DWIDTH 16 0
BBX 16 16 0 -2
BITMAP
00015400
00500050
01015404
0A000004
2D10A444
3D11F844
3D11F844
3D11F844
3D11F844
3E11F844
3E10F444
38046101
78146141
B800A001
BFFFFFF8
BFFBFFE0
ENDCHAR
STARTCHAR uni03BC
ENCODING 956
SWIDTH 813 0
DWIDTH 15 0
BBX 14 16 0 -4
BITMAP
01540550
09012000
2D01B000
7D12F100
7D12F100
7D12F100
7D12F100
7D12E100
7D100100
7D115400
7D100000
7D100000
7D02FD00
7FABA000
7FE00000
15400000
ENDCHAR
STARTCHAR pi
ENCODING 960
SWIDTH 821 0
DWIDTH 15 0
BBX 14 13 0 -2
BITMAP
01555550
09000000
2D155500
7D100100
7D12E100
7D12F100
7D12F100
7D12F100
7D12F100
7D02F000
7D02F000
7FFAFFD0
7FD2FF40
ENDCHAR
STARTCHAR Ddotbelow
ENCODING 7692
SWIDTH 846 0
DWIDTH 15 0
BBX 15 21 0 -7
BITMAP
01555540
1D000010
3D155504
7D100004
7D11A044
7D12F444
7D12F444
7D11F444
7D11F444
7D11F444
7D11A004
7D155500
7D000000
7D000040
7FFEAF40
3FF80400
00784000
00B80400
00BFF400
00BFD000
00150000
ENDCHAR
STARTCHAR ddotbelow
ENCODING 7693
SWIDTH 846 0
DWIDTH 15 0
BBX 15 21 0 -7
BITMAP
01555540
1D000010
3D155504
7D100004
7D11A044
7D12F444
7D12F444
7D11F444
7D11F444
7D11F444
7D11A004
7D155500
7D000000
7D000040
7FFEAF40
3FF80400
00784000
00B80400
00BFF400
00BFD000
00150000
ENDCHAR
STARTCHAR Dlinebelow
ENCODING 7694
SWIDTH 846 0
DWIDTH 15 0
BBX 15 21 0 -7
BITMAP
01555540
1D000010
3D155504
7D100004
7D11A044
7D12F444
7D12F444
7D11F444
7D11F444
7D11F444
7D11A004
7D155504
7D000000
7D000040
7FFFFF40
3FC00040
02C15040
0BC00040
0BFFFE00
0BFFF800
01555000
ENDCHAR
STARTCHAR dlinebelow
ENCODING 7695
SWIDTH 846 0
DWIDTH 15 0
BBX 15 21 0 -7
BITMAP
01555540
1D000010
3D155504
7D100004
7D11A044
7D12F444
7D12F444
7D11F444
7D11F444
7D11F444
7D11A004
7D155504
7D000000
7D000040
7FFFFF40
3FC00040
02C15040
0BC00040
0BFFFE00
0BFFF800
01555000
ENDCHAR
STARTCHAR Gmacron
ENCODING 7712
SWIDTH 808 0
DWIDTH 15 0
BBX 14 20 0 -2
BITMAP
00155540
00815440
02C00040
07D00000
07FEAA80
07400040
06055440
1D100040
3C12FF00
7C12F800
7C115550
7C116000
7C12E000
7C12E100
7C100100
7D055500
7E000000
3FD55550
1FFFFFC0
06FFFE00
ENDCHAR
STARTCHAR gmacron
ENCODING 7713
SWIDTH 808 0
DWIDTH 15 0
BBX 14 20 0 -2
BITMAP
00155540
00815440
02C00040
07D00000
07FEAA80
07400040
06055440
1D100040
3C12FF00
7C12F800
7C115550
7C116000
7C12E000
7C12E100
7C100100
7D055500
7E000000
3FD55550
1FFFFFC0
06FFFE00
ENDCHAR
STARTCHAR Hdotbelow
ENCODING 7716
SWIDTH 859 0
DWIDTH 15 0
BBX 15 21 0 -7
BITMAP
01550554
1D017404
3D11F444
7D11F444
7D11A444
7D100044
7D100044
7D155544
7D100044
7D12F444
7D12F444
7D11F444
7D01F404
7E55F954
7FF9ABE0
3FE80340
007C4000
00BC0000
00BFF400
00BFD000
00150000
ENDCHAR
STARTCHAR hdotbelow
ENCODING 7717
SWIDTH 859 0
DWIDTH 15 0
BBX 15 21 0 -7
BITMAP
01550554
1D017404
3D11F444
7D11F444
7D11A444
7D100044
7D100044
7D155544
7D100044
7D12F444
7D12F444
7D11F444
7D01F404
7E55F954
7FF9ABE0
3FE80340
007C4000
00BC0000
00BFF400
00BFD000
00150000
ENDCHAR
STARTCHAR Hbrevebelow
ENCODING 7722
SWIDTH 859 0
DWIDTH 15 0
BBX 15 21 0 -7
BITMAP
01550554
1D017404
3D11F444
7D11F444
7D11A444
7D100044
7D155544
7D100044
7D105044
7D12F444
7D12F444
7D11F444
7D01F404
7E55F954
7FE9FAA0
3FC0F040
07C40140
07D15440
07F95500
07FFF800
01BF9000
ENDCHAR
STARTCHAR hbrevebelow
ENCODING 7723
SWIDTH 859 0
DWIDTH 15 0
BBX 15 21 0 -7
BITMAP
01550554
1D017404
3D11F444
7D11F444
7D11A444
7D100044
7D155544
7D100044
7D105044
7D12F444
7D12F444
7D11F444
7D01F404
7E55F954
7FE9FAA0
3FC0F040
07C40140
07D15440
07F95500
07FFF800
01BF9000
ENDCHAR
STARTCHAR Ldotbelow
ENCODING 7734
SWIDTH 795 0
DWIDTH 14 0
BBX 14 21 0 -7
BITMAP
01550000
1D010000
3D110000
7D110000
7D110000
7D110000
7D110550
7D116010
7D11F010
7D12E110
7D100110
7D155510
7D000010
7D000000
7FFEAF80
3FF80600
00B80400
00F80400
00FFF400
00FFC000
00150000
ENDCHAR
STARTCHAR ldotbelow
ENCODING 7735
SWIDTH 795 0
DWIDTH 14 0
BBX 14 21 0 -7
BITMAP
01550000
1D010000
3D110000
7D110000
7D110000
7D110000
7D110550
7D116010
7D11F010
7D12E110
7D100110
7D155510
7D000010
7D000000
7FFEAF80
3FF80600
00B80400
00F80400
00FFF400
00FFC000
00150000
ENDCHAR
STARTCHAR Ldotbelowmacron
ENCODING 7736
SWIDTH 795 0
DWIDTH 14 0
BBX 14 25 0 -7
BITMAP
00555500
01815040
0B800040
0F800000
0FABFD00
0D02F400
3D010000
7D110000
7D110000
7D110000
7D110550
7D116010
7D11F010
7D12E110
7D100110
7D155510
7D000010
7D000000
7FFEAF80
3FF80600
00B80400
00F80400
00FFF400
00FFC000
00150000
ENDCHAR
STARTCHAR ldotbelowmacron
ENCODING 7737
SWIDTH 795 0
DWIDTH 14 0
BBX 14 25 0 -7
BITMAP
00555500
01815040
0B800040
0F800000
0FABFD00
0D02F400
3D010000
7D110000
7D110000
7D110000
7D110550
7D116010
7D11F010
7D12E110
7D100110
7D155510
7D000010
7D000000
7FFEAF80
3FF80600
00B80400
00F80400
00FFF400
00FFC000
00150000
ENDCHAR
STARTCHAR Llinebelow
ENCODING 7738
SWIDTH 795 0
DWIDTH 14 0
BBX 14 20 0 -6
BITMAP
01550000
1D010000
3D110000
7D110000
7D110000
7D110000
7D110550
7D116010
7D11F010
7D12E110
7D100110
7D155510
7D000010
7FEAAAD0
7F800040
3F815040
0B800040
0F955500
0FFFFC00
0BFFF000
ENDCHAR
STARTCHAR llinebelow
ENCODING 7739
SWIDTH 795 0
DWIDTH 14 0
BBX 14 20 0 -6
BITMAP
01550000
1D010000
3D110000
7D110000
7D110000
7D110000
7D110550
7D116010
7D11F010
7D12E110
7D100110
7D155510
7D000010
7FEAAAD0
7F800040
3F815040
0B800040
0F955500
0FFFFC00
0BFFF000
ENDCHAR
STARTCHAR Mdotbelow
ENCODING 7746
SWIDTH 949 0
DWIDTH 17 0
BBX 17 21 0 -7
BITMAP
0155015500
1D00050040
3D141C1040
7D10344040
7D11110040
7D10400040
7D10100040
7D12020040
7D12430040
7D12FF0040
7D12EF0040
7D111F0040
7D011F0040
7E551F5500
7FF55AFD00
3FD601F400
002E110000
003E010000
003FFD0000
002FF40000
0005400000
ENDCHAR
STARTCHAR mdotbelow
ENCODING 7747
SWIDTH 949 0
DWIDTH 17 0
BBX 17 21 0 -7
BITMAP
0155015500
1D00050040
3D141C1040
7D10344040
7D11110040
7D10400040
7D10100040
7D12020040
7D12430040
7D12FF0040
7D12EF0040
7D111F0040
7D011F0040
7E551F5500
7FF55AFD00
3FD601F400
002E110000
003E010000
003FFD0000
002FF40000
0005400000
ENDCHAR
STARTCHAR Ndotaccent
ENCODING 7748
SWIDTH 853 0
DWIDTH 15 0
BBX 15 21 0 -2
BITMAP
00015400
00180000
00784000
00B80000
00BC0000
0157F954
1D01F404
3D10B444
7D142444
7D110444
7D104044
7D101044
7D110044
7D128044
7D12D144
7D12F044
7D12F444
7D02F404
7E55F954
7FF4FFD0
3FD0FF40
ENDCHAR
STARTCHAR ndotaccent
ENCODING 7749
SWIDTH 853 0
DWIDTH 15 0
BBX 15 21 0 -2
BITMAP
00015400
00180000
00784000
00B80000
00BC0000
0157F954
1D01F404
3D10B444
7D142444
7D110444
7D104044
7D101044
7D110044
7D128044
7D12D144
7D12F044
7D12F444
7D02F404
7E55F954
7FF4FFD0
3FD0FF40
ENDCHAR
STARTCHAR Ndotbelow
ENCODING 7750
SWIDTH 853 0
DWIDTH 15 0
BBX 15 21 0 -7
BITMAP
01540554
1D013404
3D10B444
7D142444
7D110444
7D104044
7D101044
7D110044
7D128044
7D12D144
7D12F044
7D12F444
7D02F404
7E55F954
7FF9ABD0
3FE80340
00784000
00BC0400
00BFF400
00BFD000
00150000
ENDCHAR
STARTCHAR ndotbelow
ENCODING 7751
SWIDTH 853 0
DWIDTH 15 0
BBX 15 21 0 -7
BITMAP
01540554
1D013404
3D10B444
7D142444
7D110444
7D104044
7D101044
7D110044
7D128044
7D12D144
7D12F044
7D12F444
7D02F404
7E55F954
7FF9ABD0
3FE80340
00784000
00BC0400
00BFF400
00BFD000
00150000
ENDCHAR
STARTCHAR Nlinebelow
ENCODING 7752
SWIDTH 853 0
DWIDTH 15 0
BBX 15 20 0 -6
BITMAP
01540554
1D017404
3D10B444
7D142444
7D110444
7D104044
7D101044
7D120444
7D128044
7D12D044
7D12F444
7D12F444
7D02F404
7E01F804
7FE9AAD0
3FC15440
03C00040
07D55540
07FFFE00
07FFF800
ENDCHAR
STARTCHAR nlinebelow
ENCODING 7753
SWIDTH 853 0
DWIDTH 15 0
BBX 15 20 0 -6
BITMAP
01540554
1D017404
3D10B444
7D142444
7D110444
7D104044
7D101044
7D120444
7D128044
7D12D044
7D12F444
7D12F444
7D02F404
7E01F804
7FE9AAD0
3FC15440
03C00040
07D55540
07FFFE00
07FFF800
ENDCHAR
STARTCHAR Rdotbelow
ENCODING 7770
SWIDTH 843 0
DWIDTH 15 0
BBX 15 21 0 -7
BITMAP
01555540
1D000000
3D155410
7D114010
7D12D110
7D12D110
7D100110
7D101404
7D100044
7D105044
7D12F844
7D12F844
7D01F804
7E55F954
7FF9ABE0
3FEC0380
007C0100
00BC0100
00BFF800
007FD000
00150000
ENDCHAR
STARTCHAR rdotbelow
ENCODING 7771
SWIDTH 843 0
DWIDTH 15 0
BBX 15 21 0 -7
BITMAP
01555540
1D000000
3D155410
7D114010
7D12D110
7D12D110
7D100110
7D101404
7D100044
7D105044
7D12F844
7D12F844
7D01F804
7E55F954
7FF9ABE0
3FEC0380
007C0100
00BC0100
00BFF800
007FD000
00150000
ENDCHAR
STARTCHAR Rdotbelowmacron
ENCODING 7772
SWIDTH 843 0
DWIDTH 15 0
BBX 15 25 0 -7
BITMAP
00555500
02455100
0B400100
1F400100
1FAAA900
1D000040
2D155410
7D114010
7D12D110
7D12D110
7D100110
7D101404
7D100044
7D105044
7D12F844
7D12F844
7D01F804
7E55F954
7FF9ABE0
3FEC0380
007C0100
00BC0100
00BFF800
007FD000
00150000
ENDCHAR
STARTCHAR rdotbelowmacron
ENCODING 7773
SWIDTH 843 0
DWIDTH 15 0
BBX 15 25 0 -7
BITMAP
00555500
02455100
0B400100
1F400100
1FAAA900
1D000040
2D155410
7D114010
7D12D110
7D12D110
7D100110
7D101404
7D100044
7D105044
7D12F844
7D12F844
7D01F804
7E55F954
7FF9ABE0
3FEC0380
007C0100
00BC0100
00BFF800
007FD000
00150000
ENDCHAR
STARTCHAR Rlinebelow
ENCODING 7774
SWIDTH 843 0
DWIDTH 15 0
BBX 15 20 0 -6
BITMAP
01555540
1D155000
3D100010
7D114110
7D12D110
7D12D110
7D100010
7D101404
7D100044
7D11A444
7D12F844
7D12F844
7D01F804
7E01F804
7FE9AAE0
3FC15440
07C00040
0BD55540
0BFFFE00
07FFF400
ENDCHAR
STARTCHAR rlinebelow
ENCODING 7775
SWIDTH 843 0
DWIDTH 15 0
BBX 15 20 0 -6
BITMAP
01555540
1D155000
3D100010
7D114110
7D12D110
7D12D110
7D100010
7D101404
7D100044
7D11A444
7D12F844
7D12F844
7D01F804
7E01F804
7FE9AAE0
3FC15440
07C00040
0BD55540
0BFFFE00
07FFF400
ENDCHAR
STARTCHAR Sdotaccent
ENCODING 7776
SWIDTH 750 0
DWIDTH 14 0
BBX 14 21 0 -2
BITMAP
00055000
00200400
01F00400
02F00400
02F00000
02955540
01000040
0D055040
3C100040
7C02FE00
BC005900
BC000040
BE000000
7F900010
3FFF8010
09554410
1C155000
7C000040
BD555500
BFFFF800
7FFF9000
ENDCHAR
STARTCHAR sdotaccent
ENCODING 7777
SWIDTH 750 0
DWIDTH 14 0
BBX 14 21 0 -2
BITMAP
00055000
00200400
01F00400
02F00400
02F00000
02955540
01000040
0D055040
3C100040
7C02FE00
BC005900
BC000040
BE000000
7F900010
3FFF8010
09554410
1C155000
7C000040
BD555500
BFFFF800
7FFF9000
ENDCHAR
STARTCHAR Sdotbelow
ENCODING 7778
SWIDTH 750 0
DWIDTH 14 0
BBX 14 21 0 -7
BITMAP
00555540
01000040
0D055040
2C100040
7C02FE00
BC005900
BC000040
BE000000
7F900010
3FFF8010
09554410
1C155000
7C000000
BC000000
BFFAA800
7FF00400
01F00400
01F00400
01FFE000
01FF4000
00540000
ENDCHAR
STARTCHAR sdotbelow
ENCODING 7779
SWIDTH 750 0
DWIDTH 14 0
BBX 14 21 0 -7
BITMAP
00555540
01000040
0D055040
2C100040
7C02FE00
BC005900
BC000040
BE000000
7F900010
3FFF8010
09554410
1C155000
7C000000
BC000000
BFFAA800
7FF00400
01F00400
01F00400
01FFE000
01FF4000
00540000
ENDCHAR
STARTCHAR Tdotbelow
ENCODING 7788
SWIDTH 756 0
DWIDTH 14 0
BBX 14 21 0 -7
BITMAP
05555550
28000010
B8155410
F8000010
FFF00F80
FFF00E00
16F00400
02F00400
02F00400
02F00400
02F00400
02F00400
02F00400
02F00400
02FAA000
01F00000
01F00400
02F00400
02FFE000
02FF4000
00540000
ENDCHAR
STARTCHAR tdotbelow
ENCODING 7789
SWIDTH 756 0
DWIDTH 14 0
BBX 14 21 0 -7
BITMAP
05555550
28000010
B8155410
F8000010
FFF00F80
FFF00E00
16F00400
02F00400
02F00400
02F00400
02F00400
02F00400
02F00400
02F00400
02FAA000
01F00000
01F00400
02F00400
02FFE000
02FF4000
00540000
ENDCHAR
STARTCHAR Tlinebelow
ENCODING 7790
SWIDTH 756 0
DWIDTH 14 0
BBX 14 20 0 -6
BITMAP
05555550
28155410
B8000010
F9500550
FFF00F40
BFF00D00
02F00400
02F00400
02F00400
02F00400
02F00400
02F00400
02F00400
02F41000
02AA9500
03455100
0F400100
1F955500
1FFFF800
0FFFE000
ENDCHAR
STARTCHAR tlinebelow
ENCODING 7791
SWIDTH 756 0
DWIDTH 14 0
BBX 14 20 0 -6
BITMAP
05555550
28155410
B8000010
F9500550
FFF00F40
BFF00D00
02F00400
02F00400
02F00400
02F00400
02F00400
02F00400
02F00400
02F41000
02AA9500
03455100
0F400100
1F955500
1FFFF800
0FFFE000
ENDCHAR
STARTCHAR Wgrave
ENCODING 7808
SWIDTH 931 0
DWIDTH 17 0
BBX 16 21 0 -2
BITMAP
00050000
007BFA80
01E05590
03E00010
03E50000
0557FA15
1C01AF00
7C111F00
7C112F00
7C115B00
7C120300
7C120200
7C101000
7C104410
7D111110
7D113011
7E047441
3F00B800
2F95FD54
1FFDFFE0
0BF4BF80
ENDCHAR
STARTCHAR wgrave
ENCODING 7809
SWIDTH 931 0
DWIDTH 17 0
BBX 16 21 0 -2
BITMAP
00050000
007BFA80
01E05590
03E00010
03E50000
0557FA15
1C01AF00
7C111F00
7C112F00
7C115B00
7C120300
7C120200
7C101000
7C104410
7D111110
7D113011
7E047441
3F00B800
2F95FD54
1FFDFFE0
0BF4BF80
ENDCHAR
STARTCHAR Wacute
ENCODING 7810
SWIDTH 931 0
DWIDTH 17 0
BBX 16 21 0 -2
BITMAP
00000140
000ABFA0
00395410
01F00000
02F00010
0552BE55
1C014B00
7C111F00
7C112F00
7C115B00
7C120300
7C120200
7C101000
7C104410
7D111110
7D113011
7E047441
3F00B800
2F95FD54
1FFDFFE0
0BF4BF80
ENDCHAR
STARTCHAR wacute
ENCODING 7811
SWIDTH 931 0
DWIDTH 17 0
BBX 16 21 0 -2
BITMAP
00000140
000ABFA0
00395410
01F00000
02F00010
0552BE55
1C014B00
7C111F00
7C112F00
7C115B00
7C120300
7C120200
7C101000
7C104410
7D111110
7D113011
7E047441
3F00B800
2F95FD54
1FFDFFE0
0BF4BF80
ENDCHAR
STARTCHAR Wdieresis
ENCODING 7812
SWIDTH 931 0
DWIDTH 17 0
BBX 16 21 0 -2
BITMAP
00154540
00503010
01D03010
03D03010
07D03000
07ABFFEA
0902FF00
2C011F00
7C112F00
7C115B00
7C120300
7C120200
7C101000
7C104410
7D111110
7D113010
7E047440
3F00B800
2F95FD54
1FFDFFE0
0BF4BF80
ENDCHAR
STARTCHAR wdieresis
ENCODING 7813
SWIDTH 931 0
DWIDTH 17 0
BBX 16 21 0 -2
BITMAP
00154540
00503010
01D03010
03D03010
07D03000
07ABFFEA
0902FF00
2C011F00
7C112F00
7C115B00
7C120300
7C120200
7C101000
7C104410
7D111110
7D113010
7E047440
3F00B800
2F95FD54
1FFDFFE0
0BF4BF80
ENDCHAR
STARTCHAR Ydotaccent
ENCODING 7822
SWIDTH 805 0
DWIDTH 14 0
BBX 14 21 0 -2
BITMAP
00055000
00240400
00B44400
00F40400
00F40000
0557F550
2C03F000
7C02F000
BC42F000
BC02F000
BC11D100
BD004010
BF040000
7F814000
2FE04100
0BF44400
03F44400
01F40400
01F95400
01FFE000
00FF4000
ENDCHAR
STARTCHAR ydotaccent
ENCODING 7823
SWIDTH 805 0
DWIDTH 14 0
BBX 14 21 0 -2
BITMAP
00055000
00240400
00B44400
00F40400
00F40000
0557F550
2C03F000
7C02F000
BC42F000
BC02F000
BC11D100
BD004010
BF040000
7F814000
2FE04100
0BF44400
03F44400
01F40400
01F95400
01FFE000
00FF4000
ENDCHAR
STARTCHAR Zdotbelow
ENCODING 7826
SWIDTH 760 0
DWIDTH 14 0
BBX 14 21 0 -7
BITMAP
05555540
1D000040
3D155440
7D000440
7FFD0040
7FF80000
15604100
00810400
02440000
09000000
1C005540
7C155410
BC000010
BC000000
BFFAAF40
7FF00900
00F04400
01F40400
01FFE000
01FF8000
00550000
ENDCHAR
STARTCHAR zdotbelow
ENCODING 7827
SWIDTH 760 0
DWIDTH 14 0
BBX 14 21 0 -7
BITMAP
05555540
1D000040
3D155440
7D000440
7FFD0040
7FF80000
15604100
00810400
02440000
09000000
1C005540
7C155410
BC000010
BC000000
BFFAAF40
7FF00900
00F04400
01F40400
01FFE000
01FF8000
00550000
ENDCHAR
STARTCHAR tdieresis
ENCODING 7831
SWIDTH 756 0
DWIDTH 14 0
BBX 14 21 0 -2
BITMAP
00545500
06014040
1E024040
2E024000
2F028000
29555550
38000010
B8155410
F8000010
FFF00F80
FFF00E00
16F00400
02F00400
02F00400
02F00400
02F00400
02F00400
02F00400
02F55000
02FFD000
01FF0000
ENDCHAR
STARTCHAR Germandbls
ENCODING 7838
SWIDTH 859 0
DWIDTH 15 0
BBX 16 16 0 -2
BITMAP
01555540
1D000010
3D155410
7D100110
7D12C000
7D12C410
7D128504
7D128000
7D12E801
7D12FC01
7D128001
7D024500
7D024004
7E569550
7FFFFF80
3FDFF900
ENDCHAR
STARTCHAR Adotbelow
ENCODING 7840
SWIDTH 830 0
DWIDTH 15 0
BBX 15 21 0 -7
BITMAP
00155500
00800040
02815040
07400000
0B00D010
0E01E010
1D02F000
2C000004
3C155544
7C000044
7C015044
7C03F444
7C03F404
7D55F554
7FF9ABD0
7FA80740
00B84400
00F80400
00FFF400
00FFC000
00150000
ENDCHAR
STARTCHAR adotbelow
ENCODING 7841
SWIDTH 830 0
DWIDTH 15 0
BBX 15 21 0 -7
BITMAP
00155500
00800040
02815040
07400000
0B00D010
0E01E010
1D02F000
2C000004
3C155544
7C000044
7C015044
7C03F444
7C03F404
7D55F554
7FF9ABD0
7FA80740
00B84400
00F80400
00FFF400
00FFC000
00150000
ENDCHAR
STARTCHAR Ahookabove
ENCODING 7842
SWIDTH 830 0
DWIDTH 15 0
BBX 15 22 0 -2
BITMAP
00055400
00315000
01F94400
01FD4500
01FC5100
007EA800
00A55500
00800040
02815040
07400000
0B00D010
0E01E010
1D02F000
2C000004
3C155544
7C000044
7C015044
7C03F444
7C03F404
7D55F554
7FF5FFD0
7F81FF40
ENDCHAR
STARTCHAR ahookabove
ENCODING 7843
SWIDTH 830 0
DWIDTH 15 0
BBX 15 22 0 -2
BITMAP
00055400
00315000
01F94400
01FD4500
01FC5100
007EA800
00A55500
00800040
02815040
07400000
0B00D010
0E01E010
1D02F000
2C000004
3C155544
7C000044
7C015044
7C03F444
7C03F404
7D55F554
7FF5FFD0
7F81FF40
ENDCHAR
STARTCHAR Acircumflexacute
ENCODING 7844
SWIDTH 830 0
DWIDTH 15 0
BBX 15 25 0 -2
BITMAP
00000180
00002E50
0001D010
0003D000
00038040
00000100
00815040
02C00040
0BD6E940
0BFAAA00
0BD00040
02815040
07400000
0B00D010
0E01E010
1D02F000
2C000004
3C155544
7C000044
7C015044
7C03F444
7C03F404
7D55F554
7FF5FFD0
7F81FF40
ENDCHAR
STARTCHAR acircumflexacute
ENCODING 7845
SWIDTH 830 0
DWIDTH 15 0
BBX 15 25 0 -2
BITMAP
00000180
00002E50
0001D010
0003D000
00038040
00000100
00815040
02C00040
0BD6E940
0BFAAA00
0BD00040
02815040
07400000
0B00D010
0E01E010
1D02F000
2C000004
3C155544
7C000044
7C015044
7C03F444
7C03F404
7D55F554
7FF5FFD0
7F81FF40
ENDCHAR
STARTCHAR Acircumflexgrave
ENCODING 7846
SWIDTH 830 0
DWIDTH 15 0
BBX 15 24 0 -2
BITMAP
0000BE40
0002C580
0007C000
00078000
00000040
00815000
02C00040
0BD6E940
0BFAAA00
0BD00040
02815040
07400000
0B00D010
0E01E010
1D02F000
2C000004
3C155544
7C000044
7C015044
7C03F444
7C03F404
7D55F554
7FF5FFD0
7F81FF40
ENDCHAR
STARTCHAR acircumflexgrave
ENCODING 7847
SWIDTH 830 0
DWIDTH 15 0
BBX 15 24 0 -2
BITMAP
0000BE40
0002C580
0007C000
00078000
00000040
00815000
02C00040
0BD6E940
0BFAAA00
0BD00040
02815040
07400000
0B00D010
0E01E010
1D02F000
2C000004
3C155544
7C000044
7C015044
7C03F444
7C03F404
7D55F554
7FF5FFD0
7F81FF40
ENDCHAR
STARTCHAR Acircumflexhookabove
ENCODING 7848
SWIDTH 830 0
DWIDTH 15 0
BBX 15 26 0 -2
BITMAP
00001550
00009144
0002E510
0003F514
0003F544
0001BAA0
00140680
00815040
02C00040
0BD6E940
0BFAAA00
0BD00040
02815040
07400000
0B00D010
0E01E010
1D02F000
2C000004
3C155544
7C000044
7C015044
7C03F444
7C03F404
7D55F554
7FF5FFD0
7F81FF40
ENDCHAR
STARTCHAR acircumflexhookabove
ENCODING 7849
SWIDTH 830 0
DWIDTH 15 0
BBX 15 26 0 -2
BITMAP
00001550
00009144
0002E510
0003F514
0003F544
0001BAA0
00140680
00815040
02C00040
0BD6E940
0BFAAA00
0BD00040
02815040
07400000
0B00D010
0E01E010
1D02F000
2C000004
3C155544
7C000044
7C015044
7C03F444
7C03F404
7D55F554
7FF5FFD0
7F81FF40
ENDCHAR
STARTCHAR Acircumflextilde
ENCODING 7850
SWIDTH 830 0
DWIDTH 15 0
BBX 15 25 0 -2
BITMAP
00155540
00800040
02C15040
0BC00040
0BFFAA00
0BF40500
05815040
02C00040
0BD6E940
0BFAAA00
0BD00040
02815040
07400000
0B00D010
0E01E010
1D02F000
2C000004
3C155544
7C000044
7C015044
7C03F444
7C03F404
7D55F554
7FF5FFD0
7F81FF40
ENDCHAR
STARTCHAR acircumflextilde
ENCODING 7851
SWIDTH 830 0
DWIDTH 15 0
BBX 15 25 0 -2
BITMAP
00155540
00800040
02C15040
0BC00040
0BFFAA00
0BF40500
05815040
02C00040
0BD6E940
0BFAAA00
0BD00040
02815040
07400000
0B00D010
0E01E010
1D02F000
2C000004
3C155544
7C000044
7C015044
7C03F444
7C03F404
7D55F554
7FF5FFD0
7F81FF40
ENDCHAR
STARTCHAR Acircumflexdotbelow
ENCODING 7852
SWIDTH 830 0
DWIDTH 15 0
BBX 15 26 0 -7
BITMAP
00015000
00140100
00815040
02C00040
0BD6E940
0BFAAA00
0BD00040
02815040
07400000
0B00D010
0E01E010
1D02F000
2C000004
3C155544
7C000044
7C015044
7C03F444
7C03F404
7D55F554
7FF9ABD0
7FA80740
00B84400
00F80400
00FFF400
00FFC000
00150000
ENDCHAR
STARTCHAR acircumflexdotbelow
ENCODING 7853
SWIDTH 830 0
DWIDTH 15 0
BBX 15 26 0 -7
BITMAP
00015000
00140100
00815040
02C00040
0BD6E940
0BFAAA00
0BD00040
02815040
07400000
0B00D010
0E01E010
1D02F000
2C000004
3C155544
7C000044
7C015044
7C03F444
7C03F404
7D55F554
7FF9ABD0
7FA80740
00B84400
00F80400
00FFF400
00FFC000
00150000
ENDCHAR
STARTCHAR Abreveacute
ENCODING 7854
SWIDTH 830 0
DWIDTH 15 0
BBX 15 25 0 -2
BITMAP
00001900
0002E500
000A1100
002E0000
002A0000
0181E040
07840000
0BC15400
0BE40400
0BFAAA00
02D00040
02C15040
07400040
0B00D010
0E01E010
1D02F000
2C000004
3C155544
7C000044
7C015044
7C03F444
7C03F404
7D55F554
7FF5FFD0
7F81FF40
ENDCHAR
STARTCHAR abreveacute
ENCODING 7855
SWIDTH 830 0
DWIDTH 15 0
BBX 15 25 0 -2
BITMAP
00001900
0002E500
000A1100
002E0000
002A0000
0181E040
07840000
0BC15400
0BE40400
0BFAAA00
02D00040
02C15040
07400040
0B00D010
0E01E010
1D02F000
2C000004
3C155544
7C000044
7C015044
7C03F444
7C03F404
7D55F554
7FF5FFD0
7F81FF40
ENDCHAR
STARTCHAR Abrevegrave
ENCODING 7856
SWIDTH 830 0
DWIDTH 15 0
BBX 15 25 0 -2
BITMAP
00194000
0076E000
01F11000
02F00000
02E00500
0281A040
07840000
0BC15400
0BE40000
0BFAAA00
02D00040
02C15040
07400040
0B00D010
0E01E010
1D02F000
2C000004
3C155544
7C000044
7C015044
7C03F444
7C03F404
7D55F554
7FF5FFD0
7F81FF40
ENDCHAR
STARTCHAR abrevegrave
ENCODING 7857
SWIDTH 830 0
DWIDTH 15 0
BBX 15 25 0 -2
BITMAP
00194000
0076E000
01F11000
02F00000
02E00500
0281A040
07840000
0BC15400
0BE40000
0BFAAA00
02D00040
02C15040
07400040
0B00D010
0E01E010
1D02F000
2C000004
3C155544
7C000044
7C015044
7C03F444
7C03F404
7D55F554
7FF5FFD0
7F81FF40
ENDCHAR
STARTCHAR Abrevehookabove
ENCODING 7858
SWIDTH 830 0
DWIDTH 15 0
BBX 15 27 0 -2
BITMAP
00055400
00185100
00780400
00FE9400
00FD1400
006E0500
006AF900
0181E040
07840000
0BC15400
0BE40000
0BFAAA00
02D00040
02C15040
07400040
0B00D010
0E01E010
1D02F000
2C000004
3C155544
7C000044
7C015044
7C03F444
7C03F404
7D55F554
7FF5FFD0
7F81FF40
ENDCHAR
STARTCHAR abrevehookabove
ENCODING 7859
SWIDTH 830 0
DWIDTH 15 0
BBX 15 27 0 -2
BITMAP
00055400
00185100
00780400
00FE9400
00FD1400
006E0500
006AF900
0181E040
07840000
0BC15400
0BE40000
0BFAAA00
02D00040
02C15040
07400040
0B00D010
0E01E010
1D02F000
2C000004
3C155544
7C000044
7C015044
7C03F444
7C03F404
7D55F554
7FF5FFD0
7F81FF40
ENDCHAR
STARTCHAR Abrevetilde
ENCODING 7860
SWIDTH 830 0
DWIDTH 15 0
BBX 15 25 0 -2
BITMAP
00100000
00800040
03C01040
0BD55140
0BEAF900
0B81E040
07840000
0BC15400
0BE40400
0BFAAA00
02D00040
02C15040
07400040
0B00D010
0E01E010
1D02F000
2C000004
3C155544
7C000044
7C015044
7C03F444
7C03F404
7D55F554
7FF5FFD0
7F81FF40
ENDCHAR
STARTCHAR abrevetilde
ENCODING 7861
SWIDTH 830 0
DWIDTH 15 0
BBX 15 25 0 -2
BITMAP
00100000
00800040
03C01040
0BD55140
0BEAF900
0B81E040
07840000
0BC15400
0BE40400
0BFAAA00
02D00040
02C15040
07400040
0B00D010
0E01E010
1D02F000
2C000004
3C155544
7C000044
7C015044
7C03F444
7C03F404
7D55F554
7FF5FFD0
7F81FF40
ENDCHAR
STARTCHAR Abrevedotbelow
ENCODING 7862
SWIDTH 830 0
DWIDTH 15 0
BBX 15 26 0 -7
BITMAP
00151500
01816040
07840000
0BC15400
0BE40000
0BFAAA00
02D00040
02C15040
07400040
0B00D010
0E01E010
1D02F000
2C000004
3C155544
7C000044
7C015044
7C03F444
7C03F404
7D55F554
7FF9ABD0
7FA80740
00B84400
00F80400
00FFF400
00FFC000
00150000
ENDCHAR
STARTCHAR abrevedotbelow
ENCODING 7863
SWIDTH 830 0
DWIDTH 15 0
BBX 15 26 0 -7
BITMAP
00151500
01816040
07840000
0BC15400
0BE40000
0BFAAA00
02D00040
02C15040
07400040
0B00D010
0E01E010
1D02F000
2C000004
3C155544
7C000044
7C015044
7C03F444
7C03F404
7D55F554
7FF9ABD0
7FA80740
00B84400
00F80400
00FFF400
00FFC000
00150000
ENDCHAR
STARTCHAR Edotbelow
ENCODING 7864
SWIDTH 754 0
DWIDTH 14 0
BBX 13 21 0 -7
BITMAP
01555540
1D000000
3D155400
7D100040
7D12FF40
7D115500
7D154100
7D100100
7D115500
7D12F800
7D11A540
7D155400
7D000000
7D000000
7FFAAF40
3FF00900
00F04400
01F40400
01FFE000
01FF8000
00550000
ENDCHAR
STARTCHAR edotbelow
ENCODING 7865
SWIDTH 754 0
DWIDTH 14 0
BBX 13 21 0 -7
BITMAP
01555540
1D000000
3D155400
7D100040
7D12FF40
7D115500
7D154100
7D100100
7D115500
7D12F800
7D11A540
7D155400
7D000000
7D000000
7FFAAF40
3FF00900
00F04400
01F40400
01FFE000
01FF8000
00550000
ENDCHAR
STARTCHAR Ehookabove
ENCODING 7866
SWIDTH 754 0
DWIDTH 14 0
BBX 13 22 0 -2
BITMAP
00155000
00A14400
02E55000
03F91000
02F44400
00FAA000
01555540
1D000000
3D155400
7D100040
7D12FF40
7D115500
7D154100
7D100100
7D115500
7D12F800
7D11A540
7D155400
7D000000
7E555540
7FFFFF40
3FFFF800
ENDCHAR
STARTCHAR ehookabove
ENCODING 7867
SWIDTH 754 0
DWIDTH 14 0
BBX 13 22 0 -2
BITMAP
00155000
00A14400
02E55000
03F91000
02F44400
00FAA000
01555540
1D000000
3D155400
7D100040
7D12FF40
7D115500
7D154100
7D100100
7D115500
7D12F800
7D11A540
7D155400
7D000000
7E555540
7FFFFF40
3FFFF800
ENDCHAR
STARTCHAR Etilde
ENCODING 7868
SWIDTH 754 0
DWIDTH 14 0
BBX 13 21 0 -2
BITMAP
00154500
01400000
07454000
0F401000
0F554000
0E555540
1D000000
3D155400
7D100040
7D12FF40
7D115500
7D154100
7D100100
7D115500
7D12F800
7D11A540
7D155400
7D000000
7E555540
7FFFFF40
3FFFF800
ENDCHAR
STARTCHAR etilde
ENCODING 7869
SWIDTH 754 0
DWIDTH 14 0
BBX 13 21 0 -2
BITMAP
00154500
01400000
07454000
0F401000
0F554000
0E555540
1D000000
3D155400
7D100040
7D12FF40
7D115500
7D154100
7D100100
7D115500
7D12F800
7D11A540
7D155400
7D000000
7E555540
7FFFFF40
3FFFF800
ENDCHAR
STARTCHAR Ecircumflexacute
ENCODING 7870
SWIDTH 754 0
DWIDTH 14 0
BBX 13 25 0 -2
BITMAP
00000640
00007940
0002C440
000BC000
000A4040
00000400
01415000
0B400000
0F9BE500
0E555540
1D000000
3D155400
7D100040
7D12FF40
7D115500
7D154100
7D100100
7D115500
7D12F800
7D11A540
7D155400
7D000000
7E555540
7FFFFF40
3FFFF800
ENDCHAR
STARTCHAR ecircumflexacute
ENCODING 7871
SWIDTH 754 0
DWIDTH 14 0
BBX 13 25 0 -2
BITMAP
00000640
00007940
0002C440
000BC000
000A4040
00000400
01415000
0B400000
0F9BE500
0E555540
1D000000
3D155400
7D100040
7D12FF40
7D115500
7D154100
7D100100
7D115500
7D12F800
7D11A540
7D155400
7D000000
7E555540
7FFFFF40
3FFFF800
ENDCHAR
STARTCHAR Ecircumflexgrave
ENCODING 7872
SWIDTH 754 0
DWIDTH 14 0
BBX 13 24 0 -2
BITMAP
0001BA00
00078540
000F8000
000E4000
00000000
01415000
0B400000
0F9BE500
0E555540
1D000000
3D155400
7D100040
7D12FF40
7D115500
7D154100
7D100100
7D115500
7D12F800
7D11A540
7D155400
7D000000
7E555540
7FFFFF40
3FFFF800
ENDCHAR
STARTCHAR ecircumflexgrave
ENCODING 7873
SWIDTH 754 0
DWIDTH 14 0
BBX 13 24 0 -2
BITMAP
0001BA00
00078540
000F8000
000E4000
00000000
01415000
0B400000
0F9BE500
0E555540
1D000000
3D155400
7D100040
7D12FF40
7D115500
7D154100
7D100100
7D115500
7D12F800
7D11A540
7D155400
7D000000
7E555540
7FFFFF40
3FFFF800
ENDCHAR
STARTCHAR Ecircumflexhookabove
ENCODING 7874
SWIDTH 754 0
DWIDTH 14 0
BBX 15 26 0 -2
BITMAP
00005540
00018540
0007D504
000BE404
000BE144
0002FAA0
00140B40
01415000
07400000
0F9BE500
0E555540
1D000000
3D155400
7D100040
7D12FF40
7D115500
7D154100
7D100100
7D115500
7D12F800
7D11A540
7D155400
7D000000
7E555540
7FFFFF40
3FFFF800
ENDCHAR
STARTCHAR ecircumflexhookabove
ENCODING 7875
SWIDTH 754 0
DWIDTH 14 0
BBX 15 26 0 -2
BITMAP
00005540
00018540
0007D504
000BE404
000BE144
0002FAA0
00140B40
01415000
07400000
0F9BE500
0E555540
1D000000
3D155400
7D100040
7D12FF40
7D115500
7D154100
7D100100
7D115500
7D12F800
7D11A540
7D155400
7D000000
7E555540
7FFFFF40
3FFFF800
ENDCHAR
STARTCHAR Ecircumflextilde
ENCODING 7876
SWIDTH 754 0
DWIDTH 14 0
BBX 13 25 0 -2
BITMAP
00155500
01400000
07455000
0F400100
0FFFA900
0FE41400
06415000
07400000
0F9BE500
0E555540
0D000000
2D155400
7D100040
7D12FF40
7D115500
7D154100
7D100100
7D115500
7D12F800
7D11A540
7D155400
7D000000
7E555540
7FFFFF40
3FFFF800
ENDCHAR
STARTCHAR ecircumflextilde
ENCODING 7877
SWIDTH 754 0
DWIDTH 14 0
BBX 13 25 0 -2
BITMAP
00155500
01400000
07455000
0F400100
0FFFA900
0FE41400
06415000
07400000
0F9BE500
0E555540
0D000000
2D155400
7D100040
7D12FF40
7D115500
7D154100
7D100100
7D115500
7D12F800
7D11A540
7D155400
7D000000
7E555540
7FFFFF40
3FFFF800
ENDCHAR
STARTCHAR Ecircumflexdotbelow
ENCODING 7878
SWIDTH 754 0
DWIDTH 14 0
BBX 13 26 0 -7
BITMAP
00015000
00100500
01415000
0B400000
0F9BE500
0E555540
1D000000
3D155400
7D100040
7D12FF40
7D115500
7D154100
7D100100
7D115500
7D12F800
7D11A540
7D155400
7D000000
7D000000
7FFAAE40
3FF00800
01F00400
02F00000
02FFE000
02FF4000
00540000
ENDCHAR
STARTCHAR ecircumflexdotbelow
ENCODING 7879
SWIDTH 754 0
DWIDTH 14 0
BBX 13 26 0 -7
BITMAP
00015000
00100500
01415000
0B400000
0F9BE500
0E555540
1D000000
3D155400
7D100040
7D12FF40
7D115500
7D154100
7D100100
7D115500
7D12F800
7D11A540
7D155400
7D000000
7D000000
7FFAAE40
3FF00800
01F00400
02F00000
02FFE000
02FF4000
00540000
ENDCHAR
STARTCHAR Ihookabove
ENCODING 7880
SWIDTH 705 0
DWIDTH 13 0
BBX 13 22 0 -2
BITMAP
00554000
01854000
07D50000
0BE40400
07E11000
02FA9000
05555500
1C000040
7C155040
7C010000
7E911900
7FD11400
1BD11000
03D11000
03D11000
03D11000
02910500
1C155000
7C000040
7D555500
7FFFFD00
7FFFE000
ENDCHAR
STARTCHAR ihookabove
ENCODING 7881
SWIDTH 705 0
DWIDTH 13 0
BBX 13 22 0 -2
BITMAP
00554000
01854000
07D50000
0BE40400
07E11000
02FA9000
05555500
1C000040
7C155040
7C010000
7E911900
7FD11400
1BD11000
03D11000
03D11000
03D11000
02910500
1C155000
7C000040
7D555500
7FFFFD00
7FFFE000
ENDCHAR
STARTCHAR Idotbelow
ENCODING 7882
SWIDTH 705 0
DWIDTH 13 0
BBX 13 21 0 -7
BITMAP
05555500
1C000040
7C155040
7C010000
7E911900
7FD11400
1BD11000
03D11000
03D11000
03D11000
02910500
1C155000
7C000040
7C000000
7FFABD00
7FD01400
02D01000
03E01000
03FFD000
03FE0000
00540000
ENDCHAR
STARTCHAR idotbelow
ENCODING 7883
SWIDTH 705 0
DWIDTH 13 0
BBX 13 21 0 -7
BITMAP
05555500
1C000040
7C155040
7C010000
7E911900
7FD11400
1BD11000
03D11000
03D11000
03D11000
02910500
1C155000
7C000040
7C000000
7FFABD00
7FD01400
02D01000
03E01000
03FFD000
03FE0000
00540000
ENDCHAR
STARTCHAR Odotbelow
ENCODING 7884
SWIDTH 837 0
DWIDTH 15 0
BBX 15 21 0 -7
BITMAP
00155540
01000010
05055400
2D100104
3C12F044
7C12F444
7C12F444
7C11F444
7C11F444
7C11F444
7C11A044
7D100104
7E055410
7F900040
3FFEAB00
1BF80400
01B80400
00F80400
00F95400
00FFE000
00BF8000
ENDCHAR
STARTCHAR odotbelow
ENCODING 7885
SWIDTH 837 0
DWIDTH 15 0
BBX 15 21 0 -7
BITMAP
00155540
01000010
05055400
2D100104
3C12F044
7C12F444
7C12F444
7C11F444
7C11F444
7C11F444
7C11A044
7D100104
7E055410
7F900040
3FFEAB00
1BF80400
01B80400
00F80400
00F95400
00FFE000
00BF8000
ENDCHAR
STARTCHAR Ohookabove
ENCODING 7886
SWIDTH 837 0
DWIDTH 15 0
BBX 15 22 0 -2
BITMAP
00055400
00315100
00F54500
01FE4500
01FC5100
007DA800
00940140
01055410
09100104
2C11A044
7C12F444
7C12F444
7C11F444
7C11F444
7C11F444
7C11F044
7D100104
7D055404
7F000010
3FE55640
1FFFFD00
02FFE400
ENDCHAR
STARTCHAR ohookabove
ENCODING 7887
SWIDTH 837 0
DWIDTH 15 0
BBX 15 22 0 -2
BITMAP
00055400
00315100
00F54500
01FE4500
01FC5100
007DA800
00940140
01055410
09100104
2C11A044
7C12F444
7C12F444
7C11F444
7C11F444
7C11F444
7C11F044
7D100104
7D055404
7F000010
3FE55640
1FFFFD00
02FFE400
ENDCHAR
STARTCHAR Ocircumflexacute
ENCODING 7888
SWIDTH 837 0
DWIDTH 15 0
BBX 15 26 0 -2
BITMAP
00000040
00001BD0
0000BE50
0002E000
0003D040
00051540
00414040
02C00040
07D6F940
0BE55640
0B400010
05055400
1D100104
3C11A044
7C12F444
7C12F444
7C11F444
7C11F444
7C11F444
7C11F044
7D100104
7D055400
7F400010
3FE55640
1FFFFD00
02FFE400
ENDCHAR
STARTCHAR ocircumflexacute
ENCODING 7889
SWIDTH 837 0
DWIDTH 15 0
BBX 15 26 0 -2
BITMAP
00000040
00001BD0
0000BE50
0002E000
0003D040
00051540
00414040
02C00040
07D6F940
0BE55640
0B400010
05055400
1D100104
3C11A044
7C12F444
7C12F444
7C11F444
7C11F444
7C11F444
7C11F044
7D100104
7D055400
7F400010
3FE55640
1FFFFD00
02FFE400
ENDCHAR
STARTCHAR Ocircumflexgrave
ENCODING 7890
SWIDTH 837 0
DWIDTH 15 0
BBX 15 25 0 -2
BITMAP
00006900
0001FFC0
0007C180
0007C000
00052440
00415100
02C00040
07D6F940
0BE55640
0B400010
05055400
1D100104
3C11A044
7C12F444
7C12F444
7C11F444
7C11F444
7C11F444
7C11F044
7D100104
7D055400
7F400010
3FE55640
1FFFFD00
02FFE400
ENDCHAR
STARTCHAR ocircumflexgrave
ENCODING 7891
SWIDTH 837 0
DWIDTH 15 0
BBX 15 25 0 -2
BITMAP
00006900
0001FFC0
0007C180
0007C000
00052440
00415100
02C00040
07D6F940
0BE55640
0B400010
05055400
1D100104
3C11A044
7C12F444
7C12F444
7C11F444
7C11F444
7C11F444
7C11F044
7D100104
7D055400
7F400010
3FE55640
1FFFFD00
02FFE400
ENDCHAR
STARTCHAR Ocircumflexhookabove
ENCODING 7892
SWIDTH 837 0
DWIDTH 15 0
BBX 15 26 0 -2
BITMAP
00001550
00009144
0003EA54
0003F414
0001F400
000016D0
00415040
01C00040
07D6F940
0BE55640
0B400010
05055400
1D100104
3C11A044
7C12F444
7C12F444
7C11F444
7C11F444
7C11F444
7C11F044
7D100104
7D055400
7F400010
3FE55640
1FFFFD00
02FFE400
ENDCHAR
STARTCHAR ocircumflexhookabove
ENCODING 7893
SWIDTH 837 0
DWIDTH 15 0
BBX 15 26 0 -2
BITMAP
00001550
00009144
0003EA54
0003F414
0001F400
000016D0
00415040
01C00040
07D6F940
0BE55640
0B400010
05055400
1D100104
3C11A044
7C12F444
7C12F444
7C11F444
7C11F444
7C11F444
7C11F044
7D100104
7D055400
7F400010
3FE55640
1FFFFD00
02FFE400
ENDCHAR
STARTCHAR Ocircumflextilde
ENCODING 7894
SWIDTH 837 0
DWIDTH 15 0
BBX 15 25 0 -2
BITMAP
00155540
00800040
07C00040
0BEA9500
0BF91900
05815040
02C00040
07D6F940
0BE55640
0B400010
05055400
1D100104
3C11A044
7C12F444
7C12F444
7C11F444
7C11F444
7C11F444
7C11F044
7D100104
7D055400
7F400010
3FE55640
1FFFFD00
02FFE400
ENDCHAR
STARTCHAR ocircumflextilde
ENCODING 7895
SWIDTH 837 0
DWIDTH 15 0
BBX 15 25 0 -2
BITMAP
00155540
00800040
07C00040
0BEA9500
0BF91900
05815040
02C00040
07D6F940
0BE55640
0B400010
05055400
1D100104
3C11A044
7C12F444
7C12F444
7C11F444
7C11F444
7C11F444
7C11F044
7D100104
7D055400
7F400010
3FE55640
1FFFFD00
02FFE400
ENDCHAR
STARTCHAR Ocircumflexdotbelow
ENCODING 7896
SWIDTH 837 0
DWIDTH 15 0
BBX 15 26 0 -7
BITMAP
00005000
00000100
00815040
02C00040
0BD6F940
0BE55640
0B000010
05055400
1D100104
3C11A044
7C12F444
7C12F444
7C11F444
7C11F444
7C11F444
7C11F044
7D100104
7E055410
7F900040
3FFEAB00
1BF80400
01B80400
00F80400
00F95400
00FFE000
00BF8000
ENDCHAR
STARTCHAR ocircumflexdotbelow
ENCODING 7897
SWIDTH 837 0
DWIDTH 15 0
BBX 15 26 0 -7
BITMAP
00005000
00000100
00815040
02C00040
0BD6F940
0BE55640
0B000010
05055400
1D100104
3C11A044
7C12F444
7C12F444
7C11F444
7C11F444
7C11F444
7C11F044
7D100104
7E055410
7F900040
3FFEAB00
1BF80400
01B80400
00F80400
00F95400
00FFE000
00BF8000
ENDCHAR
STARTCHAR Ohornacute
ENCODING 7898
SWIDTH 847 0
DWIDTH 15 0
BBX 16 20 0 -2
BITMAP
005AFA00
02955100
0B400054
1F400101
1F800011
0A000544
1D000104
3C01A044
7C12F444
7C12F444
7C11F444
7C11F444
7C11F444
7C11F004
7D100104
7D055400
7F000010
3FE55640
2FFFFD00
06FFE400
ENDCHAR
STARTCHAR ohornacute
ENCODING 7899
SWIDTH 847 0
DWIDTH 15 0
BBX 16 20 0 -2
BITMAP
005AFA00
02955100
0B400054
1F400101
1F800011
0A000544
1D000104
3C01A044
7C12F444
7C12F444
7C11F444
7C11F444
7C11F444
7C11F004
7D100104
7D055400
7F000010
3FE55640
2FFFFD00
06FFE400
ENDCHAR
STARTCHAR Ohorngrave
ENCODING 7900
SWIDTH 847 0
DWIDTH 15 0
BBX 16 21 0 -2
BITMAP
00950000
03ABFD00
1F055500
1F000154
1F940101
0B900011
02000544
0D000104
3C01A044
7C12F444
7C12F444
7C11F444
7C11F444
7C11F444
7C11F004
7D100104
7D055400
7F000010
3FE55640
2FFFFD00
06FFE400
ENDCHAR
STARTCHAR ohorngrave
ENCODING 7901
SWIDTH 847 0
DWIDTH 15 0
BBX 16 21 0 -2
BITMAP
00950000
03ABFD00
1F055500
1F000154
1F940101
0B900011
02000544
0D000104
3C01A044
7C12F444
7C12F444
7C11F444
7C11F444
7C11F444
7C11F004
7D100104
7D055400
7F000010
3FE55640
2FFFFD00
06FFE400
ENDCHAR
STARTCHAR Ohornhookabove
ENCODING 7902
SWIDTH 847 0
DWIDTH 15 0
BBX 16 22 0 -2
BITMAP
00055400
00315100
01F54500
01FE4500
01BC4154
007DAA01
00940011
01000544
09000104
2C01A044
7C12F444
7C12F444
7C11F444
7C11F444
7C11F444
7C11F004
7D100104
7D055400
7F000010
3FE55640
2FFFFD00
06FFE400
ENDCHAR
STARTCHAR ohornhookabove
ENCODING 7903
SWIDTH 847 0
DWIDTH 15 0
BBX 16 22 0 -2
BITMAP
00055400
00315100
01F54500
01FE4500
01BC4154
007DAA01
00940011
01000544
09000104
2C01A044
7C12F444
7C12F444
7C11F444
7C11F444
7C11F444
7C11F004
7D100104
7D055400
7F000010
3FE55640
2FFFFD00
06FFE400
ENDCHAR
STARTCHAR Ohorntilde
ENCODING 7904
SWIDTH 847 0
DWIDTH 15 0
BBX 16 21 0 -2
BITMAP
00154500
01400000
07455000
0F400054
1F554201
1FD40011
06000544
0D000104
3C01A044
7C12F444
7C12F444
7C11F444
7C11F444
7C11F444
7C11F004
7D100104
7D055400
7F000010
3FE55640
2FFFFD00
06FFE400
ENDCHAR
STARTCHAR ohorntilde
ENCODING 7905
SWIDTH 847 0
DWIDTH 15 0
BBX 16 21 0 -2
BITMAP
00154500
01400000
07455000
0F400054
1F554201
1FD40011
06000544
0D000104
3C01A044
7C12F444
7C12F444
7C11F444
7C11F444
7C11F444
7C11F004
7D100104
7D055400
7F000010
3FE55640
2FFFFD00
06FFE400
ENDCHAR
STARTCHAR Ohorndotbelow
ENCODING 7906
SWIDTH 847 0
DWIDTH 15 0
BBX 16 23 0 -7
BITMAP
00000054
00000201
00000011
01014011
05100044
2D100004
3C12F004
7C12F444
7C12F444
7C11F444
7C11F444
7C11F444
7C11A044
7D100104
7E055400
7F900040
3FFEAB00
1BF80400
01B80400
00F80400
00FFF400
00BFD000
00150000
ENDCHAR
STARTCHAR ohorndotbelow
ENCODING 7907
SWIDTH 847 0
DWIDTH 15 0
BBX 16 23 0 -7
BITMAP
00000054
00000201
00000011
01014011
05100044
2D100004
3C12F004
7C12F444
7C12F444
7C11F444
7C11F444
7C11F444
7C11A044
7D100104
7E055400
7F900040
3FFEAB00
1BF80400
01B80400
00F80400
00FFF400
00BFD000
00150000
ENDCHAR
STARTCHAR Udotbelow
ENCODING 7908
SWIDTH 846 0
DWIDTH 15 0
BBX 15 21 0 -7
BITMAP
05550554
1D013404
3D11F444
7D11F444
7D11F444
7D11F444
7D11F444
7D11F444
7D11F444
7D11F444
7D11A044
7D000104
7E015400
3F900040
2FFEAB00
0BF80000
00B84000
00B80400
00BFF400
00BFD000
00150000
ENDCHAR
STARTCHAR udotbelow
ENCODING 7909
SWIDTH 846 0
DWIDTH 15 0
BBX 15 21 0 -7
BITMAP
05550554
1D013404
3D11F444
7D11F444
7D11F444
7D11F444
7D11F444
7D11F444
7D11F444
7D11F444
7D11A044
7D000104
7E015400
3F900040
2FFEAB00
0BF80000
00B84000
00B80400
00BFF400
00BFD000
00150000
ENDCHAR
STARTCHAR Uhookabove
ENCODING 7910
SWIDTH 846 0
DWIDTH 15 0
BBX 15 22 0 -2
BITMAP
00055400
00185500
00B95400
00FE4400
00BE1100
003FA900
0556F954
1D01B404
7D11F444
7D11F444
7D11F444
7D11F444
7D11F444
7D11F444
7D11F444
7D11A044
7D100104
7D015404
3F400010
3FE55640
1FFFFD00
02BFE400
ENDCHAR
STARTCHAR uhookabove
ENCODING 7911
SWIDTH 846 0
DWIDTH 15 0
BBX 15 22 0 -2
BITMAP
00055400
00185500
00B95400
00FE4400
00BE1100
003FA900
0556F954
1D01B404
7D11F444
7D11F444
7D11F444
7D11F444
7D11F444
7D11F444
7D11F444
7D11A044
7D100104
7D015404
3F400010
3FE55640
1FFFFD00
02BFE400
ENDCHAR
STARTCHAR Uhornacute
ENCODING 7912
SWIDTH 856 0
DWIDTH 15 0
BBX 16 21 0 -2
BITMAP
00000500
006BFA00
02955100
0B400054
1F400141
1D02E511
1D017451
7D11F444
7D11F444
7D11F444
7D11F444
7D11F444
7D11F444
7D11F444
7D11A044
7D100104
7D015404
7F400010
3FE55640
1FFFFD00
06FFE400
ENDCHAR
STARTCHAR uhornacute
ENCODING 7913
SWIDTH 856 0
DWIDTH 15 0
BBX 16 21 0 -2
BITMAP
00000500
006BFA00
02955100
0B400054
1F400141
1D02E511
1D017451
7D11F444
7D11F444
7D11F444
7D11F444
7D11F444
7D11F444
7D11F444
7D11A044
7D100104
7D015404
7F400010
3FE55640
1FFFFD00
06FFE400
ENDCHAR
STARTCHAR Uhorngrave
ENCODING 7914
SWIDTH 856 0
DWIDTH 15 0
BBX 16 21 0 -2
BITMAP
00540000
02AFE900
0F055600
1F000154
1F500141
1D56E411
1D01F451
7D11F444
7D11F444
7D11F444
7D11F444
7D11F444
7D11F444
7D11F444
7D11A044
7D100104
7D015404
7F400010
3FE55640
1FFFFD00
06FFE400
ENDCHAR
STARTCHAR uhorngrave
ENCODING 7915
SWIDTH 856 0
DWIDTH 15 0
BBX 16 21 0 -2
BITMAP
00540000
02AFE900
0F055600
1F000154
1F500141
1D56E411
1D01F451
7D11F444
7D11F444
7D11F444
7D11F444
7D11F444
7D11F444
7D11F444
7D11A044
7D100104
7D015404
7F400010
3FE55640
1FFFFD00
06FFE400
ENDCHAR
STARTCHAR Uhornhookabove
ENCODING 7916
SWIDTH 856 0
DWIDTH 15 0
BBX 16 22 0 -2
BITMAP
00055400
00245100
00B95400
00FE4500
00BD1154
003EAA41
0556F511
1D01B451
7D11F444
7D11F444
7D11F444
7D11F444
7D11F444
7D11F444
7D11F444
7D11A044
7D100104
7D015404
7F400010
3FE55640
1FFFFD00
06FFE400
ENDCHAR
STARTCHAR uhornhookabove
ENCODING 7917
SWIDTH 856 0
DWIDTH 15 0
BBX 16 22 0 -2
BITMAP
00055400
00245100
00B95400
00FE4500
00BD1154
003EAA41
0556F511
1D01B451
7D11F444
7D11F444
7D11F444
7D11F444
7D11F444
7D11F444
7D11F444
7D11A044
7D100104
7D015404
7F400010
3FE55640
1FFFFD00
06FFE400
ENDCHAR
STARTCHAR Uhorntilde
ENCODING 7918
SWIDTH 856 0
DWIDTH 15 0
BBX 16 21 0 -2
BITMAP
00154500
01400100
07455100
1F400054
1F554241
1D56F911
2D02B451
7D11F444
7D11F444
7D11F444
7D11F444
7D11F444
7D11F444
7D11F444
7D11A044
7D100104
7D015404
7F400010
3FE55640
1FFFFD00
06FFE400
ENDCHAR
STARTCHAR uhorntilde
ENCODING 7919
SWIDTH 856 0
DWIDTH 15 0
BBX 16 21 0 -2
BITMAP
00154500
01400100
07455100
1F400054
1F554241
1D56F911
2D02B451
7D11F444
7D11F444
7D11F444
7D11F444
7D11F444
7D11F444
7D11F444
7D11A044
7D100104
7D015404
7F400010
3FE55640
1FFFFD00
06FFE400
ENDCHAR
STARTCHAR Uhorndotbelow
ENCODING 7920
SWIDTH 856 0
DWIDTH 15 0
BBX 16 23 0 -7
BITMAP
00000054
00000241
05550511
1D013411
3D11F444
7D11F444
7D11F444
7D11F444
7D11F444
7D11F444
7D11F444
7D11F444
7D11A044
7D000104
7E015400
3F900040
2FFEAB00
0BF80000
00B84000
00B80400
00BFF400
00BFD000
00150000
ENDCHAR
STARTCHAR uhorndotbelow
ENCODING 7921
SWIDTH 856 0
DWIDTH 15 0
BBX 16 23 0 -7
BITMAP
00000054
00000241
05550511
1D013411
3D11F444
7D11F444
7D11F444
7D11F444
7D11F444
7D11F444
7D11F444
7D11F444
7D11A044
7D000104
7E015400
3F900040
2FFEAB00
0BF80000
00B84000
00B80400
00BFF400
00BFD000
00150000
ENDCHAR
STARTCHAR Ygrave
ENCODING 7922
SWIDTH 805 0
DWIDTH 14 0
BBX 14 21 0 -2
BITMAP
00500000
01EFE900
07415600
0F400040
0F900000
0D57E050
2C01F000
7C42F000
BC42F000
BC02E000
BC11D100
BD000010
BF040000
7F804000
2FE04100
0BF44400
03F44400
01F40400
01F95400
01FFE000
00FF4000
ENDCHAR
STARTCHAR ygrave
ENCODING 7923
SWIDTH 805 0
DWIDTH 14 0
BBX 14 21 0 -2
BITMAP
00500000
01EFE900
07415600
0F400040
0F900000
0D57E050
2C01F000
7C42F000
BC42F000
BC02E000
BC11D100
BD000010
BF040000
7F804000
2FE04100
0BF44400
03F44400
01F40400
01F95400
01FFE000
00FF4000
ENDCHAR
STARTCHAR Ydotbelow
ENCODING 7924
SWIDTH 805 0
DWIDTH 14 0
BBX 14 21 0 -7
BITMAP
05541550
2C00B000
7C42F000
BC42F000
BC02E000
BC11D100
BD000010
BF040000
7F804000
2FD04100
0FF44400
07F44400
02F40400
01F40400
01FEA400
00F40400
00B44400
01F40400
01FFF400
00FF8000
00550000
ENDCHAR
STARTCHAR ydotbelow
ENCODING 7925
SWIDTH 805 0
DWIDTH 14 0
BBX 14 21 0 -7
BITMAP
05541550
2C00B000
7C42F000
BC42F000
BC02E000
BC11D100
BD000010
BF040000
7F804000
2FD04100
0FF44400
07F44400
02F40400
01F40400
01FEA400
00F40400
00B44400
01F40400
01FFF400
00FF8000
00550000
ENDCHAR
STARTCHAR Yhookabove
ENCODING 7926
SWIDTH 805 0
DWIDTH 14 0
BBX 14 22 0 -2
BITMAP
00055000
00715000
01F54100
02FD0100
01F84000
00BEA400
0557E550
2C02B000
7C42F000
BC42F000
BC02E000
BC11D100
BD000010
BF040000
7F804000
2FE04100
0BF44400
03F44400
01F40400
01F95400
01FFE000
00FF4000
ENDCHAR
STARTCHAR yhookabove
ENCODING 7927
SWIDTH 805 0
DWIDTH 14 0
BBX 14 22 0 -2
BITMAP
00055000
00715000
01F54100
02FD0100
01F84000
00BEA400
0557E550
2C02B000
7C42F000
BC42F000
BC02E000
BC11D100
BD000010
BF040000
7F804000
2FE04100
0BF44400
03F44400
01F40400
01F95400
01FFE000
00FF4000
ENDCHAR
STARTCHAR Ytilde
ENCODING 7928
SWIDTH 805 0
DWIDTH 14 0
BBX 14 21 0 -2
BITMAP
00155500
00400040
02854040
0B800000
0F954000
0D57F550
2C02F000
7C42F000
BC42F000
BC02E000
BC11D100
BD000010
BF040000
7F804000
2FE04100
0BF44400
03F44400
01F40400
01F95400
01FFE000
00FF4000
ENDCHAR
STARTCHAR ytilde
ENCODING 7929
SWIDTH 805 0
DWIDTH 14 0
BBX 14 21 0 -2
BITMAP
00155500
00400040
02854040
0B800000
0F954000
0D57F550
2C02F000
7C42F000
BC42F000
BC02E000
BC11D100
BD000010
BF040000
7F804000
2FE04100
0BF44400
03F44400
01F40400
01F95400
01FFE000
00FF4000
ENDCHAR
STARTCHAR enspace
ENCODING 8192
SWIDTH 500 0
DWIDTH 9 0
BBX 1 1 0 0
BITMAP
00
ENDCHAR
STARTCHAR emspace
ENCODING 8193
SWIDTH 1000 0
DWIDTH 18 0
BBX 1 1 0 0
BITMAP
00
ENDCHAR
STARTCHAR uni2002
ENCODING 8194
SWIDTH 500 0
DWIDTH 9 0
BBX 1 1 0 0
BITMAP
00
ENDCHAR
STARTCHAR uni2003
ENCODING 8195
SWIDTH 1000 0
DWIDTH 18 0
BBX 1 1 0 0
BITMAP
00
ENDCHAR
STARTCHAR space.tab_en
ENCODING 8199
SWIDTH 1100 0
DWIDTH 20 0
BBX 1 1 0 0
BITMAP
00
ENDCHAR
STARTCHAR uni2010
ENCODING 8208
SWIDTH 520 0
DWIDTH 9 0
BBX 9 7 0 3
BITMAP
015540
180000
781400
B80000
BD5540
BFFF00
BFF800
ENDCHAR
STARTCHAR figuredash
ENCODING 8210
SWIDTH 834 0
DWIDTH 15 0
BBX 15 7 0 3
BITMAP
01555550
09000004
2D155504
3D000004
7E555550
7FFFFFC0
3FFFFF00
ENDCHAR
STARTCHAR endash
ENCODING 8211
SWIDTH 834 0
DWIDTH 15 0
BBX 15 7 0 3
BITMAP
01555550
09000004
2D155504
3D000004
7E555550
7FFFFFC0
3FFFFF00
ENDCHAR
STARTCHAR emdash
ENCODING 8212
SWIDTH 1234 0
DWIDTH 22 0
BBX 22 7 0 3
BITMAP
015555555540
090000000010
2D1555555410
3D0000000010
7E5555555540
7FFFFFFFFF40
3FFFFFFFFD00
ENDCHAR
STARTCHAR horizontalbar
ENCODING 8213
SWIDTH 1234 0
DWIDTH 22 0
BBX 22 7 0 3
BITMAP
015555555540
090000000010
2D1555555410
3D0000000010
7E5555555540
7FFFFFFFFF40
3FFFFFFFFD00
ENDCHAR
STARTCHAR quoteleft
ENCODING 8216
SWIDTH 484 0
DWIDTH 9 0
BBX 9 10 0 4
BITMAP
005500
051100
1C5900
3C4000
7C4040
7C5040
7C0000
7FFD00
7FF400
154000
ENDCHAR
STARTCHAR quoteright
ENCODING 8217
SWIDTH 484 0
DWIDTH 9 0
BBX 9 10 0 4
BITMAP
055500
1C0040
7C1440
7C0440
7F9400
7D0400
7D1000
2E5400
7FE000
2A4000
ENDCHAR
STARTCHAR quotesinglbase
ENCODING 8218
SWIDTH 484 0
DWIDTH 9 0
BBX 9 10 0 -4
BITMAP
015500
080000
3C1440
7C0440
7C0440
7F9400
7D1100
2E5400
7FF000
3F8000
ENDCHAR
STARTCHAR quotedblleft
ENCODING 8220
SWIDTH 784 0
DWIDTH 14 0
BBX 14 10 0 4
BITMAP
01551550
05118110
2C6B8680
7C418010
BC418010
BC518510
BC018010
BFFFFF80
BFFFFE00
15415400
ENDCHAR
STARTCHAR quotedblright
ENCODING 8221
SWIDTH 784 0
DWIDTH 14 0
BBX 14 10 0 4
BITMAP
05555550
1C018010
7C158510
BC058050
BF95F840
BD05C000
7C12C500
3E5BD500
7FDBFD00
2A46A000
ENDCHAR
STARTCHAR quotedblbase
ENCODING 8222
SWIDTH 784 0
DWIDTH 14 0
BBX 14 10 0 -4
BITMAP
01555540
18018010
7C158510
BC058050
BC058050
BF95F900
BC12C510
3D5BD540
7FEBFE00
7F8BF400
ENDCHAR
STARTCHAR dagger
ENCODING 8224
SWIDTH 818 0
DWIDTH 15 0
BBX 15 16 0 -2
BITMAP
00055400
00380400
00F84400
05644550
1C004004
7C155504
BC004004
BEA84A90
BFF84BC0
69B84A00
00B84400
00B84400
00B80400
00F95400
00FFE000
00FF8000
ENDCHAR
STARTCHAR daggerdbl
ENCODING 8225
SWIDTH 818 0
DWIDTH 15 0
BBX 15 16 0 -2
BITMAP
00055400
00780400
08004004
3C155504
BC004004
BEA84AA0
BFF84780
6AB84650
0C004004
7C155504
BC004004
BD544554
BFF80BD0
7AF95A40
00FFE000
00FF8000
ENDCHAR
STARTCHAR bullet
ENCODING 8226
SWIDTH 543 0
DWIDTH 10 0
BBX 10 9 0 1
BITMAP
015540
181510
7C4110
BC4110
BC1510
BC0010
BD5550
BFFF40
7FFD00
ENDCHAR
STARTCHAR ellipsis
ENCODING 8230
SWIDTH 1210 0
DWIDTH 22 0
BBX 22 8 0 -2
BITMAP
015515505540
0800A0060010
3C00E0070010
7C10E0070410
7C00E0070010
7D55E55B5540
7FFFFFFFFF40
7FE2FF5FFC00
ENDCHAR
STARTCHAR perthousand
ENCODING 8240
SWIDTH 1517 0
DWIDTH 27 0
BBX 28 16 0 -2
BITMAP
01554154000000
08141804000000
2C412C04000000
78682840000000
B8682410000000
B8552511500150
BC142110000004
BE00A121508541
7FFFD060948691
2FF7D4A4948291
0143C4A4948291
000780E0048411
000B81F151C540
000B96F957E554
000FFAFFFBFFD0
000FD0BF82FE40
ENDCHAR
STARTCHAR minute
ENCODING 8242
SWIDTH 456 0
DWIDTH 8 0
BBX 8 10 0 4
BITMAP
0555
1D01
3D11
7D11
7C11
7C01
7C01
7FF8
7FD0
1500
ENDCHAR
STARTCHAR second
ENCODING 8243
SWIDTH 766 0
DWIDTH 14 0
BBX 14 10 0 4
BITMAP
05555550
1D01C010
3D118010
7D128400
7C128400
7C028000
7C038040
7FFFFF40
7FDBFC00
15015000
ENDCHAR
STARTCHAR guilsinglleft
ENCODING 8249
SWIDTH 663 0
DWIDTH 12 0
BBX 11 12 0 -1
BITMAP
000154
005004
050544
1D1004
3C02E0
7D1054
7D1504
7F4004
7FE944
2FFFF4
01AFD0
000100
ENDCHAR
STARTCHAR guilsinglright
ENCODING 8250
SWIDTH 663 0
DWIDTH 12 0
BBX 11 12 1 -1
BITMAP
055400
280140
F81400
F80044
FFE444
BD5044
280500
B80010
F81A40
FFFD00
FE9000
400000
ENDCHAR
STARTCHAR fraction
ENCODING 8260
SWIDTH 417 0
DWIDTH 8 0
BBX 9 16 -1 -2
BITMAP
001540
00D040
03C440
07C440
078440
0B8400
0B4100
0F4100
0F1100
1F1100
1E1100
2E1000
2D0400
3D5400
7FE000
7F8000
ENDCHAR
STARTCHAR zero.sups
ENCODING 8304
SWIDTH 656 0
DWIDTH 12 0
BBX 9 11 0 2
BITMAP
040000
280000
381D00
782E00
781E00
781E00
781D00
780000
3D0000
2FAA80
0BFE00
ENDCHAR
STARTCHAR foursuperior
ENCODING 8308
SWIDTH 608 0
DWIDTH 11 0
BBX 11 13 0 1
BITMAP
055154
2C1904
BC5D44
BC5D44
BC5D44
BC4044
BC0044
BE5444
BFFD44
2FFD04
003FE0
003F80
000400
ENDCHAR
STARTCHAR five.sups
ENCODING 8309
SWIDTH 593 0
DWIDTH 11 0
BBX 11 13 0 1
BITMAP
055550
1D1510
7D0010
7D0BD0
7D1510
7D0004
7FFD04
7D5404
2C0000
7C0010
7FFF80
7FFD00
155000
ENDCHAR
STARTCHAR six.sups
ENCODING 8310
SWIDTH 628 0
DWIDTH 11 0
BBX 11 13 0 1
BITMAP
005550
051010
1D0010
3C0FD0
7C0000
7C4004
7C0E04
7C4A04
7D1504
7F9550
3FFF80
1FFE00
004000
ENDCHAR
STARTCHAR seven.sups
ENCODING 8311
SWIDTH 577 0
DWIDTH 10 0
BBX 10 13 0 1
BITMAP
055550
280010
BD5410
BFF810
BFD010
010010
0A1040
1E1600
2E1400
2E0400
2FF400
2FC000
050000
ENDCHAR
STARTCHAR eight.sups
ENCODING 8312
SWIDTH 638 0
DWIDTH 11 0
BBX 11 13 0 1
BITMAP
005550
020004
0E0504
2E0A04
3F4010
3D1544
2C4A10
7C0F00
BC0010
BD1540
7F9590
3FFF40
06A400
ENDCHAR
STARTCHAR nine.sups
ENCODING 8313
SWIDTH 628 0
DWIDTH 11 0
BBX 11 13 0 1
BITMAP
005550
051504
2C4004
7C0E04
BC0904
BC0044
BE0004
7FFD04
0F0004
1F0010
2FFF80
2FFE00
055000
ENDCHAR
STARTCHAR parenleft.sups
ENCODING 8317
SWIDTH 434 0
DWIDTH 8 0
BBX 7 13 0 2
BITMAP
0400
2440
7414
7410
7400
7400
7400
7400
7400
7400
7C00
3FA4
1FE0
ENDCHAR
STARTCHAR parenright.sups
ENCODING 8318
SWIDTH 435 0
DWIDTH 8 0
BBX 6 14 0 2
BITMAP
0400
2400
7440
7D00
7E00
0E00
0E00
0E00
0E00
0E00
1400
7400
7A90
7E40
ENDCHAR
STARTCHAR n.sups
ENCODING 8319
SWIDTH 673 0
DWIDTH 12 0
BBX 10 11 1 2
BITMAP
100010
A01000
E07800
E07800
E07800
E07800
E07800
E07800
E07800
FF7FD0
A82A00
ENDCHAR
STARTCHAR zero.sinf
ENCODING 8320
SWIDTH 656 0
DWIDTH 12 0
BBX 9 11 0 -2
BITMAP
040000
280000
381D00
782E00
781E00
781E00
781D00
780000
3D0000
2FAA80
0BFE00
ENDCHAR
STARTCHAR one.sinf
ENCODING 8321
SWIDTH 557 0
DWIDTH 10 0
BBX 10 13 0 -3
BITMAP
055500
1D1000
7D0000
7F8000
7FC000
1BC000
0BC000
0A4040
1C0410
7C0010
BFFFD0
BFFE00
155400
ENDCHAR
STARTCHAR two.sinf
ENCODING 8322
SWIDTH 585 0
DWIDTH 11 0
BBX 10 13 0 -3
BITMAP
055540
1D1510
3D5050
7FF840
7F4010
080010
2C4640
784950
B85500
BC0010
BFFFD0
BFFF40
155400
ENDCHAR
STARTCHAR three.sinf
ENCODING 8323
SWIDTH 584 0
DWIDTH 11 0
BBX 11 13 0 -3
BITMAP
055540
1C1400
7C0110
BFF410
BF0140
1F0510
1FFC04
1D5044
2C1500
7C0010
BFFF80
BFFD00
155000
ENDCHAR
STARTCHAR four.sinf
ENCODING 8324
SWIDTH 620 0
DWIDTH 11 0
BBX 11 13 0 -3
BITMAP
055154
281D04
B85D44
B85D44
B85D44
B84044
BC0044
BE5444
BFFD44
2FFD04
007FE0
007F40
000400
ENDCHAR
STARTCHAR five.sinf
ENCODING 8325
SWIDTH 593 0
DWIDTH 11 0
BBX 11 13 0 -3
BITMAP
055550
1D1510
7D0010
7D0BD0
7D1510
7D0004
7FFD04
7D5404
2C0000
7C0010
7FFF80
7FFD00
155000
ENDCHAR
STARTCHAR six.sinf
ENCODING 8326
SWIDTH 628 0
DWIDTH 11 0
BBX 11 13 0 -3
BITMAP
005550
051010
1D0010
3C0FD0
7C0000
7C4004
7C0E04
7C4A04
7D1504
7F9550
3FFF80
1FFE00
004000
ENDCHAR
STARTCHAR seven.sinf
ENCODING 8327
SWIDTH 577 0
DWIDTH 10 0
BBX 10 13 0 -3
BITMAP
055550
280010
BD5410
BFF810
BFD010
010010
0A1040
1E1600
2E1400
2E0400
2FF400
2FC000
050000
ENDCHAR
STARTCHAR eight.sinf
ENCODING 8328
SWIDTH 638 0
DWIDTH 11 0
BBX 11 13 0 -3
BITMAP
005550
020004
0E0504
2E0A04
3F4010
3D1544
2C4A10
7C0F00
BC0010
BD1540
7F9590
3FFF40
06A400
ENDCHAR
STARTCHAR nine.sinf
ENCODING 8329
SWIDTH 628 0
DWIDTH 11 0
BBX 11 13 0 -3
BITMAP
005550
051504
2C4004
7C0E04
BC0904
BC0044
BE0004
7FFD04
0F0004
1F0010
2FFF80
2FFE00
055000
ENDCHAR
STARTCHAR parenleft.sinf
ENCODING 8333
SWIDTH 434 0
DWIDTH 8 0
BBX 7 13 0 -2
BITMAP
0400
2440
7414
7410
7400
7400
7400
7400
7400
7400
7C00
3FA4
1FE0
ENDCHAR
STARTCHAR parenright.sinf
ENCODING 8334
SWIDTH 435 0
DWIDTH 8 0
BBX 6 14 0 -2
BITMAP
0400
2400
7440
7D00
7E00
0E00
0E00
0E00
0E00
0E00
1400
7400
7A90
7E40
ENDCHAR
STARTCHAR colonsign
ENCODING 8353
SWIDTH 728 0
DWIDTH 13 0
BBX 13 18 0 -3
BITMAP
00015400
00145140
00410440
00055440
09100040
2C105540
3C12FE00
7C12F400
7C110000
7C110000
7C115500
7D100040
7E055440
3F800440
2FF85200
0BF9A400
00FFF400
00B7C000
ENDCHAR
STARTCHAR lira
ENCODING 8356
SWIDTH 795 0
DWIDTH 14 0
BBX 14 16 0 -2
BITMAP
00155500
01000100
06055100
1D100100
3D11FD00
38146000
74100000
FC114550
B4542010
FD12E010
FD100110
7D155510
7D000010
7E555550
7FFFFF80
3FFFFE00
ENDCHAR
STARTCHAR naira
ENCODING 8358
SWIDTH 853 0
DWIDTH 15 0
BBX 16 16 0 -2
BITMAP
01540554
1D003404
3D107444
7D142444
7D110044
74104041
74101040
FD110044
F4124041
BD12D144
FD12F044
BD12F444
7D02F404
7E55F954
7FF4FFE0
3FD0FF40
ENDCHAR
STARTCHAR peseta
ENCODING 8359
SWIDTH 812 0
DWIDTH 15 0
BBX 15 16 0 -2
BITMAP
01555540
0D000010
3D155410
7D100104
7412E104
7412E100
F812E100
FD100100
BD155400
7D100100
7D12FD00
7D12F400
7D010000
7E550000
7FF80000
3FD00000
ENDCHAR
STARTCHAR dong
ENCODING 8363
SWIDTH 782 0
DWIDTH 14 0
BBX 14 20 0 -6
BITMAP
00005540
00018010
00185510
00780410
00BFC450
00540440
05155440
1C000440
784BC440
B84BC440
B84B8040
BC000440
BD054000
BF955800
7FAAA500
1E054100
1E000100
2FFFFC00
2FFFE000
05554000
ENDCHAR
STARTCHAR Euro
ENCODING 8364
SWIDTH 748 0
DWIDTH 13 0
BBX 13 16 0 -2
BITMAP
00155540
01400000
06055400
1E100000
2D11AA00
38154100
78100100
BD11A800
B8554100
BC100100
BE11A540
7E055400
3F400000
2FE55540
1FFFFF40
06FFF800
ENDCHAR
STARTCHAR peso
ENCODING 8369
SWIDTH 812 0
DWIDTH 15 0
BBX 15 16 0 -2
BITMAP
01555500
0D000000
3D155410
7D100104
7412E144
BD12E114
F4115044
B8100004
FD154020
FD100140
7D12FD00
7D12F400
7D010000
7E550000
7FF80000
3FD00000
ENDCHAR
STARTCHAR guarani
ENCODING 8370
SWIDTH 788 0
DWIDTH 14 0
BBX 14 19 0 -4
BITMAP
00055000
00180400
00640000
01004040
05055440
2D100040
3C12AA40
7C13FD00
7C116550
7C11E010
7C12E110
7D100110
7E055510
7F404010
3FF40690
1FF80740
06FEA900
00BF8000
00150000
ENDCHAR
STARTCHAR cedi
ENCODING 8373
SWIDTH 728 0
DWIDTH 13 0
BBX 13 18 0 -3
BITMAP
00015400
00140140
00004040
00055040
09100040
2C105540
3C12FE00
7C12F400
7C110000
7C110000
7C115500
7D100040
7E055440
3F804040
2FF80600
0BF95400
00FFE000
00BF8000
ENDCHAR
STARTCHAR indianrupee
ENCODING 8377
SWIDTH 713 0
DWIDTH 13 0
BBX 13 16 0 -2
BITMAP
05555540
1C155440
7D544140
BEA44100
BC004040
7C004040
7FF80600
BC004800
3C154100
7C000040
BFFF0440
7FFF4440
156F4040
001F9540
001FFD00
000FF400
ENDCHAR
STARTCHAR turkishlira
ENCODING 8378
SWIDTH 795 0
DWIDTH 14 0
BBX 15 16 -1 -2
BITMAP
01554000
07004000
1F044000
1F041000
1D151000
2D049000
7F041154
7D145800
2E04BC00
7F04BC40
3F046440
1F055504
1F000010
1F555540
1FFFFE00
1FFFE400
ENDCHAR
STARTCHAR ruble
ENCODING 8381
SWIDTH 782 0
DWIDTH 14 0
BBX 14 16 0 -2
BITMAP
01555540
1D000010
3D155410
7D114110
7D12E110
7D12E100
7D100100
7D155400
7D100000
7D11B800
74541000
B8004000
FD024000
FE540000
7FF40000
3FD00000
ENDCHAR
STARTCHAR liter
ENCODING 8467
SWIDTH 749 0
DWIDTH 13 0
BBX 13 16 0 -2
BITMAP
00055000
00400100
05055040
1D100440
3C138440
7C138440
7C124440
7C100040
7C150100
7C116800
7C11A400
7D100100
7E014100
7F900100
2FFFF800
0BFFD000
ENDCHAR
STARTCHAR uni2117
ENCODING 8471
SWIDTH 967 0
DWIDTH 17 0
BBX 17 19 0 -4
BITMAP
0005555000
0055555500
0246BE9500
0D6EAAF540
2D74003940
7D75001940
7D75285940
7D752C5940
7D75001940
7D75542940
7D751AB940
7D742DB940
7D7410B940
7D6F80B540
7E46555400
3F95555500
2FFA55A400
0BFFFF9000
006AA90000
ENDCHAR
STARTCHAR uni2120
ENCODING 8480
SWIDTH 1003 0
DWIDTH 18 0
BBX 18 10 0 3
BITMAP
0100604410
1854A12110
781AE04450
B840A01050
BD01604450
BEA160A850
785460B810
7D55E5BD50
BFFFFEBF80
BFE2F4BD00
ENDCHAR
STARTCHAR trademark
ENCODING 8482
SWIDTH 1003 0
DWIDTH 18 0
BBX 18 10 0 3
BITMAP
1400604410
7455212110
FE52A04450
FF53E01050
6F53E04450
1F53E0A850
1F43E0B810
1F57E5BD50
1FF7FEBF80
0F82F4BD00
ENDCHAR
STARTCHAR Omega
ENCODING 8486
SWIDTH 877 0
DWIDTH 16 0
BBX 16 16 0 -2
BITMAP
00015400
00500050
01015404
0A000004
2D10A444
3D11F844
3D11F844
3D11F844
3D11F844
3E11F844
3E10F444
38046101
78146141
B800A001
BFFFFFF8
BFFBFFE0
ENDCHAR
STARTCHAR estimated
ENCODING 8494
SWIDTH 815 0
DWIDTH 15 0
BBX 15 16 0 -2
BITMAP
00055400
00400040
01055410
1C100100
3C02A004
7C02A004
7C000004
7C155504
7C000000
7C03FFD0
7C01AA40
7D100040
7E015440
7F900040
2FFFFF00
0BFFF800
ENDCHAR
STARTCHAR onethird
ENCODING 8531
SWIDTH 1269 0
DWIDTH 23 0
BBX 23 16 0 -2
BITMAP
055501550000
1D1006000000
7D001E100000
7F802D115500
7FC03D050000
1BC03C491510
0BC07C490010
0A40684FF810
1804184B5510
7C00141F4040
BFFFF51FFD04
BFFFF11D5444
1555E01D0004
0002E57D5550
0002FF7FFF80
0002FC3FFD00
ENDCHAR
STARTCHAR twothirds
ENCODING 8532
SWIDTH 1269 0
DWIDTH 23 0
BBX 23 16 0 -2
BITMAP
055551550000
1D151A000000
3E545E100000
7FE44D015500
7E051D050010
04502C491510
2846BC490010
7849684FF810
B800084B5510
BC00141F4044
BFFFF51FFD04
BFFFF11D5444
1555E01D0004
0001E57D5550
0002FF7FFF80
0002FC3FFD00
ENDCHAR
STARTCHAR oneeighth
ENCODING 8539
SWIDTH 1283 0
DWIDTH 23 0
BBX 23 16 0 -2
BITMAP
055501550000
2D1006000000
7D001E100000
7F802D105540
1BC03D060010
0BC03C490040
0BC07C481D00
0A40684D0850
2C04184D1540
7D5564180004
BFFFF5182E04
7FFFF1281904
0001E0281100
0001E57E4040
0002FFFFFF40
0002FC2FF900
ENDCHAR
STARTCHAR threeeighths
ENCODING 8540
SWIDTH 1293 0
DWIDTH 23 0
BBX 23 16 0 -2
BITMAP
055541550000
2C1417000000
BD512E100000
BFA12E105540
1B052D060510
1F004D050004
1FFC0C490D04
1D500C4A4900
2C00184D1544
7D5578480004
BFFFF4181E04
7FF9F4185900
0000F02C1140
0001F57E4050
0002FFBFFF80
0001FD2FF900
ENDCHAR
STARTCHAR fiveeighths
ENCODING 8541
SWIDTH 1303 0
DWIDTH 23 0
BBX 23 16 0 -2
BITMAP
055550550000
1D1513000000
7D001F100000
7D06AE105540
7D151E120010
7D000D160004
7FFD09060E04
7D540C4A4500
2C000C4A1544
7D55784C0004
7FFFF84C1F00
7FF9B41C4A10
0000F41C1540
0000F56F4010
0001FFBFFF80
0001FD1FF900
ENDCHAR
STARTCHAR seveneighths
ENCODING 8542
SWIDTH 1241 0
DWIDTH 22 0
BBX 22 16 0 -2
BITMAP
055555540000
28001C000000
BD541C400000
BFF818415500
6A8014480040
020024140010
0E11B1243810
2E16F1292440
2E05E1345510
2E56E1310010
2FE2D0607810
2F83D0606800
0003C0B05500
0007D5F90140
0007FEFFFE00
0007F4BFE400
ENDCHAR
STARTCHAR arrowleft
ENCODING 8592
SWIDTH 1100 0
DWIDTH 20 0
BBX 15 13 2 -1
BITMAP
00001400
00004000
00040000
00105150
01011004
09041544
2E011004
7FD053A4
2FF803D0
07FF4240
00BFE400
001FE000
00028000
ENDCHAR
STARTCHAR arrowup
ENCODING 8593
SWIDTH 1100 0
DWIDTH 20 0
BBX 14 15 3 -2
BITMAP
00004000
00051000
00180000
00704400
00D10100
02841000
07055440
0D004010
2EA44A40
7FF84F40
6AF40800
00F40000
00FE9000
00FF8000
00550000
ENDCHAR
STARTCHAR arrowright
ENCODING 8594
SWIDTH 1100 0
DWIDTH 20 0
BBX 14 13 3 -1
BITMAP
00050000
00744000
01F40400
05F44100
24001010
B4550100
F4000010
FEB44140
FFF40900
56F46000
01FA4000
01F80000
00900000
ENDCHAR
STARTCHAR arrowdown
ENCODING 8595
SWIDTH 1100 0
DWIDTH 20 0
BBX 14 15 3 -2
BITMAP
00055000
00240000
00B40000
00F45000
01A44540
1C004010
7E055440
7F441000
2FC10100
0FE04400
07F40000
02FD1000
00FF4000
007D0000
00140000
ENDCHAR
STARTCHAR arrowupleft
ENCODING 8598
SWIDTH 1100 0
DWIDTH 20 0
BBX 12 13 4 -1
BITMAP
010000
141550
740001
F84500
FC4104
BC0410
BD1004
7D0001
7E0A01
3F6F84
3F6FD0
2D0F40
000100
ENDCHAR
STARTCHAR arrowupright
ENCODING 8599
SWIDTH 1100 0
DWIDTH 20 0
BBX 12 13 4 -1
BITMAP
000004
001541
050011
2C0511
BF0411
7F8111
1E0040
040004
280B04
FE1FD4
BF9FE0
2E0740
040000
ENDCHAR
STARTCHAR arrowdownright
ENCODING 8600
SWIDTH 1100 0
DWIDTH 20 0
BBX 12 13 4 -1
BITMAP
004000
011054
040504
280004
BE0040
FF8111
2F4411
090511
2C0011
7FE941
BFFFF9
05BFF4
000140
ENDCHAR
STARTCHAR arrowdownleft
ENCODING 8601
SWIDTH 1100 0
DWIDTH 20 0
BBX 12 13 4 -1
BITMAP
000010
015044
0A0601
2D0011
3D1044
3C0510
7C4104
784540
B40001
B406B8
FEFFD0
FFA400
500000
ENDCHAR
STARTCHAR uni21AA
ENCODING 8618
SWIDTH 1100 0
DWIDTH 20 0
BBX 16 17 2 -3
BITMAP
00155550
01015500
09100000
2D06AA90
3D4BFF40
7D465900
7D478100
7D4B8040
7D014004
7E140441
7F400441
3FEA8014
1FFF8090
01AB4600
000BA400
000F8000
00090000
ENDCHAR
STARTCHAR uni21AB
ENCODING 8619
SWIDTH 1100 0
DWIDTH 20 0
BBX 16 17 2 -3
BITMAP
00555550
02815504
0B800001
0BEAAA11
0BFFFF51
05559F51
00010F51
00101F51
00411511
04050040
1D050004
7F811A90
7FF41F40
0BFE0400
01FFD000
002FD000
00064000
ENDCHAR
STARTCHAR uni21B0
ENCODING 8624
SWIDTH 1100 0
DWIDTH 20 0
BBX 15 15 2 -2
BITMAP
00005000
00010000
00141000
00401500
05050010
1C115504
7F411404
BFE01E14
2FFD1E14
07FF8E14
00BFFE14
001F6E04
00002E04
00002FF4
00002F80
ENDCHAR
STARTCHAR uni21B1
ENCODING 8625
SWIDTH 1100 0
DWIDTH 20 0
BBX 15 15 3 -2
BITMAP
00014000
001D1000
007E0100
006A0040
01001400
18155104
78451010
B41E0140
F42D0900
F42D5000
F42F4000
F4280000
F8100000
FF800000
FE000000
ENDCHAR
STARTCHAR uni21B2
ENCODING 8626
SWIDTH 1100 0
DWIDTH 20 0
BBX 15 15 2 -2
BITMAP
00000154
00000A04
00002E14
00005E14
00010E14
00001E14
00411904
05050044
18050004
7F411550
BFE01F40
2FFD1800
07FF8000
00BFD000
001F4000
ENDCHAR
STARTCHAR uni21B3
ENCODING 8627
SWIDTH 1100 0
DWIDTH 20 0
BBX 15 15 2 -2
BITMAP
01500000
1C040000
7C040000
7C454000
7C4B0400
7C4F4100
7C464010
7D100504
7E055500
7F950414
3FFF4090
0ABF0600
001F2400
001F8000
002D0000
ENDCHAR
STARTCHAR partialdiff
ENCODING 8706
SWIDTH 792 0
DWIDTH 14 0
BBX 14 16 0 -3
BITMAP
01400100
07455040
1F400010
1F954110
1FEA9110
0A000110
09150510
2C014110
7C03D110
BC03D110
BC100110
BD045410
7F400140
7FFAAD00
1FFFF400
01554000
ENDCHAR
STARTCHAR Delta
ENCODING 8710
SWIDTH 830 0
DWIDTH 15 0
BBX 15 15 0 -2
BITMAP
00500100
01C15040
07840440
0B444400
0F40D010
0F11D110
1E11E110
2D12F100
3D13F004
3C12A044
7C100044
7C155504
7C000004
7FFFFFE0
7FFFFF40
ENDCHAR
STARTCHAR product
ENCODING 8719
SWIDTH 859 0
DWIDTH 15 0
BBX 15 15 0 -2
BITMAP
05000004
1D155504
3D100044
7D11A444
7D12F444
7D11F444
7D11F444
7D11F444
7D11F444
7D11F444
7D11F444
7D01F404
7D01F804
7FF8FFE0
3FE0FF80
ENDCHAR
STARTCHAR summation
ENCODING 8721
SWIDTH 750 0
DWIDTH 14 0
BBX 13 17 0 -4
BITMAP
05000040
1D155440
7D000040
7D105540
7E042D00
7F810400
3FE04000
0BF44000
02D10400
01441000
05004000
1C005540
7C155400
BC000000
BD555540
BFFFFE00
6AAAA800
ENDCHAR
STARTCHAR minus
ENCODING 8722
SWIDTH 834 0
DWIDTH 15 0
BBX 15 7 0 2
BITMAP
00555550
05000004
2D155504
3D000004
7FAAAA90
3FFFFF40
15555500
ENDCHAR
STARTCHAR uni2215
ENCODING 8725
SWIDTH 417 0
DWIDTH 8 0
BBX 9 16 -1 -2
BITMAP
001540
00D040
03C440
07C440
078440
0B8400
0B4100
0F4100
0F1100
1F1100
1E1100
2E1000
2D0400
3D5400
7FE000
7F8000
ENDCHAR
STARTCHAR uni2219
ENCODING 8729
SWIDTH 464 0
DWIDTH 8 0
BBX 8 8 0 2
BITMAP
0155
1801
7C01
BC11
BC01
BD55
BFF8
7FE0
ENDCHAR
STARTCHAR radical
ENCODING 8730
SWIDTH 841 0
DWIDTH 15 0
BBX 16 17 0 -2
BITMAP
00000154
00000901
00002C00
00007C44
00007844
0000B444
0401F400
7801F110
F800E110
F904A110
FF845000
AFC00440
0BD10440
07F05040
03F40000
02FFFD00
01FFE000
ENDCHAR
STARTCHAR infinity
ENCODING 8734
SWIDTH 978 0
DWIDTH 18 0
BBX 18 13 0 -1
BITMAP
0055415500
0100000040
0814450400
3C45159110
7C4B51E110
BC4B41E110
BC4B55E110
BC41144110
BC15415400
BE40240140
7FFFFFFD00
2FFEFFE000
0150150000
ENDCHAR
STARTCHAR integral
ENCODING 8747
SWIDTH 574 0
DWIDTH 10 0
BBX 11 19 0 -4
BITMAP
000550
005004
018104
074404
0F44A0
0F4440
1F4440
1F4440
1F4440
1F4440
1F4440
1F4440
1F4440
180440
745040
F40100
F96400
FFD000
AA4000
ENDCHAR
STARTCHAR approxequal
ENCODING 8776
SWIDTH 834 0
DWIDTH 15 0
BBX 15 12 0 0
BITMAP
00150010
01000504
09155004
3D000000
7EAA9590
7FFFFF40
2A405950
09150004
2D000504
3E6A5050
7FFFFF80
3AABF900
ENDCHAR
STARTCHAR notequal
ENCODING 8800
SWIDTH 834 0
DWIDTH 15 0
BBX 15 15 0 -2
BITMAP
00005400
00060100
01001010
1D155504
3D000004
7EA84690
7FFC4B80
2AA44650
09004004
2D155504
7D000010
7FF01FD0
3FFABF40
01FF4000
01A90000
ENDCHAR
STARTCHAR lessequal
ENCODING 8804
SWIDTH 814 0
DWIDTH 15 0
BBX 13 16 1 -2
BITMAP
00000100
00005040
00540040
01005040
18140100
7841BD00
F84BE000
F8401400
FC050040
FF401040
BEA40040
28000040
B8155040
F8000040
FFFFFE00
FFFFF400
ENDCHAR
STARTCHAR greaterequal
ENCODING 8805
SWIDTH 814 0
DWIDTH 15 0
BBX 13 16 1 -2
BITMAP
01000000
18140000
78005400
B8140100
BD005040
BFF90440
6FFF8440
02900440
04015000
28100500
B8006500
B8000040
B8155040
B8000040
BFFFFE00
BFFFF800
ENDCHAR
STARTCHAR block
ENCODING 9608
SWIDTH 1000 0
DWIDTH 18 0
BBX 20 21 -1 -4
BITMAP
1555555554
AAAAAAAAAA
BFFFFFFFFE
BFFFFFFFFE
BFFFFFFFFE
BFFFFFFFFE
BFFFFFFFFE
BFFFFFFFFE
BFFFFFFFFE
BFFFFFFFFE
BFFFFFFFFE
BFFFFFFFFE
BFFFFFFFFE
BFFFFFFFFE
BFFFFFFFFE
BFFFFFFFFE
BFFFFFFFFE
BFFFFFFFFE
BFFFFFFFFE
AAAAAAAAAA
5555555555
ENDCHAR
STARTCHAR blacksquare
ENCODING 9632
SWIDTH 1100 0
DWIDTH 20 0
BBX 12 11 4 0
BITMAP
015554
080001
3C0001
7C1041
7C1041
7C1041
7C0001
7C0001
7EAAA4
7FFFE0
2AAA40
ENDCHAR
STARTCHAR blackuppointingtriangle
ENCODING 9650
SWIDTH 1100 0
DWIDTH 20 0
BBX 12 11 4 0
BITMAP
000500
002040
009000
028010
074104
0A0400
1C0541
340000
BAAAA9
FFFFF8
AAAAA0
ENDCHAR
STARTCHAR whiteuppointingtriangle
ENCODING 9651
SWIDTH 1100 0
DWIDTH 20 0
BBX 10 9 6 2
BITMAP
005000
010400
010400
040100
140040
100040
400010
400010
555550
ENDCHAR
STARTCHAR blackrightpointingtriangle
ENCODING 9654
SWIDTH 1100 0
DWIDTH 20 0
BBX 12 13 4 -1
BITMAP
014000
1C1000
7C0100
7C0040
7C1404
7C1101
7C1004
7C0050
7C0640
7C2800
7E8000
7D0000
100000
ENDCHAR
STARTCHAR whiterightpointingtriangle
ENCODING 9655
SWIDTH 1100 0
DWIDTH 20 0
BBX 10 11 6 1
BITMAP
140000
450000
405000
400500
400140
400050
400140
400500
405000
450000
140000
ENDCHAR
STARTCHAR blackdownpointingtriangle
ENCODING 9660
SWIDTH 1100 0
DWIDTH 20 0
BBX 13 11 3 0
BITMAP
01555540
1D000000
7F055040
3F810100
2FD04000
0FE00400
07F40000
02FC1000
00FE4000
007E0000
00240000
ENDCHAR
STARTCHAR whitedownpointingtriangle
ENCODING 9661
SWIDTH 1100 0
DWIDTH 20 0
BBX 10 9 6 2
BITMAP
555550
400010
400010
100040
040140
040100
010400
014400
005000
ENDCHAR
STARTCHAR blackleftpointingtriangle
ENCODING 9664
SWIDTH 1100 0
DWIDTH 20 0
BBX 12 13 4 -1
BITMAP
000004
000041
000401
001001
010041
080401
3E4041
7FE001
2FFD01
06FF81
007FF8
000BE0
000140
ENDCHAR
STARTCHAR whiteleftpointingtriangle
ENCODING 9665
SWIDTH 1100 0
DWIDTH 20 0
BBX 9 11 7 1
BITMAP
000500
001440
014040
140040
500040
400040
500040
040040
014040
001440
000100
ENDCHAR
STARTCHAR blackdiamond
ENCODING 9670
SWIDTH 1100 0
DWIDTH 20 0
BBX 14 13 3 -1
BITMAP
00014000
00041000
00100400
00404100
01001040
08041010
2D000040
BF400100
7FD00400
1FF41000
07FD4000
01FE0000
00780000
ENDCHAR
STARTCHAR lozenge
ENCODING 9674
SWIDTH 831 0
DWIDTH 15 0
BBX 14 15 0 -2
BITMAP
00100100
00905000
02800440
07444400
0B00D110
1D11E100
2D12F000
3D11E100
7F00D110
3F444400
2F840440
0FD05000
0BE00100
07FFF800
02FFE000
ENDCHAR
STARTCHAR uni25D6
ENCODING 9686
SWIDTH 546 0
DWIDTH 10 0
BBX 11 21 0 -4
BITMAP
000010
0016A4
00AFF8
06FFF8
0BFFF8
2FFFF8
6FFFF8
7FFFF8
BFFFF8
BFFFF8
BFFFF8
BFFFF8
BFFFF8
7FFFF8
6FFFF8
2FFFF8
0BFFF8
06FFF8
01BFF8
001AA4
000010
ENDCHAR
STARTCHAR uni25D7
ENCODING 9687
SWIDTH 546 0
DWIDTH 10 0
BBX 11 20 -1 -4
BITMAP
AA5000
BFE800
BFFE00
BFFF80
BFFFD0
BFFFE0
BFFFF4
BFFFF4
BFFFF8
BFFFF8
BFFFF8
BFFFF4
BFFFF4
BFFFE0
BFFFD0
BFFF80
BFFE40
BFE800
AA5000
500000
ENDCHAR
STARTCHAR uni25DC
ENCODING 9692
SWIDTH 1280 0
DWIDTH 23 0
BBX 21 21 1 -4
BITMAP
000000005500
000005AAAA40
00006BFFFE40
0006FFFFFE40
002BFFFFFE40
00BFFFFFFE40
01BFFFFFFE40
02FFFFFFFE40
07FFFFFFFE40
0BFFFFFFFE40
1BFFFFFFFE40
1FFFFFFFFE40
2FFFFFFFFE40
2FFFFFFFFE40
2FFFFFFFFE40
2FFFFFFFFE40
6FFFFFFFFE40
6FFFFFFFFE40
6FFFFFFFFE40
6AAAAAAAAA40
155555555500
ENDCHAR
STARTCHAR uni25DD
ENCODING 9693
SWIDTH 1280 0
DWIDTH 23 0
BBX 21 21 1 -4
BITMAP
154000000000
6AAA94000000
6FFFFA400000
6FFFFFE40000
6FFFFFFA0000
6FFFFFFF8000
6FFFFFFF9000
6FFFFFFFE000
6FFFFFFFF400
6FFFFFFFF800
6FFFFFFFF900
6FFFFFFFFD00
6FFFFFFFFE00
6FFFFFFFFE00
6FFFFFFFFE00
6FFFFFFFFE40
6FFFFFFFFE40
6FFFFFFFFE40
6FFFFFFFFE40
6AAAAAAAAA40
155555555500
ENDCHAR
STARTCHAR uni25DE
ENCODING 9694
SWIDTH 1280 0
DWIDTH 23 0
BBX 21 21 1 -4
BITMAP
155555555500
6AAAAAAAAA40
6FFFFFFFFE40
6FFFFFFFFE40
6FFFFFFFFE40
6FFFFFFFFE40
6FFFFFFFFE00
6FFFFFFFFE00
6FFFFFFFFE00
6FFFFFFFFD00
6FFFFFFFF900
6FFFFFFFF800
6FFFFFFFF400
6FFFFFFFE000
6FFFFFFF9000
6FFFFFFF8000
6FFFFFFA0000
6FFFFFE40000
6FFFFA400000
6AAA94000000
155000000000
ENDCHAR
STARTCHAR uni25DF
ENCODING 9695
SWIDTH 1280 0
DWIDTH 23 0
BBX 21 21 1 -4
BITMAP
155555555500
6AAAAAAAAA40
6FFFFFFFFE40
6FFFFFFFFE40
6FFFFFFFFE40
2FFFFFFFFE40
2FFFFFFFFE40
2FFFFFFFFE40
2FFFFFFFFE40
1FFFFFFFFE40
1BFFFFFFFE40
0BFFFFFFFE40
07FFFFFFFE40
02FFFFFFFE40
01BFFFFFFE40
00BFFFFFFE40
002BFFFFFE40
0006FFFFFE40
00006BFFFE40
000005AAAA40
000000015500
ENDCHAR
STARTCHAR uni261A
ENCODING 9754
SWIDTH 1100 0
DWIDTH 20 0
BBX 16 13 2 -1
BITMAP
00000014
01555481
14000041
79540041
FFE00041
ABF50041
02F40041
01F90041
01F80041
00FFFFC1
00BFFFF8
00000BE0
00000140
ENDCHAR
STARTCHAR uni261B
ENCODING 9755
SWIDTH 1100 0
DWIDTH 20 0
BBX 16 13 2 -1
BITMAP
01400000
08115554
78100001
B8100155
B81000B8
B81005A0
B8100000
B8100500
B8100100
BC2FF800
BFFFE000
BE000000
14000000
ENDCHAR
STARTCHAR uni261C
ENCODING 9756
SWIDTH 1100 0
DWIDTH 20 0
BBX 14 11 4 1
BITMAP
00000140
15554590
400018A0
555004A0
010004A0
009004A0
004004A0
005404A0
005558A0
00005590
00000140
ENDCHAR
STARTCHAR uni261D
ENCODING 9757
SWIDTH 1100 0
DWIDTH 20 0
BBX 10 13 6 0
BITMAP
150000
110000
110000
125000
115940
114440
100040
100040
100040
100040
655590
400010
BFFFE0
ENDCHAR
STARTCHAR uni261E
ENCODING 9758
SWIDTH 1100 0
DWIDTH 20 0
BBX 14 11 4 1
BITMAP
14000000
61155540
62400010
61005550
61000400
61006400
61001000
61005000
62555000
61100000
14000000
ENDCHAR
STARTCHAR uni261F
ENCODING 9759
SWIDTH 1100 0
DWIDTH 20 0
BBX 10 13 6 0
BITMAP
BFFFE0
400010
555590
100040
100040
100040
100040
111040
161440
005840
000440
000440
000540
ENDCHAR
STARTCHAR uni27A1
ENCODING 10145
SWIDTH 650 0
DWIDTH 12 0
BBX 13 27 -1 -7
BITMAP
19000000
2E400000
2F800000
2FE00000
BFF40000
BFF90000
BFFE0000
BFFF8000
BFFFD000
BFFFE400
BFFFF800
BFFFFE00
BFFFFE40
BFFFFF40
BFFFFE40
BFFFFE00
BFFFF800
BFFFE400
BFFFD000
BFFF8000
BFFE0000
BFF90000
BFF40000
6FE00000
2F800000
2E400000
19000000
ENDCHAR
STARTCHAR uni2B1B
ENCODING 11035
SWIDTH 1280 0
DWIDTH 23 0
BBX 21 21 1 -4
BITMAP
155555555500
6AAAAAAAAA40
6FFFFFFFFE40
6FFFFFFFFE40
6FFFFFFFFE40
6FFFFFFFFE40
6FFFFFFFFE40
6FFFFFFFFE40
6FFFFFFFFE40
6FFFFFFFFE40
6FFFFFFFFE40
6FFFFFFFFE40
6FFFFFFFFE40
6FFFFFFFFE40
6FFFFFFFFE40
6FFFFFFFFE40
6FFFFFFFFE40
6FFFFFFFFE40
6FFFFFFFFE40
6AAAAAAAAA40
155555555500
ENDCHAR
STARTCHAR uni2B24
ENCODING 11044
SWIDTH 1280 0
DWIDTH 23 0
BBX 21 21 1 -4
BITMAP
000055400000
001AFFE90000
00AFFFFF8000
02FFFFFFE000
0BFFFFFFF800
1FFFFFFFFD00
2FFFFFFFFE00
6FFFFFFFFE40
7FFFFFFFFF40
7FFFFFFFFF40
BFFFFFFFFF80
7FFFFFFFFF80
7FFFFFFFFF40
7FFFFFFFFF40
2FFFFFFFFE00
1FFFFFFFFE00
0BFFFFFFF900
06FFFFFFE400
01BFFFFF9000
006BFFFA4000
0005AA940000
ENDCHAR
STARTCHAR A.salt
ENCODING 57600
SWIDTH 836 0
DWIDTH 15 0
BBX 15 16 0 -2
BITMAP
00055400
00400040
01015410
0D100104
3D11A004
3D13F044
7D12F044
7D115044
7D100044
7D100044
7D115044
7D13F044
7D02F004
7D02F404
7FF9FFE0
7FD1FF40
ENDCHAR
STARTCHAR Agrave.salt
ENCODING 57601
SWIDTH 836 0
DWIDTH 15 0
BBX 15 20 0 -2
BITMAP
00150000
00801500
07C15040
0BD40040
0BFEAA40
07900040
01015410
0D100104
3D11A004
3D13F044
7D12F044
7D115044
7D100044
7D100044
7D115044
7D13F044
7D02F004
7D02F404
7FF9FFE0
7FD1FF40
ENDCHAR
STARTCHAR Aacute.salt
ENCODING 57602
SWIDTH 836 0
DWIDTH 15 0
BBX 15 20 0 -2
BITMAP
00000500
00150040
00C15440
07C00140
07EAAE00
07900040
06015410
0D100104
3D11A004
3D13F044
7D12F044
7D115044
7D100044
7D100044
7D115044
7D13F044
7D02F004
7D02F404
7FF9FFE0
7FD1FF40
ENDCHAR
STARTCHAR Acircumflex.salt
ENCODING 57603
SWIDTH 836 0
DWIDTH 15 0
BBX 15 20 0 -2
BITMAP
00015000
00100100
01811040
07C05040
0BEAAE40
0B900040
06015410
0D100104
3D11A004
3D13F044
7D12F044
7D115044
7D100044
7D100044
7D115044
7D13F044
7D02F004
7D02F404
7FF9FFE0
7FD1FF40
ENDCHAR
STARTCHAR Atilde.salt
ENCODING 57604
SWIDTH 836 0
DWIDTH 15 0
BBX 15 19 0 -2
BITMAP
00505540
01C15040
07C00040
0BEA9600
0B900040
06015410
0D100104
3D11A004
3D13F044
7D12F044
7D115044
7D100044
7D100044
7D115044
7D13F044
7D02F004
7D02F404
7FF9FFE0
7FD1FF40
ENDCHAR
STARTCHAR Adieresis.salt
ENCODING 57605
SWIDTH 836 0
DWIDTH 15 0
BBX 15 20 0 -2
BITMAP
00140500
01409040
07408040
0F40C040
0FEAAA40
0F900040
06015410
0D100104
3D11A004
3D13F044
7D12F044
7D115044
7D100044
7D100044
7D115044
7D13F044
7D02F004
7D02F404
7FF9FFE0
7FD1FF40
ENDCHAR
STARTCHAR Aring.salt
ENCODING 57606
SWIDTH 836 0
DWIDTH 15 0
BBX 15 20 0 -2
BITMAP
00055400
00505000
01840440
0785E140
0B85E140
0B850440
0A015410
0D100104
3D11A004
3D13F044
7D12F044
7D115044
7D100044
7D100044
7D115044
7D13F044
7D02F004
7D02F404
7FF9FFE0
7FD1FF40
ENDCHAR
STARTCHAR Amacron.salt
ENCODING 57607
SWIDTH 836 0
DWIDTH 15 0
BBX 15 19 0 -2
BITMAP
00555500
01C15040
07C00040
0BEA5A40
0B900040
06015410
0D100104
3D11A004
3D13F044
7D12F044
7D115044
7D100044
7D100044
7D115044
7D13F044
7D02F004
7D02F404
7FF9FFE0
7FD1FF40
ENDCHAR
STARTCHAR Abreve.salt
ENCODING 57608
SWIDTH 836 0
DWIDTH 15 0
BBX 15 20 0 -2
BITMAP
00551540
01806040
07C40440
0BD05000
0BF95900
07900040
01015410
0D100104
3D11A004
3D13F044
7D12F044
7D115044
7D100044
7D100044
7D115044
7D13F044
7D02F004
7D02F404
7FF9FFE0
7FD1FF40
ENDCHAR
STARTCHAR Aogonek.salt
ENCODING 57609
SWIDTH 836 0
DWIDTH 15 0
BBX 15 20 0 -6
BITMAP
00055400
00400040
01015410
0D100104
3D11A004
3D13F044
7D12F044
7D115044
7D100044
7D100044
7D115044
7D13F044
7D02F004
7D02F104
7FF9E120
7FD2E104
0002F004
0002FEA0
0002FF80
00005500
ENDCHAR
STARTCHAR E.salt
ENCODING 57610
SWIDTH 743 0
DWIDTH 13 0
BBX 13 15 0 -2
BITMAP
00500040
01055440
09100040
2C11AA40
7C12AE00
7C100100
7C154100
7C100100
7C13F800
7C11A500
7D100040
7E055440
3F900040
2FFFFF40
0BFFF800
ENDCHAR
STARTCHAR Egrave.salt
ENCODING 57611
SWIDTH 743 0
DWIDTH 13 0
BBX 13 20 0 -2
BITMAP
00540000
02401500
0B455000
0F900000
0FFFEA00
0B900040
02055440
09100040
2C11AA40
7C12AE00
7C100100
7C154100
7C100100
7C13F800
7C11A500
7D100040
7E055440
3F900040
2FFFFF40
0BFFF800
ENDCHAR
STARTCHAR Eacute.salt
ENCODING 57612
SWIDTH 743 0
DWIDTH 13 0
BBX 13 20 0 -2
BITMAP
00001500
00550040
01815040
0B800500
0BEAFD00
0B900040
06055440
09100040
2C11AA40
7C12AE00
7C100100
7C154100
7C100100
7C13F800
7C11A500
7D100040
7E055440
3F900040
2FFFFF40
0BFFF800
ENDCHAR
STARTCHAR Ecircumflex.salt
ENCODING 57613
SWIDTH 743 0
DWIDTH 13 0
BBX 13 20 0 -2
BITMAP
00015000
00500100
02851040
0B814040
0FAFFE00
0F900040
0A055440
09100040
2C11AA40
7C12AE00
7C100100
7C154100
7C100100
7C13F800
7C11A500
7D100040
7E055440
3F900040
2FFFFF40
0BFFF800
ENDCHAR
STARTCHAR Edieresis.salt
ENCODING 57614
SWIDTH 743 0
DWIDTH 13 0
BBX 13 20 0 -2
BITMAP
00140500
01408040
0B40C040
1F40C040
1FEAEA40
1F900040
06055440
09100040
2C11AA40
7C12AE00
7C100100
7C154100
7C100100
7C13F800
7C11A500
7D100040
7E055440
3F900040
2FFFFF40
0BFFF800
ENDCHAR
STARTCHAR Emacron.salt
ENCODING 57615
SWIDTH 743 0
DWIDTH 13 0
BBX 13 19 0 -2
BITMAP
00555500
02815040
0B800040
0BEAAA00
0B900040
06055440
09100040
2C11AA40
7C12AE00
7C100100
7C154100
7C100100
7C13F800
7C11A500
7D100040
7E055440
3F900040
2FFFFF40
0BFFF800
ENDCHAR
STARTCHAR Ebreve.salt
ENCODING 57616
SWIDTH 743 0
DWIDTH 13 0
BBX 13 20 0 -2
BITMAP
00551500
02819040
0B840440
0FD15100
0BFAA900
07900040
02055440
09100040
2C11AA40
7C12AE00
7C100100
7C154100
7C100100
7C13F800
7C11A500
7D100040
7E055440
3F900040
2FFFFF40
0BFFF800
ENDCHAR
STARTCHAR Edotaccent.salt
ENCODING 57617
SWIDTH 743 0
DWIDTH 13 0
BBX 13 20 0 -2
BITMAP
00015000
00140400
00B44400
00F40400
00FEA400
00900040
01055440
09100040
2C11AA40
7C12AE00
7C100100
7C154100
7C100100
7C13F800
7C11A500
7D100040
7E055440
3F900040
2FFFFF40
0BFFF800
ENDCHAR
STARTCHAR Eogonek.salt
ENCODING 57618
SWIDTH 743 0
DWIDTH 13 0
BBX 13 19 0 -6
BITMAP
00500040
01015440
09100040
2C11AA40
7C12AE00
7C100100
7C154100
7C100100
7C13F800
7C11A500
7D100040
7E055440
3F900040
2FFF4140
0BFF4040
001F8040
001FEA40
000FFD00
00015400
ENDCHAR
STARTCHAR Ecaron.salt
ENCODING 57619
SWIDTH 743 0
DWIDTH 13 0
BBX 13 20 0 -2
BITMAP
00540500
02804040
0B815040
0FE00500
0FFEA900
06900040
01055440
09100040
2C11AA40
7C12AE00
7C100100
7C154100
7C100100
7C13F800
7C11A500
7D100040
7E055440
3F900040
2FFFFF40
0BFFF800
ENDCHAR
STARTCHAR I.salt
ENCODING 57620
SWIDTH 471 0
DWIDTH 8 0
BBX 8 15 0 -2
BITMAP
0501
1D01
3D11
7D11
7D11
7D11
7D11
7D11
7D11
7D11
7D11
7D01
7D01
7FF8
3FE0
ENDCHAR
STARTCHAR Igrave.salt
ENCODING 57621
SWIDTH 471 0
DWIDTH 8 0
BBX 9 20 0 -2
BITMAP
014000
080040
785400
BD0000
BFFA40
BD0100
1D0100
3D1100
7D1100
7D1100
7D1100
7D1100
7D1100
7D1100
7D1100
7D1100
7D0100
7D0100
7FF800
3FE000
ENDCHAR
STARTCHAR Iacute.salt
ENCODING 57622
SWIDTH 471 0
DWIDTH 8 0
BBX 9 20 0 -2
BITMAP
000540
054000
181400
7C0140
BEBE00
BD0100
6D0100
3D1100
7D1100
7D1100
7D1100
7D1100
7D1100
7D1100
7D1100
7D1100
7D0100
7D0100
7FF800
3FE000
ENDCHAR
STARTCHAR Icircumflex.salt
ENCODING 57623
SWIDTH 471 0
DWIDTH 8 0
BBX 9 20 0 -2
BITMAP
005400
040040
744440
B45440
FFFF40
BD0100
1D0100
3D1100
7D1100
7D1100
7D1100
7D1100
7D1100
7D1100
7D1100
7D1100
7D0100
7D0100
7FF800
3FE000
ENDCHAR
STARTCHAR Idieresis.salt
ENCODING 57624
SWIDTH 471 0
DWIDTH 8 0
BBX 10 20 0 -2
BITMAP
010140
202410
B02410
F02410
FABA90
FD0240
1D0100
3D1100
7D1100
7D1100
7D1100
7D1100
7D1100
7D1100
7D1100
7D1100
7D0100
7D0100
7FF800
3FE000
ENDCHAR
STARTCHAR Itilde.salt
ENCODING 57625
SWIDTH 471 0
DWIDTH 8 0
BBX 9 19 0 -2
BITMAP
041540
705040
B00040
BBEA40
AD0100
1D0100
3D1100
7D1100
7D1100
7D1100
7D1100
7D1100
7D1100
7D1100
7D1100
7D0100
7D0100
7FF800
3FE000
ENDCHAR
STARTCHAR Imacron.salt
ENCODING 57626
SWIDTH 471 0
DWIDTH 8 0
BBX 9 19 0 -2
BITMAP
055500
281040
B80040
FEAA00
FD0100
6D0100
3D1100
7D1100
7D1100
7D1100
7D1100
7D1100
7D1100
7D1100
7D1100
7D0100
7D0100
7FF800
3FE000
ENDCHAR
STARTCHAR Ibreve.salt
ENCODING 57627
SWIDTH 471 0
DWIDTH 8 0
BBX 10 20 -1 -2
BITMAP
015550
1C0810
7C4010
7E0410
7FEA40
3F4040
0B4040
0F4440
1F4440
1F4440
1F4440
1F4440
1F4440
1F4440
1F4440
1F4440
1F4040
1F4040
1FFE00
0FF800
ENDCHAR
STARTCHAR Iogonek.salt
ENCODING 57628
SWIDTH 471 0
DWIDTH 8 0
BBX 8 19 0 -6
BITMAP
0101
1D01
3D11
3D11
3D11
3D11
3D11
3D11
3D11
3D11
3D11
3D11
3D41
3D49
3C41
7D01
7FA9
7FF4
1540
ENDCHAR
STARTCHAR Idotaccent.salt
ENCODING 57629
SWIDTH 471 0
DWIDTH 8 0
BBX 8 20 0 -2
BITMAP
0154
0901
2D11
3D01
7FA9
3D01
2D01
3D11
7D11
7D11
7D11
7D11
7D11
7D11
7D11
7D11
7D01
7D01
7FF8
3FE0
ENDCHAR
STARTCHAR L.salt
ENCODING 57630
SWIDTH 715 0
DWIDTH 13 0
BBX 13 15 0 -2
BITMAP
05010000
1D010000
3D110000
7D110000
7D110000
7D110000
7D110000
7D110000
7D110000
7D115500
7D100040
7D055440
7D000040
7FFFFF00
3FFFF800
ENDCHAR
STARTCHAR Lacute.salt
ENCODING 57631
SWIDTH 715 0
DWIDTH 13 0
BBX 13 20 0 -2
BITMAP
00005400
01500000
09154000
3D001400
7EAFE000
7D028000
3D010000
3D110000
7D110000
7D110000
7D110000
7D110000
7D110000
7D110000
7D115500
7D100040
7D055440
7D000040
7FFFFF00
3FFFF800
ENDCHAR
STARTCHAR Lcommaaccent.salt
ENCODING 57632
SWIDTH 715 0
DWIDTH 13 0
BBX 13 22 0 -9
BITMAP
05010000
1D010000
3D110000
7D110000
7D110000
7D110000
7D110000
7D110000
7D110000
7D115500
7D100040
7D055440
7D000040
7FFEAF00
3FF00800
01F14400
02F00400
02FA4000
01F54000
00F99000
01FF0000
00A40000
ENDCHAR
STARTCHAR Lcaron.salt
ENCODING 57633
SWIDTH 715 0
DWIDTH 13 0
BBX 14 15 0 -2
BITMAP
05015010
1D01D000
3D12C440
7D12C040
7D12C040
7D12FD00
7D12F400
7D110000
7D110000
7D115500
7D100040
7D055440
7D000040
7FFFFF00
3FFFF800
ENDCHAR
STARTCHAR Ldot.salt
ENCODING 57634
SWIDTH 715 0
DWIDTH 13 0
BBX 13 15 0 -2
BITMAP
05010000
1D010000
3D110000
7D115540
7D118000
7D12C000
7D12C000
7D12FF40
7D12FD00
7D115500
7D100040
7D055440
7D000040
7FFFFF00
3FFFF800
ENDCHAR
STARTCHAR Lslash.salt
ENCODING 57635
SWIDTH 725 0
DWIDTH 13 0
BBX 13 15 0 -2
BITMAP
01010000
1D010000
3D110000
3D114000
3D101000
34141000
B4101000
F8118000
FD110000
FD105540
3D100040
3D055440
3E000040
3FFFFF40
3FFFFC00
ENDCHAR
STARTCHAR M.salt
ENCODING 57636
SWIDTH 1170 0
DWIDTH 21 0
BBX 21 16 0 -2
BITMAP
000550154000
004001400400
010150154100
1D1001401040
3D11910A0040
3D12E11F0440
7D12E11F0440
7D12E11F0440
7D12E11F0440
7D12E11F0440
7D12E11F0440
7D12E11F0440
7D02E01F0040
7D02E01F4040
7FFAFFEFFE00
7FD2FE1FF400
ENDCHAR
STARTCHAR N.salt
ENCODING 57637
SWIDTH 846 0
DWIDTH 15 0
BBX 15 16 0 -2
BITMAP
00055400
00500040
01015400
0D100104
3D11A044
3D12F444
7D12F444
7D11F444
7D11F444
7D11F444
7D11F444
7D11F444
7D01F404
7D01F404
7FF9FFE0
7FD1FF80
ENDCHAR
STARTCHAR Ntilde.salt
ENCODING 57638
SWIDTH 846 0
DWIDTH 15 0
BBX 15 19 0 -2
BITMAP
00105540
01C15040
07C00040
0BEA9600
07900050
06015400
0D100104
3D11A044
3D12F444
7D12F444
7D11F444
7D11F444
7D11F444
7D11F444
7D11F444
7D01F404
7D01F404
7FF9FFE0
7FD1FF80
ENDCHAR
STARTCHAR Nacute.salt
ENCODING 57639
SWIDTH 846 0
DWIDTH 15 0
BBX 15 20 0 -2
BITMAP
00000500
00150040
00915440
03D00140
07EAAE00
07900050
06015400
0D100104
3D11A044
3D12F444
7D12F444
7D11F444
7D11F444
7D11F444
7D11F444
7D11F444
7D01F404
7D01F404
7FF9FFE0
7FD1FF80
ENDCHAR
STARTCHAR Ncommaaccent.salt
ENCODING 57640
SWIDTH 846 0
DWIDTH 15 0
BBX 15 23 0 -9
BITMAP
00055400
00500040
01015400
0D100104
3D11A044
3D12F444
7D12F444
7D11F444
7D11F444
7D11F444
7D11F444
7D11F444
7D01F404
7D01F404
7FF9AFE0
7FE80380
00785000
00B81000
00BE9000
00BC4400
007E5000
00BF8000
00690000
ENDCHAR
STARTCHAR Ncaron.salt
ENCODING 57641
SWIDTH 846 0
DWIDTH 15 0
BBX 15 20 0 -2
BITMAP
00540540
01C04040
07C15400
0BE40100
07FE6D00
02900040
01015400
0D100104
3D11A044
3D12F444
7D12F444
7D11F444
7D11F444
7D11F444
7D11F444
7D11F444
7D01F404
7D01F404
7FF9FFE0
7FD1FF80
ENDCHAR
STARTCHAR W.salt
ENCODING 57642
SWIDTH 1170 0
DWIDTH 21 0
BBX 21 16 0 -3
BITMAP
050120114040
1D01E01B0040
7D02E11F0440
7D02E11F0440
7D02E11F0440
7D02E11F0440
7D02E11F0440
7D02E11F0440
7D02E11F0440
7D01910A0440
7D1001400040
7E0500014000
3F8001400400
2FFEBFFAA000
0BFFEFFF8000
005501540000
ENDCHAR
STARTCHAR Wcircumflex.salt
ENCODING 57643
SWIDTH 1170 0
DWIDTH 21 0
BBX 21 21 0 -3
BITMAP
000005400000
000040040000
000704510000
001F01410000
002FBFF90000
0503E0154040
1D01E01B0040
7D02E11F0440
7D02E11F0440
7D02E11F0440
7D02E11F0440
7D02E11F0440
7D02E11F0440
7D02E11F0440
7D01910A0440
7D1001400040
7E0500014000
3F8001400400
2FFEBFFAA000
0BFFEFFF8000
005501540000
ENDCHAR
STARTCHAR Wgrave.salt
ENCODING 57644
SWIDTH 1170 0
DWIDTH 21 0
BBX 21 21 0 -3
BITMAP
000054000000
000600540000
001E05410000
002F50010000
002FFFA80000
0503E0114040
1D01E01B0040
7D02E11F0440
7D02E11F0440
7D02E11F0440
7D02E11F0440
7D02E11F0440
7D02E11F0440
7D02E11F0440
7D01910A0440
7D1001400040
7E0500014000
3F8001400400
2FFEBFFAA000
0BFFEFFF8000
005501540000
ENDCHAR
STARTCHAR Wacute.salt
ENCODING 57645
SWIDTH 1170 0
DWIDTH 21 0
BBX 21 21 0 -3
BITMAP
000000140000
000054010000
000305510000
001F00050000
001FABF80000
0503E0114040
1D02E01B0040
7D02E11F0440
7D02E11F0440
7D02E11F0440
7D02E11F0440
7D02E11F0440
7D02E11F0440
7D02E11F0440
7D01910A0440
7D1001400040
7E0500014000
3F8001400400
2FFEBFFAA000
0BFFEFFF8000
005501540000
ENDCHAR
STARTCHAR Wdieresis.salt
ENCODING 57646
SWIDTH 1170 0
DWIDTH 21 0
BBX 21 21 0 -3
BITMAP
000050140000
000502410000
001D02010000
003D03410000
003FABA90000
0503E0154040
1D02E01B0040
7D02E11F0440
7D02E11F0440
7D02E11F0440
7D02E11F0440
7D02E11F0440
7D02E11F0440
7D02E11F0440
7D01910A0440
7D1001400040
7E0500014000
3F8001400400
2FFEBFFAA000
0BFFEFFF8000
005501540000
ENDCHAR
STARTCHAR X.salt
ENCODING 57647
SWIDTH 837 0
DWIDTH 15 0
BBX 15 15 0 -2
BITMAP
06011010
1E01A010
3F00D110
2F44D010
1F848000
0E040410
0D055404
2C100004
7C11A044
7C12F444
7C12F444
7C02F404
7D02F404
7FF9FFE0
7FD1FF40
ENDCHAR
STARTCHAR Y.salt
ENCODING 57648
SWIDTH 806 0
DWIDTH 15 0
BBX 14 15 0 -2
BITMAP
08002010
2C01B000
BC42F000
BC42F000
BC42F000
BC02E100
BC100100
BD055410
7F404040
3FF44600
1FF44400
01F40400
01F40400
01FFE000
00FF8000
ENDCHAR
STARTCHAR Yacute.salt
ENCODING 57649
SWIDTH 806 0
DWIDTH 15 0
BBX 14 20 0 -2
BITMAP
00001500
00550040
01815040
07800540
0BEAFD00
0803F010
2C01B000
BC42F000
BC42F000
BC42F000
BC02E100
BC100100
BD055410
7F404040
3FF44600
1FF44400
01F40400
01F40400
01FFE000
00FF8000
ENDCHAR
STARTCHAR Ycircumflex.salt
ENCODING 57650
SWIDTH 806 0
DWIDTH 15 0
BBX 14 20 0 -2
BITMAP
00015000
00500100
01811040
0B815040
0FEFFE40
0C03F010
2C01F000
BC42F000
BC42F000
BC42F000
BC02E100
BC100100
BD055410
7F404040
3FF44600
1FF44400
01F40400
01F40400
01FFE000
00FF8000
ENDCHAR
STARTCHAR Ydieresis.salt
ENCODING 57651
SWIDTH 806 0
DWIDTH 15 0
BBX 14 20 0 -2
BITMAP
00141500
01408040
0B40C040
1F40C040
1FAAEA40
1C03F010
2C02F000
BC42F000
BC42F000
BC42F000
BC02E100
BC100100
BD055410
7F404040
3FF44600
1FF44400
01F40400
01F40400
01FFE000
00FF8000
ENDCHAR
STARTCHAR Ygrave.salt
ENCODING 57652
SWIDTH 806 0
DWIDTH 15 0
BBX 14 20 0 -2
BITMAP
00550000
01401500
0B415040
0F900040
0FFFEA40
0C03F010
2C02F000
BC42F000
BC42F000
BC42F000
BC02E100
BC100100
BD055410
7F404040
3FF44600
1FF44400
01F40400
01F40400
01FFE000
00FF8000
ENDCHAR
STARTCHAR AE.salt
ENCODING 57653
SWIDTH 1113 0
DWIDTH 20 0
BBX 20 15 0 -2
BITMAP
0014000001
0101555541
0910004001
2D11A046A8
3D13F04AB4
7D12F04000
7D11505500
7D10004000
7D10004BD0
7D11504654
7D13F04001
7D02F05541
7D02F40001
7FF9FFFFF8
7FD1FFFFE0
ENDCHAR
STARTCHAR IJ.salt
ENCODING 57654
SWIDTH 1133 0
DWIDTH 20 0
BBX 20 16 0 -3
BITMAP
0501000501
1D01001D01
3D11003D11
7D11003D11
7D11003D11
7D11007D11
7D11407D11
7D11C03D11
7D12C03D11
7D12C02811
7D12C10001
7D02D05500
7D02F40014
7FFBFFEAD0
3FE1FFFE40
0000155000
ENDCHAR
STARTCHAR IJ.stack
ENCODING 57655
SWIDTH 1363 0
DWIDTH 25 0
BBX 24 16 0 -3
BITMAP
040000000101
2C1550401E01
7C0100403E11
7E5115003E11
7FD118003E11
6BD110003E11
03D110503E11
03D112C03E11
03D117C13E11
029106D11911
0C0100D10001
7C1550E05501
7C0000F80014
7FFFFFFFEAD0
7FFFF4BFFF40
000000055000
ENDCHAR
STARTCHAR quoteleft.salt
ENCODING 57656
SWIDTH 407 0
DWIDTH 7 0
BBX 7 7 0 6
BITMAP
0154
0854
3C04
7C44
7D04
7FE0
7F80
ENDCHAR
STARTCHAR quoteright.salt
ENCODING 57657
SWIDTH 407 0
DWIDTH 7 0
BBX 7 7 0 6
BITMAP
0804
2C54
7D14
7E44
7D50
3FD0
7E00
ENDCHAR
STARTCHAR ampersand.salt
ENCODING 57658
SWIDTH 732 0
DWIDTH 13 0
BBX 13 19 0 -4
BITMAP
00055000
00280400
00904040
01415440
0B040040
1F00AA40
2F00AD00
2F400100
1D154100
1C000100
7847F400
B8429500
B8000040
BC055040
BF404040
7FF80600
1FFD5400
00FFD000
00AA4000
ENDCHAR
STARTCHAR caron.2
ENCODING 57659
SWIDTH 600 0
DWIDTH 11 0
BBX 8 7 1 6
BITMAP
0201
0A01
2E11
2D00
3D04
3FE0
7F80
ENDCHAR
STARTCHAR indexup
ENCODING 57660
SWIDTH 1100 0
DWIDTH 20 0
BBX 12 15 4 -2
BITMAP
011000
1D1000
3D1000
3D1500
3D1054
3D0044
7D0004
7D0004
7E0004
7E0004
3A5555
340001
B80001
FFFFFD
FFFFE0
ENDCHAR
STARTCHAR indexdown
ENCODING 57661
SWIDTH 1100 0
DWIDTH 20 0
BBX 12 15 4 -2
BITMAP
140001
740001
FA5559
FE0004
BE0004
2D0004
3D0004
7D0044
7D1054
7D1BD0
7D2F40
3D1000
3E1000
3F8000
3D0000
ENDCHAR
STARTCHAR indexupleft
ENCODING 57662
SWIDTH 1100 0
DWIDTH 20 0
BBX 14 17 3 -3
BITMAP
01400000
09100000
3F400000
7FC00000
1F400000
0B401000
0D000400
28000100
78000410
FE001000
BF804000
2FE10000
0FF80000
02F00000
00FD0000
01FC0000
00A00000
ENDCHAR
STARTCHAR indexupright
ENCODING 57663
SWIDTH 1100 0
DWIDTH 20 0
BBX 14 17 3 -3
BITMAP
00000140
00000400
00001040
00004100
00050500
00140140
00600040
04500010
14100010
7D040040
FF410100
7FD04400
1FF41000
07FD0000
01FF5000
007F4000
00190000
ENDCHAR
STARTCHAR indexdownleft
ENCODING 57664
SWIDTH 1100 0
DWIDTH 20 0
BBX 18 14 1 -2
BITMAP
0000140000
0000600000
0001F40000
0003810000
0001004000
0014001000
0050000410
0141000A40
0604401D00
1C3E006400
3EBFE10000
BD6FF40000
2007D00000
0000400000
ENDCHAR
STARTCHAR indexdownright
ENCODING 57665
SWIDTH 1100 0
DWIDTH 20 0
BBX 18 14 1 -2
BITMAP
0001400000
0005040000
0014140000
0050410000
0141000000
0504000000
1C10000000
7F60000100
7FF8011440
2AFE00BD10
00FF86FF40
002FE47E00
000B801400
0001000000
ENDCHAR
STARTCHAR indexdownleft.outline
ENCODING 57666
SWIDTH 1100 0
DWIDTH 20 0
BBX 16 12 3 0
BITMAP
0000B400
00012D00
00018B40
000512D0
005004B4
0040012C
01000089
04500054
11840100
55154400
14061000
00004000
ENDCHAR
STARTCHAR indexdownright.outline
ENCODING 57667
SWIDTH 1100 0
DWIDTH 20 0
BBX 16 12 3 0
BITMAP
000E4000
00384000
00E14000
03841000
0E100500
38400140
62000040
15000510
00401244
00115851
00055014
00010000
ENDCHAR
STARTCHAR indexupleft.outline
ENCODING 57668
SWIDTH 1100 0
DWIDTH 20 0
BBX 12 15 5 -1
BITMAP
140000
110000
144000
051400
054500
180100
210040
540065
400046
10011D
040474
0151D0
008740
006D00
006400
ENDCHAR
STARTCHAR indexupright.outline
ENCODING 57669
SWIDTH 1100 0
DWIDTH 20 0
BBX 12 15 5 -1
BITMAP
000014
000045
000114
001450
001150
004024
010048
550015
A10001
384004
0E1010
038540
00E200
003940
000900
ENDCHAR
STARTCHAR uni261A.salt
ENCODING 57670
SWIDTH 1100 0
DWIDTH 20 0
BBX 16 12 2 -1
BITMAP
01555481
14000081
79540041
FFFC4041
BFFC1041
00BD0041
00BF81C1
007F87D5
001B4BF8
000FD7D0
000F4000
00010000
ENDCHAR
STARTCHAR uni261B.salt
ENCODING 57671
SWIDTH 1100 0
DWIDTH 20 0
BBX 16 12 2 -1
BITMAP
08115554
28100001
B8100155
B81013F8
B81002E0
B8100000
B8241400
BD7D1000
BFFF1000
BD7F8000
001E0000
00040000
ENDCHAR
STARTCHAR indexdown.salt
ENCODING 57672
SWIDTH 1100 0
DWIDTH 20 0
BBX 12 15 4 -2
BITMAP
020001
0B0001
2FA555
2FD004
1A4000
040001
285141
BFE041
BBFA81
02FFC1
006BC0
000BC0
000BC4
0007F4
0007C0
ENDCHAR
STARTCHAR indexdownleft.salt
ENCODING 57673
SWIDTH 1100 0
DWIDTH 20 0
BBX 16 13 2 -1
BITMAP
00001500
00005040
0002E010
00064404
00140101
00500041
01800064
06011074
091D0440
247FA840
797FFD40
F81ABF40
A0003800
ENDCHAR
STARTCHAR indexdownright.salt
ENCODING 57674
SWIDTH 1100 0
DWIDTH 20 0
BBX 16 13 2 -1
BITMAP
00054000
00100000
00404000
01011400
04040000
24100040
BDA00010
FFE05004
77E10740
03D29FD1
03D79FF5
07FA07F4
07800190
ENDCHAR
STARTCHAR indexup.salt
ENCODING 57675
SWIDTH 1100 0
DWIDTH 20 0
BBX 12 15 4 -2
BITMAP
050000
1D1000
3C1000
7C1000
7C1500
781040
B80551
B80001
FC0014
BE0050
7E5550
380004
B80004
FFFFE0
FFFF40
ENDCHAR
STARTCHAR indexupleft.salt
ENCODING 57676
SWIDTH 1100 0
DWIDTH 20 0
BBX 14 17 3 -3
BITMAP
01000000
04100000
2D040000
BF410000
7FD00000
1FD01000
07440400
07040500
1F500410
1E401010
18004040
7EBE0100
BFFC0400
547D1000
00BF4000
007D0000
00100000
ENDCHAR
STARTCHAR indexupright.salt
ENCODING 57677
SWIDTH 1100 0
DWIDTH 20 0
BBX 14 17 3 -3
BITMAP
00000040
00000010
00001000
00004000
00010000
00140400
00701000
00A01040
04100500
2C040040
7F010010
BFC0BE80
2FF02F40
0BFC1800
02FE0000
00BC0000
00100000
ENDCHAR
STARTCHAR uni261C.salt
ENCODING 57678
SWIDTH 1100 0
DWIDTH 20 0
BBX 14 10 4 1
BITMAP
15555190
500018A0
555004A0
005404A0
005104A0
001104A0
000514A0
00045190
00044000
00010000
ENDCHAR
STARTCHAR uni261D.salt
ENCODING 57679
SWIDTH 1100 0
DWIDTH 20 0
BBX 10 13 6 0
BITMAP
140000
110000
110000
510000
425000
410400
415950
401010
100140
100400
655900
400040
BFFF40
ENDCHAR
STARTCHAR uni261E.salt
ENCODING 57680
SWIDTH 1100 0
DWIDTH 20 0
BBX 14 10 4 1
BITMAP
75155540
62400010
61005550
61011000
61041000
62045000
61424000
75110000
00150000
00040000
ENDCHAR
STARTCHAR uni261F.salt
ENCODING 57681
SWIDTH 1100 0
DWIDTH 20 0
BBX 10 13 6 0
BITMAP
0FFFE0
140010
055590
010040
140010
504010
561410
010410
005810
000510
000150
000140
000140
ENDCHAR
STARTCHAR indexdownleft.salt_outline
ENCODING 57682
SWIDTH 1100 0
DWIDTH 20 0
BBX 14 11 4 1
BITMAP
0001D000
00017400
00025D00
00145740
004015D0
01000470
04140550
14520400
11504400
44055400
50001400
ENDCHAR
STARTCHAR indexdownright.salt_outline
ENCODING 57683
SWIDTH 1100 0
DWIDTH 20 0
BBX 14 11 4 1
BITMAP
00740000
01D40000
07480000
1D114000
74401400
92000400
15014100
01085040
01105450
01250110
02400050
ENDCHAR
STARTCHAR indexupleft.salt_outline
ENCODING 57684
SWIDTH 1100 0
DWIDTH 20 0
BBX 12 15 5 -1
BITMAP
100000
150000
114000
041000
010500
014100
044040
044054
054055
14015D
400574
1565D0
005740
002D00
000400
ENDCHAR
STARTCHAR indexupright.salt_outline
ENCODING 57685
SWIDTH 1100 0
DWIDTH 20 0
BBX 12 15 5 -1
BITMAP
000004
000055
000144
000410
001050
004180
004110
150104
620050
744014
1D1001
074955
01D100
007900
001400
ENDCHAR
STARTCHAR block.v
ENCODING 57687
SWIDTH 1000 0
DWIDTH 18 0
BBX 20 21 -1 -4
BITMAP
1555555554
BFFFFFFFFE
BFFFFFFFFE
BFFFFFFFFE
BFFFFFFFFE
BFFFFFFFFE
BFFFFFFFFE
BFFFFFFFFE
BFFFFFFFFE
BFFFFFFFFE
BFFFFFFFFE
BFFFFFFFFE
BFFFFFFFFE
BFFFFFFFFE
BFFFFFFFFE
BFFFFFFFFE
BFFFFFFFFE
BFFFFFFFFE
BFFFFFFFFE
BFFFFFFFFE
1555555554
ENDCHAR
STARTCHAR uni25D6.v
ENCODING 57688
SWIDTH 1335 0
DWIDTH 24 0
BBX 20 11 2 1
BITMAP
0001694000
006BFFE900
01BFFFFE40
06FFFFFF90
1BFFFFFFE4
2FFFFFFFF8
2FFFFFFFF8
7FFFFFFFFD
7FFFFFFFFD
7FFFFFFFFE
6AAAAAAAA9
ENDCHAR
STARTCHAR uni25D7.v
ENCODING 57689
SWIDTH 1335 0
DWIDTH 24 0
BBX 20 11 2 1
BITMAP
6AAAAAAAA9
7FFFFFFFFE
7FFFFFFFFD
7FFFFFFFFD
2FFFFFFFF8
2FFFFFFFF8
1BFFFFFFE4
06FFFFFFD0
01BFFFFE40
006BFFE900
0005695000
ENDCHAR
STARTCHAR uni27A1.w
ENCODING 57690
SWIDTH 650 0
DWIDTH 12 0
BBX 13 27 0 -7
BITMAP
00001900
0000BD00
0001FD00
0006FD00
000BFE40
002FFF40
007FFF40
01BFFF40
02FFFF40
0BFFFF40
1FFFFF40
2FFFFF40
7FFFFF40
BFFFFF40
7FFFFF40
2FFFFF40
1FFFFF40
0BFFFF40
02FFFF40
01BFFF40
007FFF40
002FFF40
000BFE40
0006FD00
0001FD00
0000BD00
00001900
ENDCHAR
STARTCHAR uni27A1.n
ENCODING 57691
SWIDTH 1000 0
DWIDTH 18 0
BBX 28 13 -5 0
BITMAP
006AAAAAAAA900
2ABFFFFFFFFEA8
6FFFFFFFFFFFF9
2FFFFFFFFFFFF8
0BFFFFFFFFFFE0
01BFFFFFFFFE40
006FFFFFFFF900
000BFFFFFFE000
0001BFFFFE4000
00006FFFF90000
00000BFFE00000
000001BE400000
00000055000000
ENDCHAR
STARTCHAR uni27A1.s
ENCODING 57692
SWIDTH 1000 0
DWIDTH 18 0
BBX 28 13 -5 0
BITMAP
00000055000000
000001BE400000
00000BFFE00000
00006FFFF90000
0001BFFFFE4000
000BFFFFFFE000
006FFFFFFFF900
01BFFFFFFFFE40
0BFFFFFFFFFFE0
2FFFFFFFFFFFF8
6FFFFFFFFFFFF9
2ABFFFFFFFFEA8
006AAAAAAAA900
ENDCHAR
STARTCHAR uni2B24.salt
ENCODING 57693
SWIDTH 1280 0
DWIDTH 23 0
BBX 21 21 1 -4
BITMAP
000159500000
006BFFFA4000
02BFFFFFA000
0BFFFFFFF800
2FFFFFFFFE00
6FFFFFFFFE40
6FFFFFFFFE40
6FFFFFFFFE40
6FFFFFFFFE40
6FFFFFFFFE40
6FFFFFFFFE40
6FFFFFFFFE40
6FFFFFFFFE40
6FFFFFFFFE40
6FFFFFFFFE40
6FFFFFFFFE40
2FFFFFFFFE00
1BFFFFFFF900
02BFFFFFE400
006BFFFA4000
00015A500000
ENDCHAR
STARTCHAR uni25DD.curve
ENCODING 57694
SWIDTH 1280 0
DWIDTH 23 0
BBX 21 21 1 -4
BITMAP
155555000000
6AAAAAA90000
6FFFFFFF9000
6FFFFFFFE400
6FFFFFFFF800
6FFFFFFFFD00
6FFFFFFFFE00
6FFFFFFFFE00
6FFFFFFFFE00
6FFFFFFFFE40
6FFFFFFFFE40
6FFFFFFFFE40
6FFFFFFFFE40
6FFFFFFFFE40
6FFFFFFFFE40
6FFFFFFFFE40
6FFFFFFFFE40
6FFFFFFFFE40
6FFFFFFFFE40
6AAAAAAAAA40
155555555500
ENDCHAR
STARTCHAR uni2B1B.trapezoid_e
ENCODING 57695
SWIDTH 1280 0
DWIDTH 23 0
BBX 22 21 1 -4
BITMAP
155555555540
6AAAAAAAAAA0
6FFFFFFFFFE0
6FFFFFFFFFD0
6FFFFFFFFFD0
6FFFFFFFFF90
6FFFFFFFFF80
6FFFFFFFFF80
6FFFFFFFFF40
6FFFFFFFFF40
6FFFFFFFFE40
6FFFFFFFFE00
6FFFFFFFFE00
6FFFFFFFFD00
6FFFFFFFFD00
6FFFFFFFF900
6FFFFFFFF800
6FFFFFFFF800
6FFFFFFFF400
6AAAAAAAA400
155555555000
ENDCHAR
STARTCHAR uni2B1B.trapezoid_w
ENCODING 57696
SWIDTH 1280 0
DWIDTH 23 0
BBX 22 21 0 -4
BITMAP
155555555540
AAAAAAAAAA90
BFFFFFFFFF90
7FFFFFFFFF90
6FFFFFFFFF90
2FFFFFFFFF90
2FFFFFFFFF90
2FFFFFFFFF90
1FFFFFFFFF90
1BFFFFFFFF90
0BFFFFFFFF90
0BFFFFFFFF90
0BFFFFFFFF90
07FFFFFFFF90
06FFFFFFFF90
02FFFFFFFF90
02FFFFFFFF90
02FFFFFFFF90
01FFFFFFFF90
01AAAAAAAA90
005555555540
ENDCHAR
STARTCHAR arrowleft.chevron
ENCODING 57697
SWIDTH 1330 0
DWIDTH 24 0
BBX 24 27 0 -7
BITMAP
000004000000
000019000000
000069000000
0000B9555554
0002FEAAAAAA
000BFFFFFFFD
001FFFFFFFF8
006FFFFFFFF4
01BFFFFFFFE4
02FFFFFFFFE0
0BFFFFFFFFD0
1FFFFFFFFF80
7FFFFFFFFF80
BFFFFFFFFF40
7FFFFFFFFF80
2FFFFFFFFF80
0BFFFFFFFFD0
02FFFFFFFFE0
01BFFFFFFFE4
006FFFFFFFF4
001FFFFFFFF8
000BFFFFFFFD
0002FEAAAAAA
0000BA555554
000069000000
000019000000
000004000000
ENDCHAR
STARTCHAR arrowup.chevron
ENCODING 57698
SWIDTH 1280 0
DWIDTH 23 0
BBX 26 26 -1 -7
BITMAP
000001A0000000
00000BF8000000
00002FFE400000
0001BFFF900000
0006FFFFF80000
001FFFFFFE0000
00BFFFFFFF9000
06FFFFFFFFE400
1BFFFFFFFFF900
6FFFFFFFFFFF80
ABFFFFFFFFFA90
06FFFFFFFFE400
02FFFFFFFFE400
02FFFFFFFFE400
02FFFFFFFFE400
02FFFFFFFFE400
02FFFFFFFFE400
02FFFFFFFFE400
02FFFFFFFFE400
02FFFFFFFFE400
02FFFFFFFFE400
02FFFEAFFFE400
02FFE506BFE400
02FA40006BE400
0294000001A400
01000000001000
ENDCHAR
STARTCHAR arrowright.chevron
ENCODING 57699
SWIDTH 1330 0
DWIDTH 24 0
BBX 24 27 0 -7
BITMAP
000000100000
000000640000
000000690000
1555556E0000
AAAAAABF8000
7FFFFFFFE000
2FFFFFFFF400
2FFFFFFFF900
1BFFFFFFFE40
0BFFFFFFFF80
07FFFFFFFFE0
02FFFFFFFFF4
02FFFFFFFFFD
01FFFFFFFFFE
02FFFFFFFFFD
02FFFFFFFFF4
07FFFFFFFFE0
0BFFFFFFFF80
1BFFFFFFFE40
1FFFFFFFF900
2FFFFFFFF400
7FFFFFFFE000
AAAAAABF8000
1555556E0000
000000690000
000000640000
000000100000
ENDCHAR
STARTCHAR arrowdown.chevron
ENCODING 57700
SWIDTH 1280 0
DWIDTH 23 0
BBX 26 26 -1 -7
BITMAP
02900000016400
02F900001AE400
02FFA405BFE400
02FFFE6BFFE400
02FFFFFFFFE400
02FFFFFFFFE400
02FFFFFFFFE400
02FFFFFFFFE400
02FFFFFFFFE400
02FFFFFFFFE400
02FFFFFFFFE400
02FFFFFFFFE400
02FFFFFFFFE400
02FFFFFFFFE400
ABFFFFFFFFFA90
BFFFFFFFFFFF80
1FFFFFFFFFFE00
06FFFFFFFFF800
01BFFFFFFF9000
002FFFFFFE4000
000BFFFFF80000
0001BFFFE00000
00006FFE400000
00001BF9000000
000002A4000000
00000040000000
ENDCHAR
STARTCHAR uni25D6.deco
ENCODING 57701
SWIDTH 560 0
DWIDTH 10 0
BBX 10 23 1 -5
BITMAP
000A40
006B40
01BFA0
02FFE0
1BFFE0
2FFFE0
7FFFE0
BFFFE0
BFFFE0
BFFFE0
BFFFE0
BFFFE0
BFFFE0
BFFFE0
BFFFE0
BFFFE0
7FFFE0
2FFFE0
1AFFE0
02FFE0
01BFA0
006B50
000A40
ENDCHAR
STARTCHAR uni25D7.deco
ENCODING 57702
SWIDTH 560 0
DWIDTH 10 0
BBX 11 23 -1 -5
BITMAP
1A0000
1F9000
AFE400
BFF800
BFFE40
BFFF80
BFFFD0
BFFFE0
BFFFE0
BFFFE0
BFFFE0
BFFFE4
BFFFE0
BFFFE0
BFFFE0
BFFFE0
BFFFD0
BFFF80
BFFE40
BFF800
AFE400
5F9000
1A0000
ENDCHAR
STARTCHAR uni25D6.v_deco
ENCODING 57703
SWIDTH 1280 0
DWIDTH 23 0
BBX 23 10 0 1
BITMAP
00016AA50000
002BFFFFA000
00BFFFFFF800
01BFFFFFF900
0AFFFFFFFE80
1FFFFFFFFFD0
6FFFFFFFFFE8
BFFFFFFFFFF8
6FFFFFFFFFE4
1BFFFFFFFF90
ENDCHAR
STARTCHAR uni25D7.v_deco
ENCODING 57704
SWIDTH 1280 0
DWIDTH 23 0
BBX 23 10 0 2
BITMAP
1BFFFFFFFF90
6FFFFFFFFFE4
BFFFFFFFFFF8
AFFFFFFFFFE8
1FFFFFFFFFD0
0BFFFFFFFF90
01BFFFFFF900
00BFFFFFF800
002BFFFFA000
00056AA54000
ENDCHAR
STARTCHAR uni25D6.bevel
ENCODING 57705
SWIDTH 350 0
DWIDTH 6 0
BBX 6 21 1 -4
BITMAP
0010
00A0
0AF0
1FF0
6FF0
BFF0
BFF0
BFF0
BFF0
BFF0
BFF0
BFF0
BFF0
BFF0
BFF0
BFF0
6FF0
1FF0
0AF0
01A0
0050
ENDCHAR
STARTCHAR uni25D7.bevel
ENCODING 57706
SWIDTH 350 0
DWIDTH 6 0
BBX 6 21 -1 -4
BITMAP
1000
A400
BA00
BF80
BF90
BFE0
BFE0
BFE0
BFE0
BFE0
BFE0
BFE0
BFE0
BFE0
BFE0
BFE0
BF90
BF80
BA00
A400
5000
ENDCHAR
STARTCHAR uni25D6.v_bevel
ENCODING 57707
SWIDTH 1280 0
DWIDTH 23 0
BBX 21 7 1 3
BITMAP
001555550000
00AAAAAA8000
06BFFFFFA400
0BFFFFFFF800
2BFFFFFFFA00
6FFFFFFFFE40
155555555500
ENDCHAR
STARTCHAR uni25D7.v_bevel
ENCODING 57708
SWIDTH 1280 0
DWIDTH 23 0
BBX 21 7 1 3
BITMAP
155555555500
6FFFFFFFFE40
2BFFFFFFFE00
0BFFFFFFF800
06BFFFFFE400
00BFFFFF8000
001555550000
ENDCHAR
STARTCHAR uni25D6.spike
ENCODING 57709
SWIDTH 350 0
DWIDTH 6 0
BBX 7 21 0 -4
BITMAP
1554
0BA8
0BFC
06FC
02FC
01FC
01FC
06FC
0BFC
2FFC
6FFC
2FFC
0BFC
06FC
01FC
01FC
02FC
06FC
0BFC
0BE8
1554
ENDCHAR
STARTCHAR uni25D7.spike
ENCODING 57710
SWIDTH 350 0
DWIDTH 6 0
BBX 7 21 -1 -4
BITMAP
1550
ABD0
BF80
BF40
BE40
BE00
BE00
BE40
BF90
BFE0
BFF4
BFE4
BF90
BF40
BE00
BE00
BE40
BF40
BF80
ABD0
5550
ENDCHAR
STARTCHAR uni25D6.v_spike
ENCODING 57711
SWIDTH 1280 0
DWIDTH 23 0
BBX 21 7 1 3
BITMAP
000005000000
50006E400140
6941BF905B40
7FAAFFFABF40
6FFFFFFFFF40
6FFFFFFFFE40
2AAAAAAAAA40
ENDCHAR
STARTCHAR uni25D7.v_spike
ENCODING 57712
SWIDTH 1280 0
DWIDTH 23 0
BBX 21 7 1 3
BITMAP
2AAAAAAAAA40
6FFFFFFFFE40
6FFFFFFFFE40
7FABFFFABF40
7941BF905B40
50006E400140
000005000000
ENDCHAR
STARTCHAR uni25D6.square
ENCODING 57713
SWIDTH 350 0
DWIDTH 6 0
BBX 6 21 1 -4
BITMAP
0550
2AA0
6FF0
6FF0
6FF0
6FF0
6FF0
6FF0
6FF0
6FF0
6FF0
6FF0
6FF0
6FF0
6FF0
6FF0
6FF0
6FF0
6FF0
2AA0
0550
ENDCHAR
STARTCHAR uni25D7.square
ENCODING 57714
SWIDTH 350 0
DWIDTH 6 0
BBX 6 21 -1 -4
BITMAP
1500
AA90
BFD0
BFD0
BFD0
BFD0
BFD0
BFD0
BFD0
BFD0
BFD0
BFD0
BFD0
BFD0
BFD0
BFD0
BFD0
BFD0
BFD0
AA90
5540
ENDCHAR
STARTCHAR uni25D6.v_square
ENCODING 57715
SWIDTH 1280 0
DWIDTH 23 0
BBX 21 5 1 4
BITMAP
2AAAAAAAAA00
6FFFFFFFFE40
6FFFFFFFFE40
6FFFFFFFFE40
6FFFFFFFFE40
ENDCHAR
STARTCHAR uni25D7.v_square
ENCODING 57716
SWIDTH 1280 0
DWIDTH 23 0
BBX 21 5 1 4
BITMAP
6FFFFFFFFE40
6FFFFFFFFE40
6FFFFFFFFE40
6FFFFFFFFE40
2AAAAAAAAA00
ENDCHAR
STARTCHAR uni25D6.rounded
ENCODING 57717
SWIDTH 350 0
DWIDTH 6 0
BBX 6 21 1 -4
BITMAP
0010
06A0
1BF0
2FF0
2FF0
7FF0
7FF0
7FF0
BFF0
BFF0
BFF0
BFF0
BFF0
7FF0
7FF0
7FF0
2FF0
2FF0
1BF0
06A0
0050
ENDCHAR
STARTCHAR uni25D7.rounded
ENCODING 57718
SWIDTH 350 0
DWIDTH 6 0
BBX 6 21 -1 -4
BITMAP
1000
AA00
BF40
BF80
BFD0
BFD0
BFE0
BFE0
BFE0
BFE0
BFE0
BFE0
BFE0
BFE0
BFE0
BFD0
BFD0
BF80
BF80
AA00
5000
ENDCHAR
STARTCHAR uni25D6.v_rounded
ENCODING 57719
SWIDTH 1280 0
DWIDTH 23 0
BBX 21 7 1 3
BITMAP
000155500000
01AAAAAA9000
0BFFFFFFF900
2FFFFFFFFE00
2FFFFFFFFE00
6FFFFFFFFE40
155555555500
ENDCHAR
STARTCHAR uni25D7.v_rounded
ENCODING 57720
SWIDTH 1280 0
DWIDTH 23 0
BBX 21 7 1 3
BITMAP
155555555500
6FFFFFFFFE40
2FFFFFFFFE00
2FFFFFFFFE00
1BFFFFFFF900
01AABFAA9000
000555540000
ENDCHAR
STARTCHAR uni21AB.arrow
ENCODING 57721
SWIDTH 1000 0
DWIDTH 18 0
BBX 24 34 -2 -17
BITMAP
055400000000
2AAAA9400000
2FFFFFA40000
2FFFFFF90000
2FFFFFFE4000
2FFFFFFF9000
2FFFFFFFE000
2FFFFFFFF400
2FFFFFFFF800
2FFFFFFFF900
2FFFFFFFFD00
2FFFFFFFFD00
2FFFFFFFFE00
2FFFFFFFFE00
2FFFFFFFFE00
2FFFFFFFFE00
2FFFFFFFFE00
2FFFFFFFFE00
2FFFFFFFFE00
2BFFFFFFFE00
06FFFFFFFE00
01BFFFFFFE00
6AFFFFFFFEA9
2FFFFFFFFFF8
0BFFFFFFFFE0
02FFFFFFFF80
00BFFFFFFE00
002FFFFFF800
000BFFFFE000
0002FFFF4000
0000BFFD0000
00001FF40000
000006900000
000001400000
ENDCHAR
STARTCHAR uni21AC.arrow
ENCODING 57722
SWIDTH 1000 0
DWIDTH 18 0
BBX 24 34 -2 -4
BITMAP
000001400000
000006900000
00001FE40000
00007FFD0000
0002FFFF4000
000BFFFFE000
002FFFFFF800
00BFFFFFFE00
02FFFFFFFF80
0BFFFFFFFFE0
2FFFFFFFFFF8
6AFFFFFFFEA9
01BFFFFFFE00
05FFFFFFFE00
2BFFFFFFFE00
2FFFFFFFFE00
2FFFFFFFFE00
2FFFFFFFFE00
2FFFFFFFFE00
2FFFFFFFFE00
2FFFFFFFFE00
2FFFFFFFFE00
2FFFFFFFFD00
2FFFFFFFFD00
2FFFFFFFF900
2FFFFFFFF800
2FFFFFFFF400
2FFFFFFFE000
2FFFFFFF9000
2FFFFFFE4000
2FFFFFF90000
2FFFFFA40000
2AAAA9400000
055500000000
ENDCHAR
STARTCHAR uni21AB.v_arrow
ENCODING 57723
SWIDTH 1335 0
DWIDTH 24 0
BBX 33 23 -11 -6
BITMAP
000009055555555500
0000291FFFFFFFFF80
0000BD2FFFFFFFFF80
0002FEBFFFFFFFFF80
000BFFFFFFFFFFFF80
002FFFFFFFFFFFFF80
00BFFFFFFFFFFFFF80
02FFFFFFFFFFFFFF40
07FFFFFFFFFFFFFF40
1FFFFFFFFFFFFFFF40
7FFFFFFFFFFFFFFE40
BFFFFFFFFFFFFFFE00
6FFFFFFFFFFFFFFD00
1BFFFFFFFFFFFFF800
06FFFFFFFFFFFFE400
01FFFFFFFFFFFF9000
007FFFFFFFFFFE4000
001FFFFFFFFFE40000
000BFFFFFEAA400000
0002FE555550000000
0000BD000000000000
000029000000000000
000005000000000000
ENDCHAR
STARTCHAR uni21AC.v_arrow
ENCODING 57724
SWIDTH 1335 0
DWIDTH 24 0
BBX 33 23 2 -6
BITMAP
155555555418000000
BFFFFFFFFE1A000000
BFFFFFFFFE1B800000
BFFFFFFFFFAFE00000
BFFFFFFFFFFFF80000
BFFFFFFFFFFFFE0000
7FFFFFFFFFFFFF8000
7FFFFFFFFFFFFFE000
7FFFFFFFFFFFFFF800
7FFFFFFFFFFFFFFE00
2FFFFFFFFFFFFFFF40
2FFFFFFFFFFFFFFF80
1FFFFFFFFFFFFFFE40
0BFFFFFFFFFFFFFD00
06FFFFFFFFFFFFF400
01BFFFFFFFFFFFD000
006FFFFFFFFFFF4000
0006FFFFFFFFFE0000
00006AAFFFFFF80000
00000055556BE00000
00000000001B800000
00000000001A000000
000000000018000000
ENDCHAR
STARTCHAR uni25D6.wings
ENCODING 57725
SWIDTH 900 0
DWIDTH 16 0
BBX 17 27 0 -7
BITMAP
0155554000
01FFFFD000
01FFFFE000
15FFFFF540
6AFFFFFE80
7FFFFFFFC0
7FFFFFFFC0
7FFFFFFFC0
7FFFFFFFC0
7FFFFFFFC0
7FFFFFFFC0
7FFFFFFFC0
7FFFFFFFC0
7FFFFFFFC0
7FFFFFFFC0
7FFFFFFFC0
7FFFFFFFC0
7FFFFFFFC0
7FFFFFFFC0
7FFFFFFFC0
7FFFFFFFC0
7FFFFFFFC0
6AFFFFFF80
15FFFFF940
01FFFFE000
01FFFFD000
0155555000
ENDCHAR
STARTCHAR uni25D7.wings
ENCODING 57726
SWIDTH 900 0
DWIDTH 16 0
BBX 17 27 -1 -7
BITMAP
0055555000
01BFFFD000
01FFFFD000
16FFFFE500
AFFFFFEA80
BFFFFFFF80
BFFFFFFF80
BFFFFFFF80
BFFFFFFF80
BFFFFFFF80
BFFFFFFF80
BFFFFFFF80
BFFFFFFF80
BFFFFFFF80
BFFFFFFF80
BFFFFFFF80
BFFFFFFF80
BFFFFFFF80
BFFFFFFF80
BFFFFFFF80
BFFFFFFF80
BFFFFFFF80
AFFFFFEA80
57FFFFE500
01FFFFD000
01BFFFD000
0055555000
ENDCHAR
STARTCHAR uni25D6.v_wings
ENCODING 57727
SWIDTH 1280 0
DWIDTH 23 0
BBX 27 17 -2 -2
BITMAP
00AAAAAAAAA800
01BFFFFFFFF900
01BFFFFFFFF900
55BFFFFFFFFA54
7FFFFFFFFFFFF4
7FFFFFFFFFFFF4
7FFFFFFFFFFFF4
7FFFFFFFFFFFF4
7FFFFFFFFFFFF4
7FFFFFFFFFFFF4
7FFFFFFFFFFFF4
7FFFFFFFFFFFF4
7FFFFFFFFFFFF4
17FFFFFFFFFF90
01FFFFFFFFFE00
01BFFFFFFFF900
00AAAAAAAAA900
ENDCHAR
STARTCHAR uni25D7.v_wings
ENCODING 57728
SWIDTH 1280 0
DWIDTH 23 0
BBX 27 17 -2 -2
BITMAP
00AAAAAAAAA900
01BFFFFFFFF900
01FFFFFFFFFD00
16FFFFFFFFFE50
6FFFFFFFFFFFE4
7FFFFFFFFFFFF4
7FFFFFFFFFFFF4
7FFFFFFFFFFFF4
7FFFFFFFFFFFF4
7FFFFFFFFFFFF4
7FFFFFFFFFFFF4
7FFFFFFFFFFFF4
7FFFFFFFFFFFF4
56BFFFFFFFFA54
01BFFFFFFFF900
01BFFFFFFFF900
00AAAAAAAAA800
ENDCHAR
STARTCHAR uni2B1B.chevron_e
ENCODING 57729
SWIDTH 1280 0
DWIDTH 23 0
BBX 23 21 0 -4
BITMAP
155555555400
AAAAAAAAA900
7FFFFFFFFE00
2FFFFFFFFF40
2FFFFFFFFF80
1BFFFFFFFF80
0BFFFFFFFFD0
07FFFFFFFFE0
02FFFFFFFFE4
02FFFFFFFFF8
01FFFFFFFFF8
02FFFFFFFFF8
02FFFFFFFFE4
07FFFFFFFFE0
0BFFFFFFFFD0
1BFFFFFFFF80
1FFFFFFFFF80
2FFFFFFFFF40
7FFFFFFFFE00
AAAAAAAAA900
155555555400
ENDCHAR
STARTCHAR uni2B1B.chevron_n
ENCODING 57730
SWIDTH 1280 0
DWIDTH 23 0
BBX 21 23 1 -5
BITMAP
000059400000
0006BFA40000
016FFFFE5000
1AFFFFFFE900
6FFFFFFFFE40
6FFFFFFFFE40
6FFFFFFFFE40
6FFFFFFFFE40
6FFFFFFFFE40
6FFFFFFFFE40
6FFFFFFFFE40
6FFFFFFFFE40
6FFFFFFFFE40
6FFFFFFFFE40
6FFFFFFFFE40
6FFFFFFFFE40
6FFFFFFFFE40
6FFFFFFFFE40
6FFFFFFFFE40
6FFFA6BFFE40
6FE9405BFE40
6E900001AE40
250000000600
ENDCHAR
STARTCHAR uni2B1B.chevron_s
ENCODING 57731
SWIDTH 1280 0
DWIDTH 23 0
BBX 21 23 1 -5
BITMAP
250000001640
6E900001AE40
6FF9405BFE40
6FFFA6BFFE40
6FFFFFFFFE40
6FFFFFFFFE40
6FFFFFFFFE40
6FFFFFFFFE40
6FFFFFFFFE40
6FFFFFFFFE40
6FFFFFFFFE40
6FFFFFFFFE40
6FFFFFFFFE40
6FFFFFFFFE40
6FFFFFFFFE40
6FFFFFFFFE40
6FFFFFFFFE40
6FFFFFFFFE40
6FFFFFFFFE40
1AFFFFFFE900
016FFFFA5000
0006BFA40000
000059400000
ENDCHAR
STARTCHAR uni2B1B.chevron_w
ENCODING 57732
SWIDTH 1280 0
DWIDTH 23 0
BBX 23 21 0 -4
BITMAP
005555555550
01AAAAAAAAA8
02FFFFFFFFF4
06FFFFFFFFE4
07FFFFFFFFE0
0BFFFFFFFFD0
1FFFFFFFFF80
2FFFFFFFFF40
6FFFFFFFFE40
7FFFFFFFFE00
BFFFFFFFFD00
7FFFFFFFFE00
6FFFFFFFFE40
2FFFFFFFFF40
1FFFFFFFFF80
0BFFFFFFFFD0
07FFFFFFFFE0
06FFFFFFFFE4
02FFFFFFFFF4
01AAAAAAAAA8
005555555550
ENDCHAR
STARTCHAR uni2B1B.semichevron_e
ENCODING 57733
SWIDTH 650 0
DWIDTH 12 0
BBX 13 21 0 -4
BITMAP
15555500
AAAAAA40
7FFFFF80
2FFFFF80
2FFFFF80
1BFFFF80
0BFFFF80
07FFFF80
02FFFF80
02FFFF80
01FFFF80
02FFFF80
02FFFF80
07FFFF80
0BFFFF80
1BFFFF80
2FFFFF80
2FFFFF80
7FFFFF80
AAAAAA40
15555500
ENDCHAR
STARTCHAR uni2B1B.semichevron_w
ENCODING 57734
SWIDTH 650 0
DWIDTH 12 0
BBX 13 21 -1 -4
BITMAP
15555500
AAAAAA40
BFFFFE40
BFFFFE00
BFFFFD00
BFFFF800
BFFFF800
BFFFE400
BFFFE000
BFFFD000
BFFF9000
BFFFD000
BFFFE000
BFFFE400
BFFFF400
BFFFF800
BFFFFD00
BFFFFE00
BFFFFE40
AAAAAA40
55555500
ENDCHAR
STARTCHAR uni2B1B.semichevron_n
ENCODING 57735
SWIDTH 1000 0
DWIDTH 18 0
BBX 20 13 -1 0
BITMAP
5000000005
B94000016E
BFA4001AFE
BFFE96BFFE
BFFFEBFFFE
BFFFFFFFFE
BFFFFFFFFE
BFFFFFFFFE
BFFFFFFFFE
BFFFFFFFFE
BFFFFFFFFE
BFFFFFFFFE
6AAAAAAAA9
ENDCHAR
STARTCHAR uni2B1B.semichevron_s
ENCODING 57736
SWIDTH 1000 0
DWIDTH 18 0
BBX 20 13 -1 0
BITMAP
6AAAAAAAA9
BFFFFFFFFE
BFFFFFFFFE
BFFFFFFFFE
BFFFFFFFFE
BFFFFFFFFE
BFFFFFFFFE
BFFFFFFFFE
BFFFFFFFFE
BFFE96BFFE
BFE4001AFE
BA400001AE
5000000005
ENDCHAR
STARTCHAR space.v
ENCODING 57737
SWIDTH 1000 0
DWIDTH 18 0
BBX 1 1 0 0
BITMAP
00
ENDCHAR
STARTCHAR Agrave.v
ENCODING 57738
SWIDTH 1000 0
DWIDTH 18 0
BBX 14 19 2 -2
BITMAP
00555000
02400100
0F415000
0FE54000
0FFAA900
06800100
03415000
0B000040
0E114440
1D12C000
2C03D110
78400110
B8555510
B8400110
B8469110
B807E010
BC07E010
BFF7FFC0
BF83FE00
ENDCHAR
STARTCHAR Aacute.v
ENCODING 57739
SWIDTH 1000 0
DWIDTH 18 0
BBX 14 19 2 -2
BITMAP
00015500
00400000
07455000
0F405900
0FEAA800
0F800100
07415000
0B000040
0E114440
1D12C000
2C03D110
78400110
B8555510
B8400110
B8469110
B807E010
BC07E010
BFF7FFC0
BF83FE00
ENDCHAR
STARTCHAR Acircumflex.v
ENCODING 57740
SWIDTH 1000 0
DWIDTH 18 0
BBX 14 19 2 -2
BITMAP
00051400
00414100
03440000
0F469000
0FEAAA00
0F800100
07415000
0B000040
0E114440
1D12C000
2C03D110
78400110
B8555510
B8400110
B8469110
B807E010
BC07E010
BFF7FFC0
BF83FE00
ENDCHAR
STARTCHAR Atilde.v
ENCODING 57741
SWIDTH 1000 0
DWIDTH 18 0
BBX 14 19 2 -2
BITMAP
00150100
00400000
07455000
0F440100
0FFAA900
0F800100
07415000
0B000040
0E114440
1D12C000
2C03D110
78400110
B8555510
B8400110
B8469110
B807E010
BC07E010
BFF7FFC0
BF83FE00
ENDCHAR
STARTCHAR Adieresis.v
ENCODING 57742
SWIDTH 1000 0
DWIDTH 18 0
BBX 14 19 2 -2
BITMAP
00541500
02018040
1F018040
2F018040
2FEAAA00
1F800100
07415000
0B000040
0E114440
1D12C000
2C03D110
78400110
B8555510
B8400110
B8469110
B807E010
BC07E010
BFF7FFC0
BF83FE00
ENDCHAR
STARTCHAR Aring.v
ENCODING 57743
SWIDTH 1000 0
DWIDTH 18 0
BBX 14 19 2 -2
BITMAP
00155400
00455100
07514400
0F52D440
1F518400
1F855100
0F455000
0F000040
1E118440
2D12C010
3C43D110
78400110
B8555510
B8400110
B8469110
B807E010
B807E010
BFF3FF80
BF83FE00
ENDCHAR
ENDFONT
